<svg width="2160" height="1080" viewBox="0 0 2160 1080" fill="none" xmlns="http://www.w3.org/2000/svg">
<g clip-path="url(#clip0_40_50)">
<path id="2kresistor_pin_1" d="M889.171 350.169H-88.3346C-96.0606 350.169 -102.324 356.432 -102.324 364.158V389.914C-102.324 397.64 -96.0606 403.903 -88.3346 403.903H889.171C896.897 403.903 903.16 397.64 903.16 389.914V364.158C903.16 356.432 896.897 350.169 889.171 350.169Z" fill="#666666"/>
<path id="2kresistor_pin_2"  d="M2163.64 350.169H1186.13C1178.41 350.169 1172.14 356.432 1172.14 364.158V389.914C1172.14 397.64 1178.41 403.903 1186.13 403.903H2163.64C2171.36 403.903 2177.63 397.64 2177.63 389.914V364.158C2177.63 356.432 2171.36 350.169 2163.64 350.169Z" fill="#666666"/>
<path d="M798.562 228.562C777.083 228.562 761.236 232.572 749.094 239.125C749.041 239.153 748.99 239.19 748.937 239.219C730.891 248.21 721.58 261.931 715.031 276.656C700.52 304.41 692.918 335.751 659.219 345.75C657.905 346.14 656.597 346.497 655.281 346.875V393.094C656.598 393.473 657.904 393.86 659.219 394.25C723.966 413.462 672.156 511.438 798.562 511.438C799.298 511.438 800.09 511.405 800.875 511.376C802.302 511.405 803.742 511.438 805.219 511.438C835.433 511.438 908.325 485.813 936.406 485.813H1121.66C1149.74 485.813 1222.63 511.438 1252.84 511.438C1254.32 511.438 1255.76 511.404 1257.19 511.376C1257.97 511.406 1258.76 511.438 1259.5 511.438C1385.91 511.438 1334.1 413.462 1398.84 394.25C1400.16 393.86 1401.46 393.473 1402.78 393.094V346.875C1401.47 346.497 1400.16 346.14 1398.84 345.75C1365.14 335.751 1357.54 304.41 1343.03 276.656C1336.48 261.931 1327.17 248.21 1309.12 239.219C1309.07 239.19 1309.02 239.154 1308.97 239.125C1296.83 232.572 1280.98 228.562 1259.5 228.562C1258.78 228.562 1258.02 228.597 1257.25 228.625C1255.8 228.596 1254.34 228.562 1252.84 228.562C1222.63 228.562 1149.74 254.188 1121.66 254.188H936.406C908.325 254.188 835.433 228.562 805.219 228.562C803.721 228.562 802.26 228.597 800.812 228.625C800.046 228.596 799.286 228.562 798.562 228.562Z" fill="#D9BB7A" stroke="#565248"/>
<path d="M798.562 228.562C794.84 228.562 791.3 228.673 787.906 228.906V511.188C791.313 511.351 794.856 511.438 798.562 511.438C799.298 511.438 800.09 511.404 800.875 511.375C802.302 511.404 803.742 511.438 805.219 511.438C817.353 511.438 836.391 507.29 856.625 502.344V237.656C836.391 232.71 817.353 228.562 805.219 228.562C803.721 228.562 802.26 228.597 800.812 228.625C800.046 228.596 799.286 228.562 798.562 228.562Z" fill="#FF0000" stroke="#986601"/>
<path d="M901.062 248.562V491.438C915.317 488.172 927.921 485.812 936.406 485.812H969.75V254.188H936.406C927.921 254.188 915.317 251.828 901.062 248.562Z" fill="black" stroke="#430086" stroke-width="0.99"/>
<path d="M1014.19 254.188V485.812H1082.88V254.188H1014.19Z" fill="#FF0000" stroke="#980101"/>
<path d="M1252.84 228.562C1246.36 228.562 1237.9 229.769 1228.34 231.625V508.375C1237.9 510.231 1246.36 511.438 1252.84 511.438C1254.32 511.438 1255.76 511.403 1257.19 511.375C1257.97 511.405 1258.76 511.438 1259.5 511.438C1274.3 511.438 1286.64 510.091 1297.03 507.688V234C1286.84 230.561 1274.57 228.562 1259.5 228.562C1258.78 228.562 1258.02 228.597 1257.25 228.625C1255.8 228.596 1254.34 228.562 1252.84 228.562Z" fill="#FFD700"/>
<path d="M781.398 678.177V666.04L806.864 643.745C808.773 642.017 810.398 640.438 811.739 639.006C813.08 637.552 814.102 636.097 814.807 634.642C815.511 633.165 815.864 631.563 815.864 629.836C815.864 627.904 815.443 626.256 814.602 624.892C813.761 623.506 812.602 622.438 811.125 621.688C809.648 620.938 807.955 620.563 806.045 620.563C804.114 620.563 802.42 620.961 800.966 621.756C799.511 622.529 798.375 623.654 797.557 625.131C796.761 626.608 796.364 628.404 796.364 630.517H780.375C780.375 625.767 781.443 621.665 783.58 618.211C785.716 614.756 788.716 612.097 792.58 610.233C796.466 608.347 800.977 607.404 806.114 607.404C811.409 607.404 816.011 608.29 819.92 610.063C823.83 611.836 826.852 614.313 828.989 617.495C831.148 620.654 832.227 624.324 832.227 628.506C832.227 631.165 831.693 633.802 830.625 636.415C829.557 639.029 827.636 641.915 824.864 645.074C822.114 648.233 818.205 652.017 813.136 656.427L804.784 664.131V664.574H833.08V678.177H781.398ZM857.787 664.438L857.855 644.563H860.173L874.901 625.813H893.787L871.901 652.677H867.503L857.787 664.438ZM842.753 678.177V608.358H859.423V678.177H842.753ZM875.276 678.177L861.571 656.427L872.548 644.597L894.537 678.177H875.276ZM920.378 678.177V608.358H949.219C954.446 608.358 958.957 609.302 962.753 611.188C966.571 613.052 969.514 615.733 971.582 619.233C973.651 622.711 974.685 626.836 974.685 631.608C974.685 636.449 973.628 640.563 971.514 643.949C969.401 647.313 966.401 649.881 962.514 651.654C958.628 653.404 954.026 654.279 948.707 654.279H930.469V640.983H945.571C948.116 640.983 950.241 640.654 951.946 639.995C953.673 639.313 954.98 638.29 955.866 636.927C956.753 635.54 957.196 633.767 957.196 631.608C957.196 629.449 956.753 627.665 955.866 626.256C954.98 624.824 953.673 623.756 951.946 623.052C950.219 622.324 948.094 621.961 945.571 621.961H937.253V678.177H920.378ZM959.685 646.267L977.071 678.177H958.662L941.616 646.267H959.685ZM1007.39 679.165C1001.91 679.165 997.182 678.086 993.205 675.927C989.25 673.745 986.205 670.642 984.068 666.62C981.955 662.574 980.898 657.767 980.898 652.199C980.898 646.79 981.966 642.063 984.102 638.017C986.239 633.949 989.25 630.79 993.136 628.54C997.023 626.267 1001.6 625.131 1006.88 625.131C1010.6 625.131 1014.01 625.711 1017.1 626.87C1020.19 628.029 1022.86 629.745 1025.11 632.017C1027.36 634.29 1029.11 637.097 1030.36 640.438C1031.61 643.756 1032.24 647.563 1032.24 651.858V656.017H986.727V646.336H1016.73C1016.7 644.563 1016.28 642.983 1015.47 641.597C1014.65 640.211 1013.52 639.131 1012.09 638.358C1010.68 637.563 1009.06 637.165 1007.22 637.165C1005.35 637.165 1003.68 637.586 1002.2 638.427C1000.73 639.245 999.557 640.37 998.693 641.802C997.83 643.211 997.375 644.813 997.33 646.608V656.461C997.33 658.597 997.75 660.472 998.591 662.086C999.432 663.677 1000.62 664.915 1002.17 665.802C1003.72 666.688 1005.56 667.131 1007.69 667.131C1009.17 667.131 1010.51 666.927 1011.72 666.517C1012.92 666.108 1013.95 665.506 1014.82 664.711C1015.68 663.915 1016.33 662.938 1016.76 661.779L1032.07 662.222C1031.43 665.654 1030.03 668.642 1027.88 671.188C1025.74 673.711 1022.93 675.677 1019.45 677.086C1015.98 678.472 1011.95 679.165 1007.39 679.165ZM1086.47 641.802L1071.16 642.211C1071 641.12 1070.57 640.154 1069.87 639.313C1069.16 638.449 1068.24 637.779 1067.11 637.302C1065.99 636.802 1064.7 636.552 1063.22 636.552C1061.29 636.552 1059.64 636.938 1058.28 637.711C1056.93 638.483 1056.28 639.529 1056.3 640.847C1056.28 641.87 1056.68 642.756 1057.53 643.506C1058.39 644.256 1059.92 644.858 1062.13 645.313L1072.22 647.222C1077.45 648.222 1081.33 649.881 1083.88 652.199C1086.45 654.517 1087.74 657.586 1087.76 661.404C1087.74 664.995 1086.67 668.12 1084.56 670.779C1082.47 673.438 1079.61 675.506 1075.97 676.983C1072.33 678.438 1068.17 679.165 1063.49 679.165C1056.01 679.165 1050.12 677.631 1045.8 674.563C1041.5 671.472 1039.05 667.336 1038.43 662.154L1054.9 661.745C1055.26 663.654 1056.21 665.108 1057.73 666.108C1059.25 667.108 1061.2 667.608 1063.56 667.608C1065.7 667.608 1067.43 667.211 1068.78 666.415C1070.12 665.62 1070.8 664.563 1070.82 663.245C1070.8 662.063 1070.28 661.12 1069.25 660.415C1068.23 659.688 1066.63 659.12 1064.45 658.711L1055.31 656.972C1050.06 656.017 1046.15 654.256 1043.58 651.688C1041.01 649.097 1039.74 645.802 1039.76 641.802C1039.74 638.302 1040.67 635.313 1042.56 632.836C1044.45 630.336 1047.13 628.427 1050.61 627.108C1054.08 625.79 1058.18 625.131 1062.91 625.131C1070 625.131 1075.59 626.62 1079.68 629.597C1083.78 632.552 1086.04 636.62 1086.47 641.802ZM1095.97 678.177V625.813H1112.64V678.177H1095.97ZM1104.32 619.711C1101.98 619.711 1099.97 618.938 1098.29 617.392C1096.61 615.824 1095.77 613.938 1095.77 611.733C1095.77 609.552 1096.61 607.688 1098.29 606.142C1099.97 604.574 1101.98 603.79 1104.32 603.79C1106.69 603.79 1108.7 604.574 1110.36 606.142C1112.04 607.688 1112.88 609.552 1112.88 611.733C1112.88 613.938 1112.04 615.824 1110.36 617.392C1108.7 618.938 1106.69 619.711 1104.32 619.711ZM1168.97 641.802L1153.66 642.211C1153.5 641.12 1153.07 640.154 1152.37 639.313C1151.66 638.449 1150.74 637.779 1149.61 637.302C1148.49 636.802 1147.2 636.552 1145.72 636.552C1143.79 636.552 1142.14 636.938 1140.78 637.711C1139.43 638.483 1138.78 639.529 1138.8 640.847C1138.78 641.87 1139.18 642.756 1140.03 643.506C1140.89 644.256 1142.42 644.858 1144.63 645.313L1154.72 647.222C1159.95 648.222 1163.83 649.881 1166.38 652.199C1168.95 654.517 1170.24 657.586 1170.26 661.404C1170.24 664.995 1169.17 668.12 1167.06 670.779C1164.97 673.438 1162.11 675.506 1158.47 676.983C1154.83 678.438 1150.67 679.165 1145.99 679.165C1138.51 679.165 1132.62 677.631 1128.3 674.563C1124 671.472 1121.55 667.336 1120.93 662.154L1137.4 661.745C1137.76 663.654 1138.71 665.108 1140.23 666.108C1141.75 667.108 1143.7 667.608 1146.06 667.608C1148.2 667.608 1149.93 667.211 1151.28 666.415C1152.62 665.62 1153.3 664.563 1153.32 663.245C1153.3 662.063 1152.78 661.12 1151.75 660.415C1150.73 659.688 1149.13 659.12 1146.95 658.711L1137.81 656.972C1132.56 656.017 1128.65 654.256 1126.08 651.688C1123.51 649.097 1122.24 645.802 1122.26 641.802C1122.24 638.302 1123.17 635.313 1125.06 632.836C1126.95 630.336 1129.63 628.427 1133.11 627.108C1136.58 625.79 1140.68 625.131 1145.41 625.131C1152.5 625.131 1158.09 626.62 1162.18 629.597C1166.28 632.552 1168.54 636.62 1168.97 641.802ZM1208.03 625.813V638.086H1174.99V625.813H1208.03ZM1181.91 613.267H1198.59V661.711C1198.59 662.733 1198.74 663.563 1199.06 664.199C1199.4 664.813 1199.89 665.256 1200.53 665.529C1201.16 665.779 1201.93 665.904 1202.81 665.904C1203.45 665.904 1204.12 665.847 1204.82 665.733C1205.55 665.597 1206.1 665.483 1206.46 665.392L1208.98 677.427C1208.19 677.654 1207.06 677.938 1205.61 678.279C1204.18 678.62 1202.46 678.836 1200.46 678.927C1196.55 679.108 1193.2 678.654 1190.4 677.563C1187.63 676.449 1185.51 674.722 1184.03 672.381C1182.57 670.04 1181.87 667.097 1181.91 663.552V613.267ZM1240.41 679.165C1234.91 679.165 1230.19 678.04 1226.23 675.79C1222.3 673.517 1219.27 670.358 1217.13 666.313C1215.02 662.245 1213.96 657.529 1213.96 652.165C1213.96 646.779 1215.02 642.063 1217.13 638.017C1219.27 633.949 1222.3 630.79 1226.23 628.54C1230.19 626.267 1234.91 625.131 1240.41 625.131C1245.91 625.131 1250.63 626.267 1254.56 628.54C1258.52 630.79 1261.55 633.949 1263.66 638.017C1265.8 642.063 1266.87 646.779 1266.87 652.165C1266.87 657.529 1265.8 662.245 1263.66 666.313C1261.55 670.358 1258.52 673.517 1254.56 675.79C1250.63 678.04 1245.91 679.165 1240.41 679.165ZM1240.52 666.586C1242.52 666.586 1244.21 665.972 1245.6 664.745C1246.98 663.517 1248.04 661.813 1248.77 659.631C1249.52 657.449 1249.89 654.927 1249.89 652.063C1249.89 649.154 1249.52 646.608 1248.77 644.427C1248.04 642.245 1246.98 640.54 1245.6 639.313C1244.21 638.086 1242.52 637.472 1240.52 637.472C1238.45 637.472 1236.7 638.086 1235.27 639.313C1233.86 640.54 1232.78 642.245 1232.03 644.427C1231.3 646.608 1230.94 649.154 1230.94 652.063C1230.94 654.927 1231.3 657.449 1232.03 659.631C1232.78 661.813 1233.86 663.517 1235.27 664.745C1236.7 665.972 1238.45 666.586 1240.52 666.586ZM1275.41 678.177V625.813H1291.6V635.358H1292.15C1293.1 631.904 1294.66 629.336 1296.82 627.654C1298.98 625.949 1301.49 625.097 1304.35 625.097C1305.13 625.097 1305.92 625.154 1306.74 625.267C1307.56 625.358 1308.32 625.506 1309.02 625.711V640.199C1308.23 639.927 1307.18 639.711 1305.89 639.552C1304.61 639.392 1303.48 639.313 1302.48 639.313C1300.5 639.313 1298.72 639.756 1297.12 640.642C1295.56 641.506 1294.32 642.722 1293.41 644.29C1292.52 645.836 1292.08 647.654 1292.08 649.745V678.177H1275.41Z" fill="black"/>
</g>
<defs>
<clipPath id="clip0_40_50">
<rect width="2160" height="1080" fill="white"/>
</clipPath>
</defs>
</svg>
