<svg width="422" height="914" viewBox="0 0 422 914" fill="none" xmlns="http://www.w3.org/2000/svg">
<rect x="6" y="106" width="410" height="802" fill="#86FFA8" fill-opacity="0.83" stroke="black" stroke-width="12"/>
<rect id="batteryN" class="hoverable"  x="284.5" y="57.5" width="84" height="35" fill="white" stroke="black" stroke-width="15"/>
<path d="M176.115 595.023C178.71 595.042 181.267 595.515 183.786 596.443C186.304 597.371 188.577 598.886 190.604 600.989C192.649 603.091 194.278 605.932 195.49 609.511C196.721 613.072 197.346 617.504 197.365 622.807C197.365 627.902 196.854 632.437 195.831 636.415C194.808 640.373 193.34 643.716 191.428 646.443C189.534 649.17 187.232 651.244 184.524 652.665C181.816 654.085 178.767 654.795 175.376 654.795C171.911 654.795 168.833 654.114 166.143 652.75C163.454 651.386 161.267 649.502 159.581 647.097C157.895 644.672 156.844 641.888 156.428 638.744H165.092C165.661 641.244 166.816 643.271 168.558 644.824C170.32 646.358 172.592 647.125 175.376 647.125C179.638 647.125 182.962 645.269 185.348 641.557C187.734 637.826 188.937 632.617 188.956 625.932H188.501C187.517 627.561 186.286 628.962 184.808 630.136C183.35 631.311 181.712 632.22 179.893 632.864C178.075 633.508 176.134 633.83 174.07 633.83C170.717 633.83 167.668 633.006 164.922 631.358C162.176 629.71 159.988 627.447 158.359 624.568C156.731 621.689 155.916 618.403 155.916 614.71C155.916 611.036 156.75 607.703 158.416 604.71C160.102 601.718 162.45 599.35 165.462 597.608C168.492 595.847 172.043 594.985 176.115 595.023ZM176.143 602.409C173.928 602.409 171.929 602.958 170.149 604.057C168.388 605.136 166.996 606.604 165.973 608.46C164.95 610.297 164.439 612.343 164.439 614.597C164.439 616.85 164.931 618.896 165.916 620.733C166.92 622.551 168.284 624 170.007 625.08C171.75 626.14 173.738 626.67 175.973 626.67C177.64 626.67 179.193 626.348 180.632 625.705C182.071 625.061 183.331 624.17 184.411 623.034C185.49 621.879 186.333 620.572 186.939 619.114C187.545 617.655 187.848 616.121 187.848 614.511C187.848 612.371 187.337 610.383 186.314 608.545C185.31 606.708 183.928 605.231 182.166 604.114C180.405 602.977 178.397 602.409 176.143 602.409ZM234.68 595.818L250.874 643.205H251.527L267.72 595.818H277.209L256.271 654H246.129L225.192 595.818H234.68Z" fill="black"/>
<path d="M0.200012 292.921H421.787V311.296H0.200012V292.921Z" fill="black"/>
<path id="batteryP" class="hoverable" d="M141.36 99.9387H122.98V49.9693H152.907L157.339 18.3813H38.3229L42.7552 49.9693H72.6872V99.9387H54.3125V68.3547H26.7819L17.1985 0H178.465L168.887 68.3547H141.356L141.36 99.9387Z" fill="#FF0909"/>
<path d="M90.9467 126.709H104.733V191.84H90.9467V126.709Z" fill="black"/>
<path d="M97.84 152.375H130.408V166.161H97.84V152.375Z" fill="black"/>
<path d="M65.28 152.375H97.8427V166.161H65.28V152.375Z" fill="black"/>
<path d="M321.253 152.375H353.821V166.161H321.253V152.375Z" fill="black"/>
<path d="M288.707 152.375H321.269V166.161H288.707V152.375Z" fill="black"/>
</svg>
