<svg width="500" height="900" viewBox="0 0 70 138" fill="none" xmlns="http://www.w3.org/2000/svg">
<g clip-path="url(#clip0_508_2)">
<path d="M34.1025 0.0299994C25.683 0.0408994 17.2665 0.0756587 8.84751 0.771819C8.84751 0.771819 0.506314 1.16684 0.0207135 5.42282C0.0207135 5.42282 -0.0950466 11.4407 0.220753 19.9678L0.0207135 130.838C0.219923 136.218 4.70111 137.253 19.8247 137.373L34.2357 137.631V137.64H34.4024H34.5775V137.631L48.9805 137.373C64.1045 137.253 68.5855 136.218 68.7845 130.838L68.5845 19.9678C68.9003 11.4411 68.7845 5.42282 68.7845 5.42282C68.2989 1.16692 59.966 0.771819 59.966 0.771819C51.5463 0.0756388 43.122 0.0408794 34.702 0.0299994C34.5021 0.0297414 34.3025 0.0302354 34.1025 0.0299994Z" fill="black"/>
<path d="M65.8632 11.182H2.64117V122.902H65.8632V11.182Z" fill="#FFFEFE"/>
<path d="M36.0672 6.43999C36.0672 7.45601 35.2436 8.27964 34.2276 8.27964C33.2115 8.27964 32.3879 7.45601 32.3879 6.43999C32.3879 5.42397 33.2115 4.60034 34.2276 4.60034C35.2436 4.60034 36.0672 5.42397 36.0672 6.43999Z" fill="url(#paint0_linear_508_2)"/>
<path d="M36.0672 6.39299C36.0672 7.40901 35.2436 8.23264 34.2276 8.23264C33.2115 8.23264 32.3879 7.40901 32.3879 6.39299C32.3879 5.37698 33.2115 4.55334 34.2276 4.55334C35.2436 4.55334 36.0672 5.37698 36.0672 6.39299Z" fill="url(#paint1_linear_508_2)"/>
<path d="M12.032 6.47082C12.032 6.99026 11.6109 7.41134 11.0915 7.41134C10.5721 7.41134 10.151 6.99026 10.151 6.47082C10.151 5.95138 10.5721 5.5303 11.0915 5.5303C11.6109 5.5303 12.032 5.95138 12.032 6.47082Z" fill="url(#paint2_linear_508_2)"/>
<path d="M12.045 6.46983C12.045 6.98926 11.624 7.41034 11.1045 7.41034C10.5851 7.41034 10.164 6.98926 10.164 6.46983C10.164 5.95039 10.5851 5.52931 11.1045 5.52931C11.624 5.52931 12.045 5.95039 12.045 6.46983Z" fill="url(#paint3_linear_508_2)"/>
<path d="M11.4673 6.48847C11.4673 6.71535 11.2887 6.89927 11.0684 6.89927C10.8481 6.89927 10.6695 6.71535 10.6695 6.48847C10.6695 6.26159 10.8481 6.07767 11.0684 6.07767C11.2887 6.07767 11.4673 6.26159 11.4673 6.48847Z" fill="#6378FF"/>
<path d="M68.7545 17.318V26.1293" stroke="#5A5A5A" stroke-width="0.64013"/>
<path d="M35.5765 6.44351C35.5765 7.18003 34.9794 7.77708 34.2428 7.77708C33.5063 7.77708 32.9092 7.18003 32.9092 6.44351C32.9092 5.707 33.5063 5.10994 34.2428 5.10994C34.9794 5.10994 35.5765 5.707 35.5765 6.44351Z" fill="#3D3D3D"/>
<path d="M50.8975 117.29L55.5151 117.307V119.29M12.9962 118.255L13.8568 119.432M13.8735 117.248L12.9889 118.251L17.8409 118.298C19.135 118.317 18.6547 120.344 17.8243 120.132L15.4738 120.149M49.4972 118.223H54.3315L54.2815 120.074H49.5305L49.4972 118.223ZM30.8772 120.324L37.1451 120.357L37.1784 118.407L34.0278 117.19L30.9438 118.49L30.8772 120.324Z" stroke="white" stroke-width="0.26672"/>
<path d="M51.2645 14.386C51.4784 14.3443 51.5173 14.3527 51.6312 14.386" stroke="white" stroke-width="0.26672"/>
<path d="M50.8065 13.853C51.1455 13.4946 51.8178 13.5363 52.1234 13.8363" stroke="white" stroke-width="0.26672"/>
<path d="M50.3145 13.347C51.0536 12.6969 51.9259 12.7135 52.5733 13.3554" stroke="white" stroke-width="0.26672"/>
<path d="M49.8935 12.788C50.8159 11.8962 52.3051 12.0045 53.0358 12.738" stroke="white" stroke-width="0.26672"/>
<path d="M53.1485 14.753L53.1402 14.3529L53.632 14.0695L53.6237 14.753H53.1485Z" fill="#F6F6F6"/>
<path d="M53.8485 14.736L53.8818 13.6775L54.2736 13.3858V14.7611L53.8485 14.736Z" fill="#F6F6F6"/>
<path d="M54.5365 14.736L54.5698 12.9981L54.9616 12.7064V14.761L54.5365 14.736Z" fill="#F6F6F6"/>
<path d="M55.2075 14.732L55.2428 12.4024L55.6576 12.1107V14.7571L55.2075 14.732Z" fill="#F6F6F6"/>
<path d="M56.7245 14.678H58.3748V12.2358H57.8247V11.9774H57.2496V12.2275H56.7161L56.7245 14.678Z" fill="#F6F6F6"/>
<g clip-path="url(#clip1_508_2)">
<path d="M7.18984 25.03V22.8482H8.06342C8.22394 22.8482 8.35781 22.872 8.46506 22.9196C8.5723 22.9671 8.65291 23.0332 8.70689 23.1177C8.76087 23.2015 8.78786 23.2981 8.78786 23.4075C8.78786 23.4927 8.77081 23.5676 8.73672 23.6323C8.70263 23.6962 8.65575 23.7487 8.59609 23.7899C8.53715 23.8304 8.46967 23.8592 8.39368 23.8762V23.8975C8.47678 23.9011 8.55455 23.9245 8.62699 23.9679C8.70014 24.0112 8.75945 24.0719 8.8049 24.15C8.85036 24.2274 8.87308 24.3198 8.87308 24.427C8.87308 24.5428 8.84432 24.6461 8.78679 24.737C8.72997 24.8272 8.64581 24.8986 8.5343 24.9512C8.4228 25.0037 8.28537 25.03 8.12202 25.03H7.18984ZM7.65114 24.6529H8.0272C8.15575 24.6529 8.2495 24.6284 8.30845 24.5794C8.3674 24.5296 8.39688 24.4636 8.39688 24.3812C8.39688 24.3208 8.38232 24.2676 8.3532 24.2214C8.32408 24.1752 8.28253 24.139 8.22855 24.1127C8.17528 24.0865 8.11172 24.0733 8.03786 24.0733H7.65114V24.6529ZM7.65114 23.7612H7.99311C8.05632 23.7612 8.11243 23.7502 8.16144 23.7282C8.21115 23.7054 8.25021 23.6735 8.27862 23.6323C8.30774 23.5911 8.3223 23.5417 8.3223 23.4842C8.3223 23.4054 8.29425 23.3418 8.23814 23.2935C8.18274 23.2452 8.10391 23.221 8.00163 23.221H7.65114V23.7612ZM9.70856 22.8482V25.03H9.25472V22.8482H9.70856ZM11.2115 24.3333V23.3936H11.6653V25.03H11.2296V24.7328H11.2125C11.1756 24.8286 11.1142 24.9057 11.0282 24.9639C10.943 25.0222 10.8389 25.0513 10.7161 25.0513C10.6067 25.0513 10.5105 25.0264 10.4274 24.9767C10.3443 24.927 10.2793 24.8563 10.2324 24.7647C10.1863 24.6731 10.1628 24.5634 10.1621 24.4355V23.3936H10.6159V24.3546C10.6166 24.4512 10.6426 24.5275 10.6937 24.5836C10.7448 24.6397 10.8134 24.6678 10.8993 24.6678C10.954 24.6678 11.0051 24.6554 11.0527 24.6305C11.1003 24.6049 11.1387 24.5673 11.1678 24.5176C11.1976 24.4679 11.2122 24.4064 11.2115 24.3333ZM12.8641 25.062C12.6957 25.062 12.5508 25.0279 12.4294 24.9597C12.3087 24.8908 12.2156 24.7935 12.1503 24.6678C12.0849 24.5414 12.0523 24.3919 12.0523 24.2193C12.0523 24.051 12.0849 23.9032 12.1503 23.7761C12.2156 23.649 12.3076 23.5499 12.4262 23.4789C12.5455 23.4078 12.6854 23.3723 12.8459 23.3723C12.9539 23.3723 13.0544 23.3897 13.1474 23.4245C13.2412 23.4586 13.3229 23.5101 13.3925 23.579C13.4628 23.6479 13.5175 23.7345 13.5565 23.8389C13.5956 23.9426 13.6151 24.0641 13.6151 24.2033V24.3279H12.2334V24.0467H13.1879C13.1879 23.9813 13.1737 23.9235 13.1453 23.873C13.1169 23.8226 13.0775 23.7832 13.027 23.7548C12.9773 23.7257 12.9195 23.7111 12.8534 23.7111C12.7845 23.7111 12.7234 23.7271 12.6702 23.759C12.6176 23.7903 12.5764 23.8326 12.5466 23.8858C12.5168 23.9384 12.5015 23.997 12.5008 24.0616V24.329C12.5008 24.41 12.5157 24.4799 12.5455 24.5389C12.5761 24.5978 12.619 24.6433 12.6744 24.6752C12.7298 24.7072 12.7955 24.7232 12.8715 24.7232C12.9219 24.7232 12.9681 24.7161 13.01 24.7019C13.0519 24.6877 13.0878 24.6664 13.1176 24.638C13.1474 24.6095 13.1702 24.5747 13.1858 24.5335L13.6055 24.5612C13.5842 24.6621 13.5405 24.7502 13.4745 24.8255C13.4092 24.9 13.3246 24.9583 13.2209 25.0002C13.118 25.0414 12.999 25.062 12.8641 25.062ZM14.8717 23.3936V23.7345H13.8862V23.3936H14.8717ZM14.1099 23.0016H14.5638V24.5272C14.5638 24.5691 14.5702 24.6017 14.583 24.6252C14.5957 24.6479 14.6135 24.6639 14.6362 24.6731C14.6597 24.6823 14.6867 24.687 14.7172 24.687C14.7385 24.687 14.7598 24.6852 14.7811 24.6816C14.8024 24.6774 14.8188 24.6742 14.8301 24.672L14.9015 25.0098C14.8788 25.0169 14.8468 25.025 14.8056 25.0343C14.7644 25.0442 14.7144 25.0502 14.6554 25.0524C14.546 25.0566 14.4501 25.0421 14.3678 25.0087C14.2861 24.9753 14.2225 24.9235 14.1771 24.8532C14.1316 24.7828 14.1092 24.6941 14.1099 24.5868V23.0016ZM15.9791 25.062C15.8136 25.062 15.6705 25.0268 15.5497 24.9565C15.4297 24.8855 15.337 24.7867 15.2717 24.6603C15.2063 24.5332 15.1737 24.3858 15.1737 24.2182C15.1737 24.0492 15.2063 23.9014 15.2717 23.775C15.337 23.6479 15.4297 23.5492 15.5497 23.4789C15.6705 23.4078 15.8136 23.3723 15.9791 23.3723C16.1445 23.3723 16.2873 23.4078 16.4073 23.4789C16.5281 23.5492 16.6211 23.6479 16.6865 23.775C16.7518 23.9014 16.7845 24.0492 16.7845 24.2182C16.7845 24.3858 16.7518 24.5332 16.6865 24.6603C16.6211 24.7867 16.5281 24.8855 16.4073 24.9565C16.2873 25.0268 16.1445 25.062 15.9791 25.062ZM15.9812 24.7104C16.0565 24.7104 16.1193 24.6891 16.1698 24.6465C16.2202 24.6032 16.2582 24.5442 16.2838 24.4696C16.31 24.3951 16.3232 24.3102 16.3232 24.215C16.3232 24.1198 16.31 24.035 16.2838 23.9604C16.2582 23.8858 16.2202 23.8269 16.1698 23.7835C16.1193 23.7402 16.0565 23.7186 15.9812 23.7186C15.9052 23.7186 15.8413 23.7402 15.7894 23.7835C15.7383 23.8269 15.6996 23.8858 15.6733 23.9604C15.6477 24.035 15.635 24.1198 15.635 24.215C15.635 24.3102 15.6477 24.3951 15.6733 24.4696C15.6996 24.5442 15.7383 24.6032 15.7894 24.6465C15.8413 24.6891 15.9052 24.7104 15.9812 24.7104ZM17.9089 25.062C17.7434 25.062 17.6003 25.0268 17.4796 24.9565C17.3595 24.8855 17.2669 24.7867 17.2015 24.6603C17.1362 24.5332 17.1035 24.3858 17.1035 24.2182C17.1035 24.0492 17.1362 23.9014 17.2015 23.775C17.2669 23.6479 17.3595 23.5492 17.4796 23.4789C17.6003 23.4078 17.7434 23.3723 17.9089 23.3723C18.0744 23.3723 18.2171 23.4078 18.3372 23.4789C18.4579 23.5492 18.551 23.6479 18.6163 23.775C18.6816 23.9014 18.7143 24.0492 18.7143 24.2182C18.7143 24.3858 18.6816 24.5332 18.6163 24.6603C18.551 24.7867 18.4579 24.8855 18.3372 24.9565C18.2171 25.0268 18.0744 25.062 17.9089 25.062ZM17.911 24.7104C17.9863 24.7104 18.0492 24.6891 18.0996 24.6465C18.15 24.6032 18.188 24.5442 18.2136 24.4696C18.2399 24.3951 18.253 24.3102 18.253 24.215C18.253 24.1198 18.2399 24.035 18.2136 23.9604C18.188 23.8858 18.15 23.8269 18.0996 23.7835C18.0492 23.7402 17.9863 23.7186 17.911 23.7186C17.835 23.7186 17.7711 23.7402 17.7193 23.7835C17.6681 23.8269 17.6294 23.8858 17.6032 23.9604C17.5776 24.035 17.5648 24.1198 17.5648 24.215C17.5648 24.3102 17.5776 24.3951 17.6032 24.4696C17.6294 24.5442 17.6681 24.6032 17.7193 24.6465C17.7711 24.6891 17.835 24.7104 17.911 24.7104ZM19.9698 23.3936V23.7345H18.9844V23.3936H19.9698ZM19.2081 23.0016H19.6619V24.5272C19.6619 24.5691 19.6683 24.6017 19.6811 24.6252C19.6939 24.6479 19.7116 24.6639 19.7344 24.6731C19.7578 24.6823 19.7848 24.687 19.8153 24.687C19.8366 24.687 19.8579 24.6852 19.8792 24.6816C19.9005 24.6774 19.9169 24.6742 19.9282 24.672L19.9996 25.0098C19.9769 25.0169 19.9449 25.025 19.9037 25.0343C19.8625 25.0442 19.8125 25.0502 19.7535 25.0524C19.6442 25.0566 19.5483 25.0421 19.4659 25.0087C19.3842 24.9753 19.3206 24.9235 19.2752 24.8532C19.2297 24.7828 19.2074 24.6941 19.2081 24.5868V23.0016ZM20.8444 24.084V25.03H20.3906V22.8482H20.8316V23.6823H20.8508C20.8877 23.5858 20.9474 23.5101 21.0298 23.4554C21.1122 23.4 21.2155 23.3723 21.3398 23.3723C21.4534 23.3723 21.5525 23.3972 21.637 23.4469C21.7223 23.4959 21.7883 23.5666 21.8352 23.6589C21.8828 23.7505 21.9062 23.8603 21.9055 23.9881V25.03H21.4517V24.0691C21.4524 23.9682 21.4268 23.8897 21.375 23.8336C21.3238 23.7775 21.2521 23.7495 21.1598 23.7495C21.098 23.7495 21.0433 23.7626 20.9957 23.7889C20.9488 23.8152 20.9119 23.8535 20.8849 23.9039C20.8586 23.9536 20.8451 24.0137 20.8444 24.084ZM24.3291 23.4757C24.3206 23.3897 24.284 23.323 24.2194 23.2754C24.1547 23.2278 24.067 23.204 23.9562 23.204C23.8809 23.204 23.8174 23.2147 23.7655 23.236C23.7137 23.2566 23.6739 23.2853 23.6462 23.3223C23.6192 23.3592 23.6057 23.4011 23.6057 23.448C23.6043 23.487 23.6125 23.5211 23.6302 23.5502C23.6487 23.5794 23.6739 23.6046 23.7059 23.6259C23.7378 23.6465 23.7748 23.6646 23.8167 23.6802C23.8586 23.6951 23.9033 23.7079 23.9509 23.7186L24.1469 23.7654C24.2421 23.7867 24.3295 23.8152 24.409 23.8507C24.4885 23.8862 24.5574 23.9299 24.6157 23.9817C24.6739 24.0335 24.719 24.0946 24.751 24.1649C24.7836 24.2353 24.8003 24.3159 24.801 24.4068C24.8003 24.5403 24.7662 24.6561 24.6988 24.7541C24.632 24.8514 24.5354 24.927 24.409 24.981C24.2833 25.0343 24.1317 25.0609 23.9541 25.0609C23.778 25.0609 23.6246 25.0339 23.4939 24.9799C23.3639 24.926 23.2623 24.846 23.1892 24.7402C23.1167 24.6337 23.0787 24.5019 23.0752 24.345H23.5216C23.5265 24.4181 23.5475 24.4792 23.5844 24.5282C23.6221 24.5765 23.6721 24.6131 23.7346 24.638C23.7979 24.6621 23.8692 24.6742 23.9488 24.6742C24.0269 24.6742 24.0947 24.6628 24.1523 24.6401C24.2105 24.6174 24.2556 24.5858 24.2876 24.5453C24.3195 24.5048 24.3355 24.4583 24.3355 24.4057C24.3355 24.3567 24.3209 24.3155 24.2918 24.2821C24.2634 24.2487 24.2215 24.2203 24.1661 24.1969C24.1114 24.1735 24.0443 24.1522 23.9648 24.133L23.7272 24.0733C23.5432 24.0286 23.398 23.9586 23.2915 23.8635C23.1849 23.7683 23.132 23.6401 23.1327 23.4789C23.132 23.3468 23.1672 23.2313 23.2382 23.1326C23.3099 23.0339 23.4083 22.9568 23.5333 22.9014C23.6583 22.846 23.8003 22.8184 23.9594 22.8184C24.1214 22.8184 24.2627 22.846 24.3834 22.9014C24.5049 22.9568 24.5993 23.0339 24.6668 23.1326C24.7343 23.2313 24.7691 23.3457 24.7712 23.4757H24.3291ZM25.9385 25.062C25.7702 25.062 25.6253 25.0279 25.5039 24.9597C25.3831 24.8908 25.2901 24.7935 25.2248 24.6678C25.1594 24.5414 25.1268 24.3919 25.1268 24.2193C25.1268 24.051 25.1594 23.9032 25.2248 23.7761C25.2901 23.649 25.3821 23.5499 25.5007 23.4789C25.62 23.4078 25.7599 23.3723 25.9204 23.3723C26.0284 23.3723 26.1289 23.3897 26.2219 23.4245C26.3157 23.4586 26.3974 23.5101 26.467 23.579C26.5373 23.6479 26.592 23.7345 26.631 23.8389C26.6701 23.9426 26.6896 24.0641 26.6896 24.2033V24.3279H25.3079V24.0467H26.2624C26.2624 23.9813 26.2482 23.9235 26.2198 23.873C26.1914 23.8226 26.152 23.7832 26.1015 23.7548C26.0518 23.7257 25.9939 23.7111 25.9279 23.7111C25.859 23.7111 25.7979 23.7271 25.7447 23.759C25.6921 23.7903 25.6509 23.8326 25.6211 23.8858C25.5912 23.9384 25.576 23.997 25.5753 24.0616V24.329C25.5753 24.41 25.5902 24.4799 25.62 24.5389C25.6505 24.5978 25.6935 24.6433 25.7489 24.6752C25.8043 24.7072 25.87 24.7232 25.946 24.7232C25.9964 24.7232 26.0426 24.7161 26.0845 24.7019C26.1264 24.6877 26.1623 24.6664 26.1921 24.638C26.2219 24.6095 26.2447 24.5747 26.2603 24.5335L26.68 24.5612C26.6587 24.6621 26.615 24.7502 26.549 24.8255C26.4836 24.9 26.3991 24.9583 26.2954 25.0002C26.1925 25.0414 26.0735 25.062 25.9385 25.062ZM27.9462 23.3936V23.7345H26.9607V23.3936H27.9462ZM27.1844 23.0016H27.6383V24.5272C27.6383 24.5691 27.6447 24.6017 27.6575 24.6252C27.6702 24.6479 27.688 24.6639 27.7107 24.6731C27.7342 24.6823 27.7611 24.687 27.7917 24.687C27.813 24.687 27.8343 24.6852 27.8556 24.6816C27.8769 24.6774 27.8932 24.6742 27.9046 24.672L27.976 25.0098C27.9533 25.0169 27.9213 25.025 27.8801 25.0343C27.8389 25.0442 27.7888 25.0502 27.7299 25.0524C27.6205 25.0566 27.5246 25.0421 27.4423 25.0087C27.3606 24.9753 27.297 24.9235 27.2516 24.8532C27.2061 24.7828 27.1837 24.6941 27.1844 24.5868V23.0016ZM29.2022 23.3936V23.7345H28.2167V23.3936H29.2022ZM28.4405 23.0016H28.8943V24.5272C28.8943 24.5691 28.9007 24.6017 28.9135 24.6252C28.9263 24.6479 28.944 24.6639 28.9667 24.6731C28.9902 24.6823 29.0172 24.687 29.0477 24.687C29.069 24.687 29.0903 24.6852 29.1116 24.6816C29.1329 24.6774 29.1493 24.6742 29.1606 24.672L29.232 25.0098C29.2093 25.0169 29.1773 25.025 29.1361 25.0343C29.0949 25.0442 29.0449 25.0502 28.9859 25.0524C28.8765 25.0566 28.7807 25.0421 28.6983 25.0087C28.6166 24.9753 28.553 24.9235 28.5076 24.8532C28.4621 24.7828 28.4397 24.6941 28.4405 24.5868V23.0016ZM29.5878 25.03V23.3936H30.0416V25.03H29.5878ZM29.8158 23.1827C29.7483 23.1827 29.6904 23.1603 29.6421 23.1156C29.5946 23.0701 29.5708 23.0158 29.5708 22.9526C29.5708 22.8901 29.5946 22.8365 29.6421 22.7917C29.6904 22.7463 29.7483 22.7235 29.8158 22.7235C29.8833 22.7235 29.9408 22.7463 29.9884 22.7917C30.0367 22.8365 30.0608 22.8901 30.0608 22.9526C30.0608 23.0158 30.0367 23.0701 29.9884 23.1156C29.9408 23.1603 29.8833 23.1827 29.8158 23.1827ZM30.949 24.084V25.03H30.4952V23.3936H30.9277V23.6823H30.9469C30.9831 23.5872 31.0438 23.5119 31.1291 23.4565C31.2143 23.4004 31.3176 23.3723 31.4391 23.3723C31.5527 23.3723 31.6518 23.3972 31.7363 23.4469C31.8208 23.4966 31.8865 23.5676 31.9334 23.66C31.9803 23.7516 32.0037 23.861 32.0037 23.9881V25.03H31.5499V24.0691C31.5506 23.9689 31.525 23.8908 31.4732 23.8347C31.4213 23.7779 31.3499 23.7495 31.259 23.7495C31.198 23.7495 31.144 23.7626 31.0971 23.7889C31.0509 23.8152 31.0147 23.8535 30.9884 23.9039C30.9629 23.9536 30.9497 24.0137 30.949 24.084ZM33.1886 25.6777C33.0416 25.6777 32.9155 25.6575 32.8104 25.617C32.706 25.5772 32.6229 25.5229 32.5611 25.454C32.4993 25.3851 32.4592 25.3077 32.4407 25.2218L32.8605 25.1653C32.8733 25.198 32.8935 25.2285 32.9212 25.2569C32.9489 25.2853 32.9855 25.3081 33.0309 25.3251C33.0771 25.3429 33.1332 25.3517 33.1993 25.3517C33.298 25.3517 33.3793 25.3276 33.4432 25.2793C33.5079 25.2317 33.5402 25.1518 33.5402 25.0396V24.7402H33.521C33.5011 24.7857 33.4713 24.8286 33.4315 24.8691C33.3917 24.9096 33.3406 24.9426 33.2781 24.9682C33.2156 24.9938 33.141 25.0066 33.0544 25.0066C32.9315 25.0066 32.8197 24.9782 32.7188 24.9213C32.6187 24.8638 32.5388 24.7761 32.4791 24.6582C32.4202 24.5396 32.3907 24.3897 32.3907 24.2086C32.3907 24.0233 32.4209 23.8684 32.4812 23.7441C32.5416 23.6198 32.6219 23.5268 32.722 23.465C32.8228 23.4032 32.9333 23.3723 33.0533 23.3723C33.1449 23.3723 33.2216 23.388 33.2834 23.4192C33.3452 23.4497 33.3949 23.4881 33.4326 23.5343C33.4709 23.5797 33.5004 23.6245 33.521 23.6685H33.538V23.3936H33.9887V25.046C33.9887 25.1852 33.9546 25.3017 33.8864 25.3954C33.8182 25.4892 33.7238 25.5595 33.603 25.6063C33.483 25.6539 33.3449 25.6777 33.1886 25.6777ZM33.1982 24.6657C33.2714 24.6657 33.3331 24.6475 33.3836 24.6113C33.4347 24.5744 33.4738 24.5218 33.5008 24.4536C33.5285 24.3848 33.5423 24.3024 33.5423 24.2065C33.5423 24.1106 33.5288 24.0275 33.5018 23.9572C33.4748 23.8862 33.4358 23.8311 33.3846 23.7921C33.3335 23.753 33.2714 23.7335 33.1982 23.7335C33.1236 23.7335 33.0608 23.7537 33.0096 23.7942C32.9585 23.834 32.9198 23.8894 32.8935 23.9604C32.8672 24.0314 32.8541 24.1135 32.8541 24.2065C32.8541 24.301 32.8672 24.3826 32.8935 24.4515C32.9205 24.5197 32.9592 24.5726 33.0096 24.6103C33.0608 24.6472 33.1236 24.6657 33.1982 24.6657Z" fill="black"/>
</g>
<path d="M7.2152 37V34.8182H8.05043C8.2081 34.8182 8.33913 34.843 8.44354 34.8928C8.54865 34.9418 8.62713 35.0089 8.67898 35.0941C8.73153 35.1793 8.75781 35.2759 8.75781 35.3839C8.75781 35.4727 8.74077 35.5487 8.70668 35.6119C8.67259 35.6744 8.62678 35.7251 8.56925 35.7642C8.51172 35.8033 8.44744 35.8313 8.37642 35.8484V35.8697C8.45384 35.8739 8.52805 35.8977 8.59908 35.9411C8.67081 35.9837 8.7294 36.044 8.77486 36.1222C8.82031 36.2003 8.84304 36.2947 8.84304 36.4055C8.84304 36.5185 8.8157 36.62 8.76101 36.7102C8.70632 36.7997 8.62393 36.8704 8.51385 36.9222C8.40376 36.9741 8.26527 37 8.09837 37H7.2152ZM7.61044 36.6697H8.03551C8.17898 36.6697 8.28232 36.6424 8.34553 36.5877C8.40945 36.5323 8.44141 36.4613 8.44141 36.3746C8.44141 36.31 8.42543 36.2518 8.39347 36.1999C8.36151 36.1474 8.31605 36.1062 8.2571 36.0763C8.19815 36.0458 8.12784 36.0305 8.04616 36.0305H7.61044V36.6697ZM7.61044 35.7461H8.00142C8.0696 35.7461 8.13104 35.7337 8.18572 35.7088C8.24041 35.6832 8.28338 35.6474 8.31463 35.6012C8.34659 35.5543 8.36257 35.4989 8.36257 35.435C8.36257 35.3505 8.33274 35.2809 8.27308 35.2262C8.21413 35.1715 8.12642 35.1442 8.00994 35.1442H7.61044V35.7461ZM9.64549 34.8182V37H9.25983V34.8182H9.64549ZM11.175 36.3118V35.3636H11.5607V37H11.1867V36.7092H11.1697C11.1328 36.8008 11.072 36.8757 10.9875 36.9339C10.9037 36.9922 10.8004 37.0213 10.6775 37.0213C10.5703 37.0213 10.4755 36.9975 10.3931 36.9499C10.3114 36.9016 10.2475 36.8317 10.2013 36.7401C10.1551 36.6477 10.1321 36.5362 10.1321 36.4055V35.3636H10.5177V36.3459C10.5177 36.4496 10.5461 36.532 10.6029 36.593C10.6598 36.6541 10.7343 36.6847 10.8267 36.6847C10.8835 36.6847 10.9385 36.6708 10.9918 36.6431C11.0451 36.6154 11.0887 36.5742 11.1228 36.5195C11.1576 36.4641 11.175 36.3949 11.175 36.3118ZM12.7717 37.032C12.6076 37.032 12.4659 36.9979 12.3466 36.9297C12.228 36.8608 12.1367 36.7635 12.0728 36.6378C12.0089 36.5114 11.9769 36.3626 11.9769 36.1914C11.9769 36.0231 12.0089 35.8754 12.0728 35.7482C12.1375 35.6204 12.2277 35.521 12.3434 35.4499C12.4592 35.3782 12.5952 35.3423 12.7514 35.3423C12.8523 35.3423 12.9475 35.3587 13.037 35.3913C13.1272 35.4233 13.2067 35.473 13.2756 35.5405C13.3452 35.608 13.3999 35.6939 13.4397 35.7983C13.4794 35.902 13.4993 36.0256 13.4993 36.169V36.2873H12.1581V36.0273H13.1296C13.1289 35.9535 13.113 35.8878 13.0817 35.8303C13.0505 35.772 13.0068 35.7262 12.9507 35.6928C12.8953 35.6594 12.8306 35.6428 12.7568 35.6428C12.6779 35.6428 12.6087 35.6619 12.549 35.7003C12.4894 35.7379 12.4429 35.7876 12.4095 35.8494C12.3768 35.9105 12.3601 35.9776 12.3594 36.0508V36.2777C12.3594 36.3729 12.3768 36.4545 12.4116 36.5227C12.4464 36.5902 12.4951 36.642 12.5576 36.6783C12.6201 36.7138 12.6932 36.7315 12.777 36.7315C12.8331 36.7315 12.8839 36.7237 12.9294 36.7081C12.9748 36.6918 13.0142 36.668 13.0476 36.6367C13.081 36.6055 13.1062 36.5668 13.1232 36.5206L13.4833 36.5611C13.4606 36.6562 13.4173 36.7393 13.3534 36.8104C13.2902 36.8807 13.2092 36.9354 13.1105 36.9744C13.0117 37.0128 12.8988 37.032 12.7717 37.032ZM14.7327 35.3636V35.6619H13.792V35.3636H14.7327ZM14.0242 34.9716H14.4099V36.5078C14.4099 36.5597 14.4177 36.5994 14.4333 36.6271C14.4497 36.6541 14.471 36.6726 14.4973 36.6825C14.5235 36.6925 14.5526 36.6974 14.5846 36.6974C14.6088 36.6974 14.6308 36.6957 14.6507 36.6921C14.6713 36.6886 14.6869 36.6854 14.6975 36.6825L14.7625 36.984C14.7419 36.9911 14.7125 36.9989 14.6741 37.0075C14.6365 37.016 14.5903 37.021 14.5356 37.0224C14.439 37.0252 14.352 37.0107 14.2746 36.9787C14.1972 36.946 14.1357 36.8956 14.0903 36.8274C14.0455 36.7592 14.0235 36.674 14.0242 36.5717V34.9716ZM15.8414 37.032C15.6816 37.032 15.5431 36.9968 15.4259 36.9265C15.3088 36.8562 15.2178 36.7578 15.1532 36.6314C15.0893 36.505 15.0573 36.3572 15.0573 36.1882C15.0573 36.0192 15.0893 35.8711 15.1532 35.744C15.2178 35.6168 15.3088 35.5181 15.4259 35.4478C15.5431 35.3775 15.6816 35.3423 15.8414 35.3423C16.0012 35.3423 16.1397 35.3775 16.2569 35.4478C16.3741 35.5181 16.4646 35.6168 16.5286 35.744C16.5932 35.8711 16.6255 36.0192 16.6255 36.1882C16.6255 36.3572 16.5932 36.505 16.5286 36.6314C16.4646 36.7578 16.3741 36.8562 16.2569 36.9265C16.1397 36.9968 16.0012 37.032 15.8414 37.032ZM15.8436 36.723C15.9302 36.723 16.0026 36.6992 16.0609 36.6516C16.1191 36.6033 16.1624 36.5387 16.1909 36.4577C16.22 36.3768 16.2345 36.2866 16.2345 36.1871C16.2345 36.087 16.22 35.9964 16.1909 35.9155C16.1624 35.8338 16.1191 35.7688 16.0609 35.7205C16.0026 35.6722 15.9302 35.6481 15.8436 35.6481C15.7548 35.6481 15.6809 35.6722 15.622 35.7205C15.5637 35.7688 15.52 35.8338 15.4909 35.9155C15.4625 35.9964 15.4483 36.087 15.4483 36.1871C15.4483 36.2866 15.4625 36.3768 15.4909 36.4577C15.52 36.5387 15.5637 36.6033 15.622 36.6516C15.6809 36.6992 15.7548 36.723 15.8436 36.723ZM17.7566 37.032C17.5968 37.032 17.4583 36.9968 17.3411 36.9265C17.2239 36.8562 17.133 36.7578 17.0684 36.6314C17.0045 36.505 16.9725 36.3572 16.9725 36.1882C16.9725 36.0192 17.0045 35.8711 17.0684 35.744C17.133 35.6168 17.2239 35.5181 17.3411 35.4478C17.4583 35.3775 17.5968 35.3423 17.7566 35.3423C17.9164 35.3423 18.0549 35.3775 18.1721 35.4478C18.2893 35.5181 18.3798 35.6168 18.4438 35.744C18.5084 35.8711 18.5407 36.0192 18.5407 36.1882C18.5407 36.3572 18.5084 36.505 18.4438 36.6314C18.3798 36.7578 18.2893 36.8562 18.1721 36.9265C18.0549 36.9968 17.9164 37.032 17.7566 37.032ZM17.7587 36.723C17.8454 36.723 17.9178 36.6992 17.9761 36.6516C18.0343 36.6033 18.0776 36.5387 18.1061 36.4577C18.1352 36.3768 18.1497 36.2866 18.1497 36.1871C18.1497 36.087 18.1352 35.9964 18.1061 35.9155C18.0776 35.8338 18.0343 35.7688 17.9761 35.7205C17.9178 35.6722 17.8454 35.6481 17.7587 35.6481C17.67 35.6481 17.5961 35.6722 17.5372 35.7205C17.4789 35.7688 17.4352 35.8338 17.4061 35.9155C17.3777 35.9964 17.3635 36.087 17.3635 36.1871C17.3635 36.2866 17.3777 36.3768 17.4061 36.4577C17.4352 36.5387 17.4789 36.6033 17.5372 36.6516C17.5961 36.6992 17.67 36.723 17.7587 36.723ZM19.7752 35.3636V35.6619H18.8345V35.3636H19.7752ZM19.0667 34.9716H19.4524V36.5078C19.4524 36.5597 19.4602 36.5994 19.4758 36.6271C19.4921 36.6541 19.5134 36.6726 19.5397 36.6825C19.566 36.6925 19.5951 36.6974 19.6271 36.6974C19.6512 36.6974 19.6732 36.6957 19.6931 36.6921C19.7137 36.6886 19.7293 36.6854 19.74 36.6825L19.805 36.984C19.7844 36.9911 19.7549 36.9989 19.7166 37.0075C19.6789 37.016 19.6328 37.021 19.5781 37.0224C19.4815 37.0252 19.3945 37.0107 19.3171 36.9787C19.2396 36.946 19.1782 36.8956 19.1328 36.8274C19.088 36.7592 19.066 36.674 19.0667 36.5717V34.9716ZM20.6085 36.0412V37H20.2228V34.8182H20.6V35.6417H20.6191C20.6575 35.5494 20.7168 35.4766 20.7971 35.4233C20.878 35.3693 20.981 35.3423 21.106 35.3423C21.2196 35.3423 21.3187 35.3661 21.4032 35.4137C21.4878 35.4613 21.5531 35.5309 21.5993 35.6225C21.6461 35.7141 21.6696 35.826 21.6696 35.9581V37H21.2839V36.0178C21.2839 35.9077 21.2555 35.8221 21.1987 35.761C21.1426 35.6992 21.0638 35.6683 20.9622 35.6683C20.894 35.6683 20.8329 35.6832 20.7789 35.7131C20.7257 35.7422 20.6838 35.7844 20.6532 35.8398C20.6234 35.8952 20.6085 35.9624 20.6085 36.0412Z" fill="black"/>
<rect id='on' x="46" y="34" width="11" height="4" rx="2" fill="#D9D9D9"/>
<path id='off' d="M49 36C49 36.5523 48.5523 37 48 37C47.4477 37 47 36.5523 47 36C47 35.4477 47.4477 35 48 35C48.5523 35 49 35.4477 49 36Z" fill="white"/>
<path id='hide'  d="M56 36C56 36.5523 55.5523 37 55 37C54.4477 37 54 36.5523 54 36C54 35.4477 54.4477 35 55 35C55.5523 35 56 35.4477 56 36Z" fill="white"/>
<line x1="3" y1="50.9" x2="66" y2="50.9" stroke="#EEEEEE" stroke-width="0.2"/>
<path d="M6.49538 55H6.07351L6.84162 52.8182H7.32955L8.09872 55H7.67685L7.09411 53.2656H7.07706L6.49538 55ZM6.50923 54.1445H7.6598V54.462H6.50923V54.1445ZM9.71562 53.3636L9.13288 55H8.70674L8.124 53.3636H8.53522L8.91129 54.5792H8.92833L9.30547 53.3636H9.71562ZM10.4965 55.033C10.3928 55.033 10.2994 55.0146 10.2163 54.9776C10.1339 54.94 10.0686 54.8846 10.0203 54.8114C9.9727 54.7383 9.94891 54.6481 9.94891 54.5408C9.94891 54.4485 9.96596 54.3722 10 54.3118C10.0341 54.2514 10.0807 54.2031 10.1396 54.1669C10.1986 54.1307 10.265 54.1033 10.3388 54.0849C10.4134 54.0657 10.4905 54.0518 10.57 54.0433C10.6659 54.0334 10.7437 54.0245 10.8033 54.0167C10.863 54.0082 10.9063 53.9954 10.9333 53.9783C10.961 53.9606 10.9748 53.9332 10.9748 53.8963V53.8899C10.9748 53.8097 10.951 53.7475 10.9035 53.7035C10.8559 53.6594 10.7873 53.6374 10.6978 53.6374C10.6034 53.6374 10.5285 53.658 10.4731 53.6992C10.4184 53.7404 10.3814 53.7891 10.3623 53.8452L10.0022 53.794C10.0306 53.6946 10.0775 53.6115 10.1428 53.5447C10.2081 53.4773 10.288 53.4268 10.3825 53.3935C10.477 53.3594 10.5814 53.3423 10.6957 53.3423C10.7745 53.3423 10.853 53.3516 10.9312 53.37C11.0093 53.3885 11.0807 53.419 11.1453 53.4616C11.2099 53.5036 11.2618 53.5607 11.3008 53.6332C11.3406 53.7056 11.3605 53.7962 11.3605 53.9048V55H10.9897V54.7752H10.977C10.9535 54.8207 10.9205 54.8633 10.8779 54.9031C10.836 54.9421 10.7831 54.9737 10.7192 54.9979C10.6559 55.0213 10.5817 55.033 10.4965 55.033ZM10.5966 54.7496C10.6741 54.7496 10.7412 54.7344 10.798 54.7038C10.8548 54.6726 10.8985 54.6314 10.929 54.5803C10.9603 54.5291 10.9759 54.4734 10.9759 54.413V54.2202C10.9638 54.2301 10.9432 54.2393 10.9141 54.2479C10.8857 54.2564 10.8537 54.2638 10.8182 54.2702C10.7827 54.2766 10.7476 54.2823 10.7128 54.2873C10.678 54.2923 10.6478 54.2965 10.6222 54.3001C10.5647 54.3079 10.5132 54.3207 10.4677 54.3384C10.4223 54.3562 10.3864 54.381 10.3601 54.413C10.3339 54.4442 10.3207 54.4847 10.3207 54.5344C10.3207 54.6055 10.3466 54.6591 10.3985 54.6953C10.4503 54.7315 10.5164 54.7496 10.5966 54.7496ZM11.8383 55V53.3636H12.2239V55H11.8383ZM12.0322 53.1314C11.9711 53.1314 11.9185 53.1112 11.8745 53.0707C11.8305 53.0295 11.8084 52.9801 11.8084 52.9226C11.8084 52.8643 11.8305 52.815 11.8745 52.7745C11.9185 52.7333 11.9711 52.7127 12.0322 52.7127C12.094 52.7127 12.1465 52.7333 12.1898 52.7745C12.2339 52.815 12.2559 52.8643 12.2559 52.9226C12.2559 52.9801 12.2339 53.0295 12.1898 53.0707C12.1465 53.1112 12.094 53.1314 12.0322 53.1314ZM13.0962 52.8182V55H12.7105V52.8182H13.0962ZM14.0536 55.033C13.9499 55.033 13.8565 55.0146 13.7734 54.9776C13.691 54.94 13.6257 54.8846 13.5774 54.8114C13.5298 54.7383 13.506 54.6481 13.506 54.5408C13.506 54.4485 13.5231 54.3722 13.5572 54.3118C13.5912 54.2514 13.6378 54.2031 13.6967 54.1669C13.7557 54.1307 13.8221 54.1033 13.8959 54.0849C13.9705 54.0657 14.0476 54.0518 14.1271 54.0433C14.223 54.0334 14.3008 54.0245 14.3604 54.0167C14.4201 54.0082 14.4634 53.9954 14.4904 53.9783C14.5181 53.9606 14.5319 53.9332 14.5319 53.8963V53.8899C14.5319 53.8097 14.5081 53.7475 14.4606 53.7035C14.413 53.6594 14.3444 53.6374 14.255 53.6374C14.1605 53.6374 14.0856 53.658 14.0302 53.6992C13.9755 53.7404 13.9385 53.7891 13.9194 53.8452L13.5593 53.794C13.5877 53.6946 13.6346 53.6115 13.6999 53.5447C13.7653 53.4773 13.8452 53.4268 13.9396 53.3935C14.0341 53.3594 14.1385 53.3423 14.2528 53.3423C14.3317 53.3423 14.4101 53.3516 14.4883 53.37C14.5664 53.3885 14.6378 53.419 14.7024 53.4616C14.767 53.5036 14.8189 53.5607 14.8579 53.6332C14.8977 53.7056 14.9176 53.7962 14.9176 53.9048V55H14.5469V54.7752H14.5341C14.5106 54.8207 14.4776 54.8633 14.435 54.9031C14.3931 54.9421 14.3402 54.9737 14.2763 54.9979C14.2131 55.0213 14.1388 55.033 14.0536 55.033ZM14.1537 54.7496C14.2312 54.7496 14.2983 54.7344 14.3551 54.7038C14.4119 54.6726 14.4556 54.6314 14.4861 54.5803C14.5174 54.5291 14.533 54.4734 14.533 54.413V54.2202C14.5209 54.2301 14.5003 54.2393 14.4712 54.2479C14.4428 54.2564 14.4108 54.2638 14.3753 54.2702C14.3398 54.2766 14.3047 54.2823 14.2699 54.2873C14.2351 54.2923 14.2049 54.2965 14.1793 54.3001C14.1218 54.3079 14.0703 54.3207 14.0248 54.3384C13.9794 54.3562 13.9435 54.381 13.9172 54.413C13.891 54.4442 13.8778 54.4847 13.8778 54.5344C13.8778 54.6055 13.9037 54.6591 13.9556 54.6953C14.0074 54.7315 14.0735 54.7496 14.1537 54.7496ZM15.4124 55V52.8182H15.7981V53.6342H15.8141C15.8339 53.5945 15.862 53.5522 15.8982 53.5075C15.9344 53.462 15.9834 53.4233 16.0452 53.3913C16.107 53.3587 16.1859 53.3423 16.2817 53.3423C16.4082 53.3423 16.5222 53.3746 16.6237 53.4393C16.726 53.5032 16.807 53.598 16.8666 53.7237C16.927 53.8487 16.9572 54.0021 16.9572 54.1839C16.9572 54.3636 16.9277 54.5163 16.8687 54.642C16.8098 54.7678 16.7295 54.8636 16.628 54.9297C16.5264 54.9957 16.4114 55.0288 16.2828 55.0288C16.1891 55.0288 16.1113 55.0131 16.0495 54.9819C15.9877 54.9506 15.938 54.913 15.9004 54.869C15.8634 54.8242 15.8347 54.782 15.8141 54.7422H15.7917V55H15.4124ZM15.7906 54.1818C15.7906 54.2876 15.8055 54.3803 15.8354 54.4599C15.8659 54.5394 15.9096 54.6016 15.9664 54.6463C16.0239 54.6903 16.0935 54.7124 16.1752 54.7124C16.2604 54.7124 16.3318 54.6896 16.3893 54.6442C16.4469 54.598 16.4902 54.5352 16.5193 54.4556C16.5491 54.3754 16.5641 54.2841 16.5641 54.1818C16.5641 54.0803 16.5495 53.9901 16.5204 53.9112C16.4913 53.8324 16.4479 53.7706 16.3904 53.7259C16.3329 53.6811 16.2611 53.6587 16.1752 53.6587C16.0928 53.6587 16.0229 53.6804 15.9653 53.7237C15.9078 53.767 15.8641 53.8278 15.8343 53.9059C15.8052 53.984 15.7906 54.076 15.7906 54.1818ZM17.7607 52.8182V55H17.375V52.8182H17.7607ZM18.9717 55.032C18.8076 55.032 18.6659 54.9979 18.5466 54.9297C18.428 54.8608 18.3367 54.7635 18.2728 54.6378C18.2089 54.5114 18.1769 54.3626 18.1769 54.1914C18.1769 54.0231 18.2089 53.8754 18.2728 53.7482C18.3375 53.6204 18.4277 53.521 18.5434 53.4499C18.6592 53.3782 18.7952 53.3423 18.9514 53.3423C19.0523 53.3423 19.1475 53.3587 19.237 53.3913C19.3272 53.4233 19.4067 53.473 19.4756 53.5405C19.5452 53.608 19.5999 53.6939 19.6397 53.7983C19.6794 53.902 19.6993 54.0256 19.6993 54.169V54.2873H18.3581V54.0273H19.3296C19.3289 53.9535 19.313 53.8878 19.2817 53.8303C19.2505 53.772 19.2068 53.7262 19.1507 53.6928C19.0953 53.6594 19.0306 53.6428 18.9568 53.6428C18.8779 53.6428 18.8087 53.6619 18.749 53.7003C18.6894 53.7379 18.6429 53.7876 18.6095 53.8494C18.5768 53.9105 18.5601 53.9776 18.5594 54.0508V54.2777C18.5594 54.3729 18.5768 54.4545 18.6116 54.5227C18.6464 54.5902 18.6951 54.642 18.7576 54.6783C18.8201 54.7138 18.8932 54.7315 18.977 54.7315C19.0331 54.7315 19.0839 54.7237 19.1294 54.7081C19.1748 54.6918 19.2142 54.668 19.2476 54.6367C19.281 54.6055 19.3062 54.5668 19.3232 54.5206L19.6833 54.5611C19.6606 54.6562 19.6173 54.7393 19.5534 54.8104C19.4902 54.8807 19.4092 54.9354 19.3105 54.9744C19.2117 55.0128 19.0988 55.032 18.9717 55.032ZM21.7061 55H20.9668V52.8182H21.721C21.9376 52.8182 22.1237 52.8619 22.2793 52.9492C22.4355 53.0359 22.5555 53.1605 22.6393 53.3232C22.7232 53.4858 22.7651 53.6804 22.7651 53.907C22.7651 54.1342 22.7228 54.3295 22.6383 54.4929C22.5545 54.6562 22.4334 54.7816 22.275 54.869C22.1173 54.9563 21.9277 55 21.7061 55ZM21.362 54.658H21.6869C21.8389 54.658 21.9657 54.6303 22.0673 54.5749C22.1688 54.5188 22.2452 54.4354 22.2963 54.3246C22.3474 54.2131 22.373 54.0739 22.373 53.907C22.373 53.7401 22.3474 53.6016 22.2963 53.4915C22.2452 53.3807 22.1695 53.2979 22.0694 53.2433C21.97 53.1879 21.8464 53.1602 21.6987 53.1602H21.362V54.658ZM23.938 55.032C23.7739 55.032 23.6322 54.9979 23.5129 54.9297C23.3943 54.8608 23.303 54.7635 23.2391 54.6378C23.1752 54.5114 23.1432 54.3626 23.1432 54.1914C23.1432 54.0231 23.1752 53.8754 23.2391 53.7482C23.3037 53.6204 23.3939 53.521 23.5097 53.4499C23.6255 53.3782 23.7615 53.3423 23.9177 53.3423C24.0186 53.3423 24.1138 53.3587 24.2032 53.3913C24.2934 53.4233 24.373 53.473 24.4419 53.5405C24.5115 53.608 24.5662 53.6939 24.6059 53.7983C24.6457 53.902 24.6656 54.0256 24.6656 54.169V54.2873H23.3243V54.0273H24.2959C24.2952 53.9535 24.2792 53.8878 24.248 53.8303C24.2167 53.772 24.1731 53.7262 24.117 53.6928C24.0616 53.6594 23.9969 53.6428 23.9231 53.6428C23.8442 53.6428 23.775 53.6619 23.7153 53.7003C23.6557 53.7379 23.6091 53.7876 23.5758 53.8494C23.5431 53.9105 23.5264 53.9776 23.5257 54.0508V54.2777C23.5257 54.3729 23.5431 54.4545 23.5779 54.5227C23.6127 54.5902 23.6613 54.642 23.7238 54.6783C23.7863 54.7138 23.8595 54.7315 23.9433 54.7315C23.9994 54.7315 24.0502 54.7237 24.0956 54.7081C24.1411 54.6918 24.1805 54.668 24.2139 54.6367C24.2473 54.6055 24.2725 54.5668 24.2895 54.5206L24.6496 54.5611C24.6269 54.6562 24.5836 54.7393 24.5197 54.8104C24.4564 54.8807 24.3755 54.9354 24.2768 54.9744C24.178 55.0128 24.0651 55.032 23.938 55.032ZM26.4966 53.3636L25.9139 55H25.4878L24.905 53.3636H25.3162L25.6923 54.5792H25.7094L26.0865 53.3636H26.4966ZM26.8535 55V53.3636H27.2392V55H26.8535ZM27.0474 53.1314C26.9863 53.1314 26.9338 53.1112 26.8897 53.0707C26.8457 53.0295 26.8237 52.9801 26.8237 52.9226C26.8237 52.8643 26.8457 52.815 26.8897 52.7745C26.9338 52.7333 26.9863 52.7127 27.0474 52.7127C27.1092 52.7127 27.1617 52.7333 27.2051 52.7745C27.2491 52.815 27.2711 52.8643 27.2711 52.9226C27.2711 52.9801 27.2491 53.0295 27.2051 53.0707C27.1617 53.1112 27.1092 53.1314 27.0474 53.1314ZM28.4395 55.032C28.2762 55.032 28.1359 54.9961 28.0187 54.9244C27.9022 54.8526 27.8124 54.7536 27.7492 54.6271C27.6867 54.5 27.6554 54.3537 27.6554 54.1882C27.6554 54.022 27.6874 53.8754 27.7513 53.7482C27.8152 53.6204 27.9054 53.521 28.0219 53.4499C28.1391 53.3782 28.2776 53.3423 28.4374 53.3423C28.5702 53.3423 28.6877 53.3668 28.79 53.4158C28.893 53.4641 28.975 53.5327 29.0361 53.6214C29.0972 53.7095 29.132 53.8125 29.1405 53.9304H28.7719C28.757 53.8516 28.7215 53.7859 28.6654 53.7333C28.61 53.68 28.5357 53.6534 28.4427 53.6534C28.3639 53.6534 28.2946 53.6747 28.235 53.7173C28.1753 53.7592 28.1288 53.8196 28.0954 53.8984C28.0627 53.9773 28.0464 54.0717 28.0464 54.1818C28.0464 54.2933 28.0627 54.3892 28.0954 54.4695C28.1281 54.549 28.1739 54.6104 28.2328 54.6538C28.2925 54.6964 28.3625 54.7177 28.4427 54.7177C28.4995 54.7177 28.5503 54.707 28.595 54.6857C28.6405 54.6637 28.6785 54.6321 28.709 54.5909C28.7396 54.5497 28.7605 54.4996 28.7719 54.4407H29.1405C29.1313 54.5565 29.0972 54.6591 29.0382 54.7486C28.9793 54.8374 28.899 54.907 28.7975 54.9574C28.6959 55.0071 28.5766 55.032 28.4395 55.032ZM30.2716 55.032C30.1075 55.032 29.9659 54.9979 29.8465 54.9297C29.7279 54.8608 29.6367 54.7635 29.5727 54.6378C29.5088 54.5114 29.4769 54.3626 29.4769 54.1914C29.4769 54.0231 29.5088 53.8754 29.5727 53.7482C29.6374 53.6204 29.7276 53.521 29.8433 53.4499C29.9591 53.3782 30.0951 53.3423 30.2514 53.3423C30.3522 53.3423 30.4474 53.3587 30.5369 53.3913C30.6271 53.4233 30.7066 53.473 30.7755 53.5405C30.8451 53.608 30.8998 53.6939 30.9396 53.7983C30.9794 53.902 30.9992 54.0256 30.9992 54.169V54.2873H29.658V54.0273H30.6296C30.6289 53.9535 30.6129 53.8878 30.5816 53.8303C30.5504 53.772 30.5067 53.7262 30.4506 53.6928C30.3952 53.6594 30.3306 53.6428 30.2567 53.6428C30.1779 53.6428 30.1086 53.6619 30.049 53.7003C29.9893 53.7379 29.9428 53.7876 29.9094 53.8494C29.8767 53.9105 29.86 53.9776 29.8593 54.0508V54.2777C29.8593 54.3729 29.8767 54.4545 29.9115 54.5227C29.9463 54.5902 29.995 54.642 30.0575 54.6783C30.12 54.7138 30.1931 54.7315 30.2769 54.7315C30.333 54.7315 30.3838 54.7237 30.4293 54.7081C30.4747 54.6918 30.5142 54.668 30.5475 54.6367C30.5809 54.6055 30.6061 54.5668 30.6232 54.5206L30.9833 54.5611C30.9605 54.6562 30.9172 54.7393 30.8533 54.8104C30.7901 54.8807 30.7091 54.9354 30.6104 54.9744C30.5117 55.0128 30.3987 55.032 30.2716 55.032ZM32.7088 53.7962L32.3573 53.8345C32.3473 53.799 32.3299 53.7656 32.3051 53.7344C32.2809 53.7031 32.2482 53.6779 32.207 53.6587C32.1659 53.6396 32.1154 53.63 32.0558 53.63C31.9755 53.63 31.908 53.6474 31.8534 53.6822C31.7994 53.717 31.7727 53.7621 31.7735 53.8175C31.7727 53.8651 31.7901 53.9038 31.8257 53.9336C31.8619 53.9634 31.9215 53.9879 32.0046 54.0071L32.2838 54.0668C32.4386 54.1001 32.5536 54.1531 32.6289 54.2255C32.7049 54.2979 32.7433 54.3928 32.744 54.5099C32.7433 54.6129 32.7131 54.7038 32.6534 54.7827C32.5945 54.8608 32.5124 54.9219 32.4073 54.9659C32.3022 55.0099 32.1815 55.032 32.0451 55.032C31.8448 55.032 31.6836 54.9901 31.5614 54.9062C31.4393 54.8217 31.3665 54.7042 31.3431 54.5536L31.7191 54.5174C31.7362 54.5913 31.7724 54.647 31.8278 54.6847C31.8832 54.7223 31.9553 54.7411 32.044 54.7411C32.1357 54.7411 32.2092 54.7223 32.2646 54.6847C32.3207 54.647 32.3487 54.6005 32.3487 54.5451C32.3487 54.4982 32.3306 54.4595 32.2944 54.429C32.2589 54.3984 32.2035 54.375 32.1282 54.3587L31.8491 54.3001C31.6921 54.2674 31.576 54.2124 31.5007 54.1349C31.4254 54.0568 31.3882 53.9581 31.3889 53.8388C31.3882 53.7379 31.4155 53.6506 31.4709 53.5767C31.527 53.5021 31.6048 53.4446 31.7042 53.4041C31.8043 53.3629 31.9198 53.3423 32.0504 53.3423C32.2422 53.3423 32.3931 53.3832 32.5032 53.4648C32.614 53.5465 32.6825 53.657 32.7088 53.7962Z" fill="black"/>
<rect id='devices' x="4" y="62" width="60" height="10" rx="5" fill="#F3F3F3"/>
<path id='device' d="M10.2397 68V65.8182H11.0174C11.1864 65.8182 11.3267 65.8473 11.4382 65.9055C11.5504 65.9638 11.6342 66.0444 11.6896 66.1474C11.745 66.2496 11.7727 66.3679 11.7727 66.5021C11.7727 66.6357 11.7447 66.7532 11.6886 66.8548C11.6332 66.9556 11.5494 67.0341 11.4371 67.0902C11.3256 67.1463 11.1854 67.1744 11.0163 67.1744H10.4272V66.891H10.9865C11.093 66.891 11.1797 66.8757 11.2464 66.8452C11.3139 66.8146 11.3633 66.7702 11.3945 66.712C11.4258 66.6538 11.4414 66.5838 11.4414 66.5021C11.4414 66.4197 11.4254 66.3484 11.3935 66.288C11.3622 66.2276 11.3129 66.1815 11.2454 66.1495C11.1786 66.1168 11.0909 66.1005 10.9822 66.1005H10.5689V68H10.2397ZM11.3168 67.0156L11.8558 68H11.4808L10.9524 67.0156H11.3168ZM12.7139 68.0362C12.6102 68.0362 12.5165 68.017 12.4327 67.9787C12.3489 67.9396 12.2825 67.8832 12.2335 67.8093C12.1852 67.7354 12.161 67.6449 12.161 67.5376C12.161 67.4453 12.1788 67.3693 12.2143 67.3097C12.2498 67.25 12.2977 67.2028 12.3581 67.168C12.4185 67.1332 12.486 67.1069 12.5605 67.0891C12.6351 67.0714 12.7111 67.0579 12.7885 67.0487C12.8865 67.0373 12.9661 67.0281 13.0271 67.021C13.0882 67.0131 13.1326 67.0007 13.1603 66.9837C13.188 66.9666 13.2019 66.9389 13.2019 66.9006V66.8931C13.2019 66.8001 13.1756 66.728 13.123 66.6768C13.0712 66.6257 12.9938 66.6001 12.8908 66.6001C12.7835 66.6001 12.699 66.6239 12.6372 66.6715C12.5762 66.7184 12.5339 66.7706 12.5105 66.8281L12.2111 66.7599C12.2466 66.6605 12.2985 66.5803 12.3666 66.5192C12.4355 66.4574 12.5147 66.4126 12.6042 66.3849C12.6937 66.3565 12.7878 66.3423 12.8865 66.3423C12.9519 66.3423 13.0211 66.3501 13.0943 66.3658C13.1681 66.3807 13.237 66.4084 13.3009 66.4489C13.3656 66.4893 13.4185 66.5472 13.4597 66.6225C13.5009 66.6971 13.5215 66.794 13.5215 66.9134V68H13.2104V67.7763H13.1976C13.177 67.8175 13.1461 67.858 13.1049 67.8977C13.0637 67.9375 13.0108 67.9705 12.9462 67.9968C12.8815 68.0231 12.8041 68.0362 12.7139 68.0362ZM12.7832 67.7805C12.8712 67.7805 12.9465 67.7631 13.009 67.7283C13.0722 67.6935 13.1202 67.6481 13.1529 67.592C13.1862 67.5352 13.2029 67.4744 13.2029 67.4098V67.1989C13.1916 67.2102 13.1695 67.2209 13.1369 67.2308C13.1049 67.2401 13.0683 67.2482 13.0271 67.2553C12.986 67.2617 12.9458 67.2678 12.9068 67.2734C12.8677 67.2784 12.835 67.2827 12.8087 67.2862C12.747 67.294 12.6905 67.3072 12.6394 67.3256C12.5889 67.3441 12.5485 67.3707 12.5179 67.4055C12.4881 67.4396 12.4732 67.4851 12.4732 67.5419C12.4732 67.6207 12.5023 67.6804 12.5605 67.7209C12.6188 67.7607 12.693 67.7805 12.7832 67.7805ZM15.2619 66.7631L14.9732 66.8143C14.9612 66.7773 14.942 66.7422 14.9157 66.7088C14.8901 66.6754 14.8553 66.6481 14.8113 66.6268C14.7673 66.6055 14.7122 66.5948 14.6462 66.5948C14.556 66.5948 14.4807 66.6151 14.4203 66.6555C14.36 66.6953 14.3298 66.7468 14.3298 66.81C14.3298 66.8647 14.35 66.9087 14.3905 66.9421C14.431 66.9755 14.4963 67.0028 14.5865 67.0241L14.8465 67.0838C14.997 67.1186 15.1092 67.1722 15.1831 67.2447C15.257 67.3171 15.2939 67.4112 15.2939 67.527C15.2939 67.625 15.2655 67.7124 15.2087 67.7891C15.1526 67.8651 15.0741 67.9247 14.9732 67.968C14.8731 68.0114 14.757 68.033 14.6249 68.033C14.4416 68.033 14.2921 67.994 14.1764 67.9158C14.0606 67.837 13.9896 67.7251 13.9633 67.5803L14.2712 67.5334C14.2904 67.6136 14.3298 67.6744 14.3894 67.7156C14.4491 67.756 14.5269 67.7763 14.6227 67.7763C14.7271 67.7763 14.8106 67.7546 14.8731 67.7113C14.9356 67.6673 14.9668 67.6136 14.9668 67.5504C14.9668 67.4993 14.9477 67.4563 14.9093 67.4215C14.8717 67.3867 14.8138 67.3604 14.7357 67.3427L14.4587 67.282C14.306 67.2472 14.1931 67.1918 14.1199 67.1158C14.0475 67.0398 14.0112 66.9435 14.0112 66.8271C14.0112 66.7305 14.0382 66.646 14.0922 66.5735C14.1462 66.5011 14.2207 66.4446 14.3159 66.4041C14.4111 66.3629 14.5201 66.3423 14.643 66.3423C14.8198 66.3423 14.959 66.3807 15.0606 66.4574C15.1622 66.5334 15.2293 66.6353 15.2619 66.7631ZM15.7341 68.6136V66.3636H16.0452V66.6289H16.0718C16.0903 66.5948 16.1169 66.5554 16.1517 66.5107C16.1865 66.4659 16.2348 66.4268 16.2966 66.3935C16.3584 66.3594 16.4401 66.3423 16.5417 66.3423C16.6738 66.3423 16.7917 66.3757 16.8954 66.4425C16.999 66.5092 17.0804 66.6055 17.1393 66.7312C17.199 66.8569 17.2288 67.0082 17.2288 67.185C17.2288 67.3619 17.1993 67.5135 17.1404 67.6399C17.0814 67.7656 17.0005 67.8626 16.8975 67.9308C16.7945 67.9982 16.677 68.032 16.5449 68.032C16.4454 68.032 16.3641 68.0153 16.3009 67.9819C16.2384 67.9485 16.1894 67.9094 16.1539 67.8647C16.1184 67.82 16.091 67.7802 16.0718 67.7454H16.0527V68.6136H15.7341ZM16.0463 67.1818C16.0463 67.2969 16.063 67.3977 16.0963 67.4844C16.1297 67.571 16.178 67.6388 16.2412 67.6879C16.3044 67.7362 16.3819 67.7603 16.4735 67.7603C16.5687 67.7603 16.6482 67.7351 16.7121 67.6847C16.776 67.6335 16.8243 67.5643 16.857 67.4769C16.8904 67.3896 16.9071 67.2912 16.9071 67.1818C16.9071 67.0739 16.8907 66.9769 16.8581 66.891C16.8261 66.805 16.7778 66.7372 16.7132 66.6875C16.6493 66.6378 16.5694 66.6129 16.4735 66.6129C16.3812 66.6129 16.303 66.6367 16.2391 66.6843C16.1759 66.7319 16.128 66.7983 16.0953 66.8835C16.0626 66.9687 16.0463 67.0682 16.0463 67.1818ZM17.7013 68V65.8182H18.0198V66.6289H18.039C18.0574 66.5948 18.0841 66.5554 18.1189 66.5107C18.1537 66.4659 18.202 66.4268 18.2638 66.3935C18.3256 66.3594 18.4072 66.3423 18.5088 66.3423C18.6409 66.3423 18.7588 66.3757 18.8625 66.4425C18.9662 66.5092 19.0475 66.6055 19.1064 66.7312C19.1661 66.8569 19.1959 67.0082 19.1959 67.185C19.1959 67.3619 19.1665 67.5135 19.1075 67.6399C19.0486 67.7656 18.9676 67.8626 18.8646 67.9308C18.7616 67.9982 18.6441 68.032 18.512 68.032C18.4126 68.032 18.3312 68.0153 18.268 67.9819C18.2055 67.9485 18.1565 67.9094 18.121 67.8647C18.0855 67.82 18.0582 67.7802 18.039 67.7454H18.0123V68H17.7013ZM18.0134 67.1818C18.0134 67.2969 18.0301 67.3977 18.0635 67.4844C18.0969 67.571 18.1452 67.6388 18.2084 67.6879C18.2716 67.7362 18.349 67.7603 18.4406 67.7603C18.5358 67.7603 18.6153 67.7351 18.6792 67.6847C18.7432 67.6335 18.7915 67.5643 18.8241 67.4769C18.8575 67.3896 18.8742 67.2912 18.8742 67.1818C18.8742 67.0739 18.8579 66.9769 18.8252 66.891C18.7932 66.805 18.7449 66.7372 18.6803 66.6875C18.6164 66.6378 18.5365 66.6129 18.4406 66.6129C18.3483 66.6129 18.2702 66.6367 18.2062 66.6843C18.143 66.7319 18.0951 66.7983 18.0624 66.8835C18.0297 66.9687 18.0134 67.0682 18.0134 67.1818ZM20.3489 68.033C20.1877 68.033 20.0488 67.9986 19.9323 67.9297C19.8166 67.8601 19.7271 67.7624 19.6639 67.6367C19.6014 67.5103 19.5701 67.3622 19.5701 67.1925C19.5701 67.0249 19.6014 66.8771 19.6639 66.7493C19.7271 66.6214 19.8151 66.5217 19.9281 66.4499C20.0417 66.3782 20.1745 66.3423 20.3265 66.3423C20.4188 66.3423 20.5083 66.3576 20.595 66.3881C20.6816 66.4187 20.7594 66.4666 20.8283 66.532C20.8972 66.5973 20.9515 66.6822 20.9913 66.7866C21.0311 66.8903 21.0509 67.0163 21.0509 67.1648V67.2777H19.7502V67.0391H20.7388C20.7388 66.9553 20.7218 66.881 20.6877 66.8164C20.6536 66.7511 20.6056 66.6996 20.5438 66.6619C20.4828 66.6243 20.411 66.6055 20.3286 66.6055C20.2392 66.6055 20.161 66.6275 20.0943 66.6715C20.0282 66.7148 19.9771 66.7717 19.9409 66.842C19.9053 66.9116 19.8876 66.9872 19.8876 67.0689V67.2553C19.8876 67.3647 19.9068 67.4577 19.9451 67.5344C19.9842 67.6112 20.0385 67.6697 20.1081 67.7102C20.1777 67.75 20.259 67.7699 20.3521 67.7699C20.4124 67.7699 20.4675 67.7614 20.5172 67.7443C20.5669 67.7266 20.6099 67.7003 20.6461 67.6655C20.6823 67.6307 20.71 67.5877 20.7292 67.5366L21.0307 67.5909C21.0066 67.6797 20.9632 67.7575 20.9007 67.8242C20.8389 67.8903 20.7612 67.9418 20.6674 67.9787C20.5744 68.0149 20.4682 68.033 20.3489 68.033ZM21.4944 68V66.3636H21.8023V66.6236H21.8193C21.8491 66.5355 21.9017 66.4663 21.977 66.4158C22.053 66.3647 22.1389 66.3391 22.2348 66.3391C22.2547 66.3391 22.2781 66.3398 22.3051 66.3413C22.3328 66.3427 22.3545 66.3445 22.3701 66.3466V66.6513C22.3573 66.6477 22.3346 66.6438 22.3019 66.6396C22.2692 66.6346 22.2366 66.6321 22.2039 66.6321C22.1286 66.6321 22.0615 66.6481 22.0025 66.68C21.9443 66.7113 21.8981 66.755 21.864 66.8111C21.83 66.8665 21.8129 66.9297 21.8129 67.0007V68H21.4944ZM22.7357 68V66.3636H23.0436V66.6236H23.0607C23.0905 66.5355 23.1431 66.4663 23.2183 66.4158C23.2943 66.3647 23.3803 66.3391 23.4761 66.3391C23.496 66.3391 23.5195 66.3398 23.5465 66.3413C23.5742 66.3427 23.5958 66.3445 23.6114 66.3466V66.6513C23.5987 66.6477 23.5759 66.6438 23.5433 66.6396C23.5106 66.6346 23.4779 66.6321 23.4453 66.6321C23.37 66.6321 23.3029 66.6481 23.2439 66.68C23.1857 66.7113 23.1395 66.755 23.1054 66.8111C23.0713 66.8665 23.0543 66.9297 23.0543 67.0007V68H22.7357ZM24.2283 68.6136C24.1807 68.6136 24.1373 68.6097 24.0983 68.6019C24.0592 68.5948 24.0301 68.587 24.0109 68.5785L24.0876 68.3175C24.1459 68.3331 24.1977 68.3398 24.2432 68.3377C24.2886 68.3356 24.3288 68.3185 24.3636 68.2866C24.3991 68.2546 24.4303 68.2024 24.4573 68.13L24.4967 68.0213L23.898 66.3636H24.2389L24.6533 67.6335H24.6704L25.0848 66.3636H25.4268L24.7524 68.2184C24.7212 68.3036 24.6814 68.3757 24.6331 68.4347C24.5848 68.4943 24.5273 68.5391 24.4605 68.5689C24.3937 68.5987 24.3163 68.6136 24.2283 68.6136ZM26.7256 68V65.8182H27.5033C27.6731 65.8182 27.8137 65.8491 27.9252 65.9109C28.0367 65.9727 28.1202 66.0572 28.1756 66.1644C28.231 66.271 28.2587 66.391 28.2587 66.5245C28.2587 66.6587 28.2306 66.7795 28.1745 66.8867C28.1191 66.9933 28.0353 67.0778 27.9231 67.1403C27.8116 67.2021 27.6713 67.233 27.5023 67.233H26.9675V66.9538H27.4724C27.5797 66.9538 27.6667 66.9354 27.7335 66.8984C27.8002 66.8608 27.8492 66.8097 27.8805 66.745C27.9117 66.6804 27.9273 66.6069 27.9273 66.5245C27.9273 66.4421 27.9117 66.369 27.8805 66.305C27.8492 66.2411 27.7999 66.1911 27.7324 66.1548C27.6656 66.1186 27.5776 66.1005 27.4682 66.1005H27.0548V68H26.7256ZM28.709 68V66.3636H29.0276V68H28.709ZM28.8699 66.1112C28.8145 66.1112 28.7669 66.0927 28.7271 66.0558C28.6881 66.0181 28.6685 65.9734 28.6685 65.9215C28.6685 65.869 28.6881 65.8242 28.7271 65.7873C28.7669 65.7496 28.8145 65.7308 28.8699 65.7308C28.9253 65.7308 28.9725 65.7496 29.0116 65.7873C29.0513 65.8242 29.0712 65.869 29.0712 65.9215C29.0712 65.9734 29.0513 66.0181 29.0116 66.0558C28.9725 66.0927 28.9253 66.1112 28.8699 66.1112Z" fill="black"/>
</g>
<defs>
<linearGradient id="paint0_linear_508_2" x1="33.7227" y1="4.30863" x2="36.0672" y2="6.43999" gradientUnits="userSpaceOnUse">
<stop/>
<stop offset="1" stop-opacity="0"/>
</linearGradient>
<linearGradient id="paint1_linear_508_2" x1="36.8647" y1="8.29825" x2="34.9736" y2="6.26203" gradientUnits="userSpaceOnUse">
<stop stop-color="white"/>
<stop offset="1" stop-color="white" stop-opacity="0"/>
</linearGradient>
<linearGradient id="paint2_linear_508_2" x1="10.8334" y1="5.38117" x2="12.032" y2="6.47082" gradientUnits="userSpaceOnUse">
<stop/>
<stop offset="1" stop-opacity="0"/>
</linearGradient>
<linearGradient id="paint3_linear_508_2" x1="12.4527" y1="7.44389" x2="11.486" y2="6.40288" gradientUnits="userSpaceOnUse">
<stop stop-color="white"/>
<stop offset="1" stop-color="white" stop-opacity="0"/>
</linearGradient>
<clipPath id="clip0_508_2">
<rect width="69.08" height="137.61" fill="white"/>
</clipPath>
<clipPath id="clip1_508_2">
<rect width="100" height="50" fill="white" transform="translate(2.14252 -22)"/>
</clipPath>
</defs>
</svg>
