<svg width="171" height="68" viewBox="0 0 171 68" fill="none" xmlns="http://www.w3.org/2000/svg">
<g clip-path="url(#clip0_454_2)">
<g filter="url(#filter0_d_454_2)">
<path id="m1" d="M151.5 36.5H166.5V44.5H151.5V36.5Z" fill="#9D9494" fill-opacity="0.09" stroke="black"/>
<path id="m2" d="M151.5 12.5H166.5V20.5H151.5V12.5Z" fill="#9D9494" fill-opacity="0.09" stroke="black"/>
<path d="M138 0.5H64C57.0964 0.5 51.5 6.09644 51.5 13V47C51.5 53.9036 57.0964 59.5 64 59.5H138C144.904 59.5 150.5 53.9036 150.5 47V13C150.5 6.09644 144.904 0.5 138 0.5Z" fill="#FAFF00" fill-opacity="0.24" stroke="black"/>
<path d="M20 23.5H50C51.933 23.5 53.5 25.067 53.5 27V32C53.5 33.933 51.933 35.5 50 35.5H20C18.067 35.5 16.5 33.933 16.5 32V27C16.5 25.067 18.067 23.5 20 23.5Z" fill="#D9D9D9" stroke="black"/>
<path d="M131.5 17.5H68.5V39.5H131.5V17.5Z" stroke="black"/>
<path id="rotor" d="M27.5 28C27.5 34.6274 18 28 18 40C11.3726 40 12.5 28 4 28C18 28 11.3726 16 18 16C18 28 27.5 21.3726 27.5 28Z" fill="black"/>
</g>
<path d="M139.534 20.7074V8.51989H141.602V20.7074H139.534ZM134.474 15.6477V13.5795H146.662V15.6477H134.474Z" fill="#FD2323"/>
<path d="M144.341 42.5795V44.4545H136.705V42.5795H144.341Z" fill="#FF0000"/>
</g>
<defs>
<filter id="filter0_d_454_2" x="0" y="0" width="171" height="68" filterUnits="userSpaceOnUse" color-interpolation-filters="sRGB">
<feFlood flood-opacity="0" result="BackgroundImageFix"/>
<feColorMatrix in="SourceAlpha" type="matrix" values="0 0 0 0 0 0 0 0 0 0 0 0 0 0 0 0 0 0 127 0" result="hardAlpha"/>
<feOffset dy="4"/>
<feGaussianBlur stdDeviation="2"/>
<feComposite in2="hardAlpha" operator="out"/>
<feColorMatrix type="matrix" values="0 0 0 0 0 0 0 0 0 0 0 0 0 0 0 0 0 0 0.25 0"/>
<feBlend mode="normal" in2="BackgroundImageFix" result="effect1_dropShadow_454_2"/>
<feBlend mode="normal" in="SourceGraphic" in2="effect1_dropShadow_454_2" result="shape"/>
</filter>
<clipPath id="clip0_454_2">
<rect width="171" height="68" fill="white"/>
</clipPath>
</defs>
</svg>
