<svg width="862" height="408" viewBox="0 0 862 408" fill="none" xmlns="http://www.w3.org/2000/svg">
<g clip-path="url(#clip0_440_3)">
<path d="M54.9348 0V407.606H861.74V0H54.9348ZM804.536 146.3L776.991 117.188L782.182 111.712L809.726 140.823L804.536 146.3Z" fill="#444444"/>
<path d="M782.168 111.707L776.984 117.186L804.528 146.297L809.712 140.818L782.168 111.707Z" fill="#444444"/>
<path  id="relayPin1" class="hoverable"  d="M175.091 140.307H0V165.707H175.091V140.307Z" fill="black"/>
<path  id="relayPin2" class="hoverable"  d="M175.091 198.358H0V223.758H175.091V198.358Z" fill="black"/>
<path  id="relayPin3" class="hoverable"  d="M175.091 256.418H0V281.819H175.091V256.418Z" fill="black"/>
<path d="M716.969 37.4937H199.697V370.113H716.969V37.4937Z" fill="#005BFF"/>
<path d="M212.892 144.455L216.408 155.506H216.543L220.065 144.455H223.474L218.46 159H214.497L209.476 144.455H212.892ZM237.239 149.547H234.128C234.071 149.144 233.955 148.787 233.78 148.474C233.605 148.157 233.38 147.887 233.105 147.665C232.83 147.442 232.513 147.272 232.153 147.153C231.798 147.035 231.412 146.976 230.996 146.976C230.243 146.976 229.587 147.163 229.028 147.537C228.47 147.906 228.036 148.446 227.729 149.156C227.421 149.862 227.267 150.719 227.267 151.727C227.267 152.764 227.421 153.635 227.729 154.341C228.041 155.046 228.477 155.579 229.036 155.939C229.594 156.299 230.241 156.479 230.974 156.479C231.386 156.479 231.768 156.424 232.118 156.315C232.473 156.206 232.788 156.048 233.062 155.839C233.337 155.626 233.564 155.368 233.744 155.065C233.929 154.762 234.057 154.417 234.128 154.028L237.239 154.043C237.158 154.71 236.957 155.354 236.635 155.974C236.318 156.59 235.889 157.142 235.349 157.629C234.814 158.112 234.175 158.496 233.432 158.78C232.693 159.059 231.857 159.199 230.925 159.199C229.627 159.199 228.467 158.905 227.445 158.318C226.427 157.731 225.622 156.881 225.03 155.768C224.443 154.656 224.149 153.309 224.149 151.727C224.149 150.141 224.447 148.792 225.044 147.679C225.641 146.566 226.45 145.719 227.473 145.136C228.496 144.549 229.646 144.256 230.925 144.256C231.768 144.256 232.549 144.374 233.268 144.611C233.993 144.848 234.634 145.193 235.193 145.648C235.752 146.098 236.206 146.649 236.557 147.303C236.912 147.956 237.139 148.704 237.239 149.547ZM252.278 149.547H249.167C249.11 149.144 248.994 148.787 248.819 148.474C248.644 148.157 248.419 147.887 248.144 147.665C247.87 147.442 247.552 147.272 247.192 147.153C246.837 147.035 246.451 146.976 246.035 146.976C245.282 146.976 244.626 147.163 244.067 147.537C243.509 147.906 243.076 148.446 242.768 149.156C242.46 149.862 242.306 150.719 242.306 151.727C242.306 152.764 242.46 153.635 242.768 154.341C243.08 155.046 243.516 155.579 244.075 155.939C244.633 156.299 245.28 156.479 246.013 156.479C246.425 156.479 246.807 156.424 247.157 156.315C247.512 156.206 247.827 156.048 248.102 155.839C248.376 155.626 248.603 155.368 248.783 155.065C248.968 154.762 249.096 154.417 249.167 154.028L252.278 154.043C252.197 154.71 251.996 155.354 251.674 155.974C251.357 156.59 250.928 157.142 250.388 157.629C249.853 158.112 249.214 158.496 248.471 158.78C247.732 159.059 246.897 159.199 245.964 159.199C244.666 159.199 243.506 158.905 242.484 158.318C241.466 157.731 240.661 156.881 240.069 155.768C239.482 154.656 239.188 153.309 239.188 151.727C239.188 150.141 239.487 148.792 240.083 147.679C240.68 146.566 241.489 145.719 242.512 145.136C243.535 144.549 244.685 144.256 245.964 144.256C246.807 144.256 247.588 144.374 248.308 144.611C249.032 144.848 249.674 145.193 250.232 145.648C250.791 146.098 251.246 146.649 251.596 147.303C251.951 147.956 252.178 148.704 252.278 149.547Z" fill="white"/>
<path d="M214.339 263.455V278H211.264V263.455H214.339ZM219.838 271.693V278H216.813V267.091H219.696V269.016H219.824C220.066 268.381 220.471 267.879 221.039 267.51C221.607 267.136 222.296 266.949 223.105 266.949C223.863 266.949 224.524 267.115 225.087 267.446C225.65 267.777 226.088 268.251 226.401 268.866C226.713 269.477 226.87 270.206 226.87 271.054V278H223.844V271.594C223.849 270.926 223.678 270.405 223.333 270.031C222.987 269.652 222.511 269.463 221.905 269.463C221.498 269.463 221.138 269.551 220.826 269.726C220.518 269.901 220.276 270.157 220.101 270.493C219.931 270.824 219.843 271.224 219.838 271.693ZM229.254 282.091V267.091H232.237V268.923H232.372C232.505 268.63 232.696 268.331 232.947 268.028C233.203 267.721 233.535 267.465 233.942 267.261C234.354 267.053 234.865 266.949 235.476 266.949C236.271 266.949 237.005 267.157 237.678 267.574C238.35 267.986 238.887 268.608 239.29 269.442C239.692 270.27 239.893 271.31 239.893 272.56C239.893 273.777 239.697 274.804 239.304 275.642C238.916 276.475 238.385 277.107 237.713 277.538C237.045 277.964 236.297 278.178 235.469 278.178C234.882 278.178 234.382 278.08 233.97 277.886C233.563 277.692 233.229 277.448 232.969 277.155C232.708 276.857 232.509 276.556 232.372 276.253H232.28V282.091H229.254ZM232.216 272.545C232.216 273.194 232.306 273.76 232.486 274.243C232.666 274.726 232.926 275.102 233.267 275.372C233.608 275.637 234.022 275.77 234.51 275.77C235.002 275.77 235.419 275.635 235.76 275.365C236.101 275.09 236.359 274.712 236.534 274.229C236.714 273.741 236.804 273.18 236.804 272.545C236.804 271.916 236.716 271.362 236.541 270.884C236.366 270.405 236.108 270.031 235.767 269.761C235.426 269.491 235.007 269.357 234.51 269.357C234.018 269.357 233.601 269.487 233.26 269.747C232.924 270.008 232.666 270.377 232.486 270.855C232.306 271.333 232.216 271.897 232.216 272.545ZM248.906 273.355V267.091H251.932V278H249.027V276.018H248.913C248.667 276.658 248.258 277.171 247.685 277.56C247.116 277.948 246.423 278.142 245.604 278.142C244.875 278.142 244.233 277.976 243.679 277.645C243.125 277.313 242.692 276.842 242.379 276.232C242.071 275.621 241.915 274.889 241.911 274.037V267.091H244.936V273.497C244.941 274.141 245.114 274.65 245.455 275.024C245.795 275.398 246.252 275.585 246.825 275.585C247.19 275.585 247.531 275.502 247.848 275.337C248.165 275.166 248.421 274.915 248.615 274.584C248.814 274.252 248.911 273.843 248.906 273.355ZM260.154 267.091V269.364H253.585V267.091H260.154ZM255.076 264.477H258.102V274.648C258.102 274.927 258.145 275.145 258.23 275.301C258.315 275.453 258.433 275.559 258.585 275.621C258.741 275.682 258.921 275.713 259.125 275.713C259.267 275.713 259.409 275.701 259.551 275.678C259.693 275.649 259.802 275.628 259.877 275.614L260.353 277.865C260.202 277.912 259.989 277.967 259.714 278.028C259.44 278.095 259.106 278.135 258.713 278.149C257.984 278.178 257.344 278.08 256.795 277.858C256.251 277.635 255.827 277.29 255.524 276.821C255.221 276.352 255.072 275.76 255.076 275.045V264.477Z" fill="white"/>
<path d="M220.909 211.156C220.81 210.811 220.67 210.505 220.49 210.24C220.31 209.97 220.09 209.743 219.83 209.558C219.574 209.369 219.28 209.224 218.949 209.125C218.622 209.026 218.26 208.976 217.862 208.976C217.119 208.976 216.465 209.161 215.902 209.53C215.343 209.899 214.908 210.437 214.595 211.142C214.283 211.843 214.126 212.7 214.126 213.713C214.126 214.726 214.28 215.588 214.588 216.298C214.896 217.009 215.331 217.551 215.895 217.925C216.458 218.294 217.124 218.479 217.891 218.479C218.587 218.479 219.181 218.356 219.673 218.109C220.17 217.858 220.549 217.506 220.81 217.051C221.075 216.597 221.207 216.059 221.207 215.439L221.832 215.531H218.082V213.216H224.169V215.048C224.169 216.327 223.899 217.425 223.359 218.344C222.82 219.258 222.076 219.963 221.129 220.46C220.182 220.953 219.098 221.199 217.876 221.199C216.513 221.199 215.315 220.898 214.283 220.297C213.25 219.691 212.446 218.831 211.868 217.719C211.295 216.601 211.009 215.276 211.009 213.741C211.009 212.562 211.179 211.511 211.52 210.588C211.866 209.66 212.348 208.874 212.969 208.23C213.589 207.586 214.311 207.096 215.135 206.76C215.959 206.424 216.851 206.256 217.812 206.256C218.636 206.256 219.403 206.376 220.114 206.618C220.824 206.855 221.454 207.191 222.003 207.626C222.557 208.062 223.009 208.58 223.359 209.182C223.71 209.778 223.935 210.437 224.034 211.156H220.909ZM238.645 206.455V221H235.989L229.661 211.845H229.554V221H226.479V206.455H229.178L235.456 215.602H235.584V206.455H238.645ZM246.342 221H241.186V206.455H246.385C247.848 206.455 249.107 206.746 250.163 207.328C251.219 207.906 252.031 208.737 252.599 209.821C253.172 210.905 253.459 212.203 253.459 213.713C253.459 215.228 253.172 216.53 252.599 217.619C252.031 218.708 251.214 219.544 250.149 220.126C249.089 220.709 247.82 221 246.342 221ZM244.261 218.365H246.214C247.124 218.365 247.888 218.204 248.509 217.882C249.134 217.555 249.602 217.051 249.915 216.369C250.232 215.683 250.391 214.797 250.391 213.713C250.391 212.638 250.232 211.76 249.915 211.078C249.602 210.396 249.136 209.894 248.516 209.572C247.895 209.25 247.131 209.089 246.222 209.089H244.261V218.365Z" fill="white"/>
<path d="M780.481 87.2342L775.297 92.7132L802.841 121.824L808.025 116.345L780.481 87.2342Z" fill="#444444"/>
<path d="M792.057 76.825C777.206 76.825 765.163 89.5523 765.163 105.249C765.163 120.945 777.206 133.672 792.057 133.672C806.908 133.672 818.95 120.945 818.95 105.249C818.95 89.5432 806.917 76.825 792.057 76.825ZM801.872 122.366L774.593 93.8792L780.888 87.2258L808.433 116.337L801.872 122.366Z" fill="#C1A941"/>
<path opacity="0.56" id="relayConnector1" class="hoverable" d="M828.697 65.4918H754.312V144.109H828.697V65.4918Z" fill="#C1A941"/>
<path d="M780.48 184.308L775.296 189.787L802.84 218.898L808.024 213.419L780.48 184.308Z" fill="#444444"/>
<path d="M792.057 173.9C777.206 173.9 765.163 186.627 765.163 202.323C765.163 218.019 777.206 230.747 792.057 230.747C806.908 230.747 818.95 218.019 818.95 202.323C818.95 186.627 806.917 173.9 792.057 173.9ZM801.872 219.441L774.593 190.954L780.888 184.3L808.433 213.412L801.872 219.441Z" fill="#C1A941"/>
<path opacity="0.56" id="relayConnector2"  class="hoverable" d="M828.697 162.566H754.312V241.184H828.697V162.566Z" fill="#C1A941"/>
<path d="M780.485 281.389L775.301 286.868L802.844 315.978L808.029 310.499L780.485 281.389Z" fill="#444444"/>
<path d="M792.057 270.974C777.206 270.974 765.163 283.701 765.163 299.398C765.163 315.094 777.206 327.821 792.057 327.821C806.908 327.821 818.95 315.094 818.95 299.398C818.95 283.701 806.917 270.974 792.057 270.974ZM801.872 316.515L774.593 288.028L780.888 281.375L808.433 310.486L801.872 316.515Z" fill="#C1A941"/>
<path opacity="0.56"  id="relayConnector3" class="hoverable" d="M828.697 259.641H754.312V338.258H828.697V259.641Z" fill="#C1A941"/>
<path d="M390.636 111V64.4545H406.364C410 64.4545 412.985 65.0758 415.318 66.3182C417.652 67.5455 419.379 69.2348 420.5 71.3864C421.621 73.5379 422.182 75.9848 422.182 78.7273C422.182 81.4697 421.621 83.9015 420.5 86.0227C419.379 88.1439 417.659 89.8106 415.341 91.0227C413.023 92.2197 410.061 92.8182 406.455 92.8182H393.727V87.7273H406.273C408.758 87.7273 410.758 87.3636 412.273 86.6364C413.803 85.9091 414.909 84.8788 415.591 83.5455C416.288 82.197 416.636 80.5909 416.636 78.7273C416.636 76.8636 416.288 75.2348 415.591 73.8409C414.894 72.447 413.78 71.3712 412.25 70.6136C410.72 69.8409 408.697 69.4545 406.182 69.4545H396.273V111H390.636ZM412.545 90.0909L424 111H417.455L406.182 90.0909H412.545ZM445.108 111.727C441.744 111.727 438.843 110.985 436.403 109.5C433.979 108 432.108 105.909 430.79 103.227C429.487 100.53 428.835 97.3939 428.835 93.8182C428.835 90.2424 429.487 87.0909 430.79 84.3636C432.108 81.6212 433.941 79.4848 436.29 77.9545C438.653 76.4091 441.411 75.6364 444.562 75.6364C446.381 75.6364 448.176 75.9394 449.949 76.5455C451.722 77.1515 453.335 78.1364 454.79 79.5C456.244 80.8485 457.403 82.6364 458.267 84.8636C459.131 87.0909 459.562 89.8333 459.562 93.0909V95.3636H432.653V90.7273H454.108C454.108 88.7576 453.714 87 452.926 85.4545C452.153 83.9091 451.047 82.6894 449.608 81.7955C448.184 80.9015 446.502 80.4545 444.562 80.4545C442.426 80.4545 440.578 80.9848 439.017 82.0455C437.472 83.0909 436.282 84.4545 435.449 86.1364C434.616 87.8182 434.199 89.6212 434.199 91.5455V94.6364C434.199 97.2727 434.653 99.5076 435.562 101.341C436.487 103.159 437.767 104.545 439.403 105.5C441.04 106.439 442.941 106.909 445.108 106.909C446.517 106.909 447.79 106.712 448.926 106.318C450.078 105.909 451.07 105.303 451.903 104.5C452.737 103.682 453.381 102.667 453.835 101.455L459.017 102.909C458.472 104.667 457.555 106.212 456.267 107.545C454.979 108.864 453.388 109.894 451.494 110.636C449.6 111.364 447.472 111.727 445.108 111.727ZM473.085 64.4545V111H467.722V64.4545H473.085ZM493.182 111.818C490.97 111.818 488.962 111.402 487.159 110.568C485.356 109.72 483.924 108.5 482.864 106.909C481.803 105.303 481.273 103.364 481.273 101.091C481.273 99.0909 481.667 97.4697 482.455 96.2273C483.242 94.9697 484.295 93.9848 485.614 93.2727C486.932 92.5606 488.386 92.0303 489.977 91.6818C491.583 91.3182 493.197 91.0303 494.818 90.8182C496.939 90.5455 498.659 90.3409 499.977 90.2045C501.311 90.053 502.28 89.803 502.886 89.4545C503.508 89.1061 503.818 88.5 503.818 87.6364V87.4545C503.818 85.2121 503.205 83.4697 501.977 82.2273C500.765 80.9848 498.924 80.3636 496.455 80.3636C493.894 80.3636 491.886 80.9242 490.432 82.0455C488.977 83.1667 487.955 84.3636 487.364 85.6364L482.273 83.8182C483.182 81.697 484.394 80.0455 485.909 78.8636C487.439 77.6667 489.106 76.8333 490.909 76.3636C492.727 75.8788 494.515 75.6364 496.273 75.6364C497.394 75.6364 498.682 75.7727 500.136 76.0455C501.606 76.303 503.023 76.8409 504.386 77.6591C505.765 78.4773 506.909 79.7121 507.818 81.3636C508.727 83.0152 509.182 85.2273 509.182 88V111H503.818V106.273H503.545C503.182 107.03 502.576 107.841 501.727 108.705C500.879 109.568 499.75 110.303 498.341 110.909C496.932 111.515 495.212 111.818 493.182 111.818ZM494 107C496.121 107 497.909 106.583 499.364 105.75C500.833 104.917 501.939 103.841 502.682 102.523C503.439 101.205 503.818 99.8182 503.818 98.3636V93.4545C503.591 93.7273 503.091 93.9773 502.318 94.2045C501.561 94.4167 500.682 94.6061 499.682 94.7727C498.697 94.9242 497.735 95.0606 496.795 95.1818C495.871 95.2879 495.121 95.3788 494.545 95.4545C493.152 95.6364 491.848 95.9318 490.636 96.3409C489.439 96.7348 488.47 97.3333 487.727 98.1364C487 98.9242 486.636 100 486.636 101.364C486.636 103.227 487.326 104.636 488.705 105.591C490.098 106.53 491.864 107 494 107ZM521.176 124.091C520.267 124.091 519.456 124.015 518.744 123.864C518.032 123.727 517.54 123.591 517.267 123.455L518.631 118.727C519.934 119.061 521.085 119.182 522.085 119.091C523.085 119 523.972 118.553 524.744 117.75C525.532 116.962 526.252 115.682 526.903 113.909L527.903 111.182L514.994 76.0909H520.812L530.449 103.909H530.812L540.449 76.0909H546.267L531.449 116.091C530.782 117.894 529.956 119.386 528.972 120.568C527.987 121.765 526.843 122.652 525.54 123.227C524.252 123.803 522.797 124.091 521.176 124.091Z" fill="white"/>
<path d="M691.43 109.455V124H688.774L682.446 114.845H682.339V124H679.264V109.455H681.963L688.241 118.602H688.369V109.455H691.43ZM706.805 114.547H703.694C703.637 114.144 703.521 113.787 703.346 113.474C703.171 113.157 702.946 112.887 702.672 112.665C702.397 112.442 702.08 112.272 701.72 112.153C701.365 112.035 700.979 111.976 700.562 111.976C699.809 111.976 699.154 112.163 698.595 112.537C698.036 112.906 697.603 113.446 697.295 114.156C696.987 114.862 696.833 115.719 696.833 116.727C696.833 117.764 696.987 118.635 697.295 119.341C697.608 120.046 698.043 120.579 698.602 120.939C699.161 121.299 699.807 121.479 700.541 121.479C700.953 121.479 701.334 121.424 701.684 121.315C702.039 121.206 702.354 121.048 702.629 120.839C702.904 120.626 703.131 120.368 703.311 120.065C703.495 119.762 703.623 119.417 703.694 119.028L706.805 119.043C706.725 119.71 706.523 120.354 706.201 120.974C705.884 121.59 705.456 122.142 704.916 122.629C704.381 123.112 703.742 123.496 702.998 123.78C702.26 124.059 701.424 124.199 700.491 124.199C699.194 124.199 698.034 123.905 697.011 123.318C695.993 122.731 695.188 121.881 694.596 120.768C694.009 119.656 693.716 118.309 693.716 116.727C693.716 115.141 694.014 113.792 694.61 112.679C695.207 111.566 696.017 110.719 697.039 110.136C698.062 109.549 699.213 109.256 700.491 109.256C701.334 109.256 702.115 109.374 702.835 109.611C703.559 109.848 704.201 110.193 704.76 110.648C705.318 111.098 705.773 111.649 706.123 112.303C706.478 112.956 706.706 113.704 706.805 114.547Z" fill="white"/>
<path d="M673.098 211.547H669.987C669.93 211.144 669.814 210.787 669.639 210.474C669.464 210.157 669.239 209.887 668.964 209.665C668.69 209.442 668.373 209.272 668.013 209.153C667.658 209.035 667.272 208.976 666.855 208.976C666.102 208.976 665.446 209.163 664.888 209.537C664.329 209.906 663.896 210.446 663.588 211.156C663.28 211.862 663.126 212.719 663.126 213.727C663.126 214.764 663.28 215.635 663.588 216.341C663.901 217.046 664.336 217.579 664.895 217.939C665.454 218.299 666.1 218.479 666.834 218.479C667.246 218.479 667.627 218.424 667.977 218.315C668.332 218.206 668.647 218.048 668.922 217.839C669.196 217.626 669.424 217.368 669.604 217.065C669.788 216.762 669.916 216.417 669.987 216.028L673.098 216.043C673.018 216.71 672.816 217.354 672.494 217.974C672.177 218.59 671.749 219.142 671.209 219.629C670.674 220.112 670.035 220.496 669.291 220.78C668.553 221.059 667.717 221.199 666.784 221.199C665.487 221.199 664.327 220.905 663.304 220.318C662.286 219.731 661.481 218.881 660.889 217.768C660.302 216.656 660.009 215.309 660.009 213.727C660.009 212.141 660.307 210.792 660.903 209.679C661.5 208.566 662.31 207.719 663.332 207.136C664.355 206.549 665.506 206.256 666.784 206.256C667.627 206.256 668.408 206.374 669.128 206.611C669.852 206.848 670.494 207.193 671.053 207.648C671.611 208.098 672.066 208.649 672.416 209.303C672.771 209.956 672.999 210.704 673.098 211.547ZM688.67 213.727C688.67 215.313 688.369 216.663 687.768 217.776C687.171 218.888 686.357 219.738 685.325 220.325C684.297 220.908 683.142 221.199 681.859 221.199C680.566 221.199 679.406 220.905 678.379 220.318C677.351 219.731 676.539 218.881 675.942 217.768C675.346 216.656 675.048 215.309 675.048 213.727C675.048 212.141 675.346 210.792 675.942 209.679C676.539 208.566 677.351 207.719 678.379 207.136C679.406 206.549 680.566 206.256 681.859 206.256C683.142 206.256 684.297 206.549 685.325 207.136C686.357 207.719 687.171 208.566 687.768 209.679C688.369 210.792 688.67 212.141 688.67 213.727ZM685.552 213.727C685.552 212.7 685.398 211.833 685.09 211.128C684.787 210.422 684.359 209.887 683.805 209.523C683.251 209.158 682.602 208.976 681.859 208.976C681.115 208.976 680.467 209.158 679.913 209.523C679.359 209.887 678.928 210.422 678.62 211.128C678.317 211.833 678.165 212.7 678.165 213.727C678.165 214.755 678.317 215.621 678.62 216.327C678.928 217.032 679.359 217.567 679.913 217.932C680.467 218.296 681.115 218.479 681.859 218.479C682.602 218.479 683.251 218.296 683.805 217.932C684.359 217.567 684.787 217.032 685.09 216.327C685.398 215.621 685.552 214.755 685.552 213.727ZM690.948 206.455H694.74L698.746 216.227H698.917L702.922 206.455H706.715V221H703.732V211.533H703.611L699.847 220.929H697.816L694.051 211.497H693.931V221H690.948V206.455Z" fill="white"/>
<path d="M691.338 291.455V306H689.321L681.928 295.332H681.793V306H679.598V291.455H681.629L689.03 302.136H689.165V291.455H691.338ZM707.174 298.727C707.174 300.28 706.89 301.616 706.322 302.733C705.754 303.846 704.975 304.703 703.985 305.304C703.001 305.901 701.881 306.199 700.626 306.199C699.367 306.199 698.242 305.901 697.252 305.304C696.268 304.703 695.491 303.843 694.923 302.726C694.355 301.608 694.071 300.276 694.071 298.727C694.071 297.174 694.355 295.841 694.923 294.729C695.491 293.611 696.268 292.754 697.252 292.158C698.242 291.556 699.367 291.256 700.626 291.256C701.881 291.256 703.001 291.556 703.985 292.158C704.975 292.754 705.754 293.611 706.322 294.729C706.89 295.841 707.174 297.174 707.174 298.727ZM705.001 298.727C705.001 297.544 704.809 296.547 704.426 295.737C704.047 294.923 703.526 294.307 702.863 293.891C702.205 293.469 701.459 293.259 700.626 293.259C699.788 293.259 699.04 293.469 698.382 293.891C697.724 294.307 697.203 294.923 696.819 295.737C696.44 296.547 696.251 297.544 696.251 298.727C696.251 299.911 696.44 300.91 696.819 301.724C697.203 302.534 697.724 303.15 698.382 303.571C699.04 303.988 699.788 304.196 700.626 304.196C701.459 304.196 702.205 303.988 702.863 303.571C703.526 303.15 704.047 302.534 704.426 301.724C704.809 300.91 705.001 299.911 705.001 298.727Z" fill="white"/>
<path d="M351.179 290V287.784L356.357 282.99C356.797 282.564 357.166 282.18 357.464 281.839C357.768 281.499 357.997 281.165 358.153 280.838C358.31 280.507 358.388 280.149 358.388 279.766C358.388 279.339 358.291 278.973 358.097 278.665C357.902 278.352 357.637 278.113 357.301 277.947C356.965 277.777 356.584 277.692 356.158 277.692C355.713 277.692 355.324 277.782 354.993 277.962C354.661 278.142 354.406 278.4 354.226 278.736C354.046 279.072 353.956 279.472 353.956 279.936H351.037C351.037 278.984 351.252 278.158 351.683 277.457C352.114 276.757 352.718 276.214 353.494 275.831C354.271 275.447 355.166 275.256 356.179 275.256C357.221 275.256 358.127 275.44 358.899 275.81C359.676 276.174 360.279 276.681 360.71 277.33C361.141 277.978 361.357 278.722 361.357 279.56C361.357 280.109 361.248 280.651 361.03 281.186C360.817 281.721 360.436 282.315 359.886 282.969C359.337 283.617 358.563 284.396 357.564 285.305L355.44 287.386V287.486H361.548V290H351.179ZM369.153 290.199C368.092 290.199 367.148 290.017 366.319 289.652C365.495 289.283 364.844 288.776 364.366 288.132C363.893 287.483 363.649 286.735 363.635 285.888H366.731C366.75 286.243 366.866 286.555 367.079 286.825C367.297 287.09 367.586 287.296 367.946 287.443C368.306 287.59 368.71 287.663 369.16 287.663C369.629 287.663 370.043 287.58 370.403 287.415C370.763 287.249 371.045 287.019 371.248 286.726C371.452 286.432 371.554 286.094 371.554 285.71C371.554 285.322 371.445 284.979 371.227 284.68C371.014 284.377 370.706 284.141 370.304 283.97C369.906 283.8 369.432 283.714 368.883 283.714H367.527V281.456H368.883C369.347 281.456 369.757 281.375 370.112 281.214C370.472 281.054 370.751 280.831 370.95 280.547C371.149 280.258 371.248 279.922 371.248 279.538C371.248 279.174 371.161 278.854 370.985 278.58C370.815 278.3 370.574 278.082 370.261 277.926C369.953 277.77 369.593 277.692 369.181 277.692C368.765 277.692 368.384 277.768 368.038 277.919C367.692 278.066 367.415 278.277 367.207 278.551C366.999 278.826 366.887 279.148 366.873 279.517H363.926C363.94 278.679 364.179 277.94 364.643 277.301C365.107 276.662 365.732 276.162 366.518 275.803C367.309 275.438 368.201 275.256 369.196 275.256C370.199 275.256 371.078 275.438 371.831 275.803C372.583 276.167 373.168 276.66 373.585 277.28C374.006 277.895 374.215 278.587 374.21 279.354C374.215 280.168 373.961 280.848 373.45 281.392C372.943 281.937 372.283 282.282 371.468 282.429V282.543C372.538 282.68 373.353 283.052 373.912 283.658C374.475 284.259 374.754 285.012 374.75 285.916C374.754 286.745 374.515 287.481 374.032 288.125C373.554 288.769 372.894 289.276 372.051 289.645C371.208 290.014 370.242 290.199 369.153 290.199ZM382.663 290.32C381.442 290.315 380.391 290.014 379.51 289.418C378.634 288.821 377.959 287.957 377.486 286.825C377.017 285.694 376.785 284.332 376.79 282.741C376.79 281.155 377.024 279.804 377.493 278.686C377.966 277.569 378.641 276.719 379.517 276.136C380.398 275.549 381.446 275.256 382.663 275.256C383.88 275.256 384.927 275.549 385.803 276.136C386.683 276.723 387.36 277.576 387.834 278.693C388.307 279.806 388.542 281.155 388.537 282.741C388.537 284.337 388.3 285.701 387.827 286.832C387.358 287.964 386.686 288.828 385.81 289.425C384.934 290.021 383.885 290.32 382.663 290.32ZM382.663 287.77C383.497 287.77 384.162 287.351 384.659 286.513C385.156 285.675 385.402 284.418 385.398 282.741C385.398 281.638 385.284 280.72 385.057 279.986C384.834 279.252 384.517 278.7 384.105 278.331C383.698 277.962 383.217 277.777 382.663 277.777C381.835 277.777 381.172 278.191 380.675 279.02C380.178 279.848 379.927 281.089 379.922 282.741C379.922 283.859 380.033 284.792 380.256 285.54C380.483 286.283 380.803 286.842 381.214 287.216C381.626 287.585 382.109 287.77 382.663 287.77ZM398.072 275.455L401.587 286.506H401.722L405.245 275.455H408.654L403.64 290H399.677L394.656 275.455H398.072ZM417.541 290H414.245L419.267 275.455H423.23L428.244 290H424.949L421.305 278.778H421.191L417.541 290ZM417.335 284.283H425.119V286.683H417.335V284.283ZM442.145 280.547H439.034C438.977 280.144 438.861 279.787 438.686 279.474C438.511 279.157 438.286 278.887 438.011 278.665C437.737 278.442 437.42 278.272 437.06 278.153C436.705 278.035 436.319 277.976 435.902 277.976C435.149 277.976 434.493 278.163 433.935 278.537C433.376 278.906 432.943 279.446 432.635 280.156C432.327 280.862 432.173 281.719 432.173 282.727C432.173 283.764 432.327 284.635 432.635 285.341C432.947 286.046 433.383 286.579 433.942 286.939C434.5 287.299 435.147 287.479 435.881 287.479C436.293 287.479 436.674 287.424 437.024 287.315C437.379 287.206 437.694 287.048 437.969 286.839C438.243 286.626 438.471 286.368 438.651 286.065C438.835 285.762 438.963 285.417 439.034 285.028L442.145 285.043C442.064 285.71 441.863 286.354 441.541 286.974C441.224 287.59 440.795 288.142 440.256 288.629C439.721 289.112 439.081 289.496 438.338 289.78C437.599 290.059 436.764 290.199 435.831 290.199C434.534 290.199 433.374 289.905 432.351 289.318C431.333 288.731 430.528 287.881 429.936 286.768C429.349 285.656 429.055 284.309 429.055 282.727C429.055 281.141 429.354 279.792 429.95 278.679C430.547 277.566 431.357 276.719 432.379 276.136C433.402 275.549 434.553 275.256 435.831 275.256C436.674 275.256 437.455 275.374 438.175 275.611C438.899 275.848 439.541 276.193 440.099 276.648C440.658 277.098 441.113 277.649 441.463 278.303C441.818 278.956 442.045 279.704 442.145 280.547ZM356.555 314.199C355.495 314.199 354.55 314.017 353.722 313.652C352.898 313.283 352.247 312.776 351.768 312.132C351.295 311.483 351.051 310.735 351.037 309.888H354.134C354.152 310.243 354.268 310.555 354.482 310.825C354.699 311.09 354.988 311.296 355.348 311.443C355.708 311.59 356.113 311.663 356.562 311.663C357.031 311.663 357.446 311.58 357.805 311.415C358.165 311.249 358.447 311.019 358.651 310.726C358.854 310.432 358.956 310.094 358.956 309.71C358.956 309.322 358.847 308.979 358.629 308.68C358.416 308.377 358.108 308.141 357.706 307.97C357.308 307.8 356.835 307.714 356.286 307.714H354.929V305.456H356.286C356.75 305.456 357.159 305.375 357.514 305.214C357.874 305.054 358.153 304.831 358.352 304.547C358.551 304.258 358.651 303.922 358.651 303.538C358.651 303.174 358.563 302.854 358.388 302.58C358.217 302.3 357.976 302.082 357.663 301.926C357.356 301.77 356.996 301.692 356.584 301.692C356.167 301.692 355.786 301.768 355.44 301.919C355.095 302.066 354.818 302.277 354.609 302.551C354.401 302.826 354.29 303.148 354.276 303.517H351.328C351.342 302.679 351.581 301.94 352.045 301.301C352.509 300.662 353.134 300.162 353.92 299.803C354.711 299.438 355.604 299.256 356.598 299.256C357.602 299.256 358.48 299.438 359.233 299.803C359.986 300.167 360.571 300.66 360.987 301.28C361.409 301.895 361.617 302.587 361.612 303.354C361.617 304.168 361.364 304.848 360.852 305.392C360.346 305.937 359.685 306.282 358.871 306.429V306.543C359.941 306.68 360.755 307.052 361.314 307.658C361.877 308.259 362.157 309.012 362.152 309.916C362.157 310.745 361.918 311.481 361.435 312.125C360.956 312.769 360.296 313.276 359.453 313.645C358.61 314.014 357.644 314.199 356.555 314.199ZM370.066 314.32C368.844 314.315 367.793 314.014 366.912 313.418C366.036 312.821 365.362 311.957 364.888 310.825C364.419 309.694 364.187 308.332 364.192 306.741C364.192 305.155 364.426 303.804 364.895 302.686C365.369 301.569 366.043 300.719 366.919 300.136C367.8 299.549 368.849 299.256 370.066 299.256C371.283 299.256 372.329 299.549 373.205 300.136C374.086 300.723 374.763 301.576 375.236 302.693C375.71 303.806 375.944 305.155 375.939 306.741C375.939 308.337 375.703 309.701 375.229 310.832C374.76 311.964 374.088 312.828 373.212 313.425C372.336 314.021 371.287 314.32 370.066 314.32ZM370.066 311.77C370.899 311.77 371.564 311.351 372.061 310.513C372.559 309.675 372.805 308.418 372.8 306.741C372.8 305.638 372.686 304.72 372.459 303.986C372.237 303.252 371.919 302.7 371.507 302.331C371.1 301.962 370.62 301.777 370.066 301.777C369.237 301.777 368.574 302.191 368.077 303.02C367.58 303.848 367.329 305.089 367.324 306.741C367.324 307.859 367.435 308.792 367.658 309.54C367.885 310.283 368.205 310.842 368.617 311.216C369.029 311.585 369.512 311.77 370.066 311.77ZM385.474 299.455L388.99 310.506H389.125L392.647 299.455H396.056L391.042 314H387.079L382.058 299.455H385.474ZM407.592 314H402.436V299.455H407.635C409.098 299.455 410.357 299.746 411.413 300.328C412.469 300.906 413.281 301.737 413.849 302.821C414.422 303.905 414.709 305.203 414.709 306.713C414.709 308.228 414.422 309.53 413.849 310.619C413.281 311.708 412.464 312.544 411.399 313.126C410.339 313.709 409.07 314 407.592 314ZM405.511 311.365H407.464C408.374 311.365 409.138 311.204 409.759 310.882C410.384 310.555 410.852 310.051 411.165 309.369C411.482 308.683 411.641 307.797 411.641 306.713C411.641 305.638 411.482 304.76 411.165 304.078C410.852 303.396 410.386 302.894 409.766 302.572C409.145 302.25 408.381 302.089 407.472 302.089H405.511V311.365ZM429.821 304.547H426.71C426.653 304.144 426.537 303.787 426.362 303.474C426.187 303.157 425.962 302.887 425.687 302.665C425.413 302.442 425.095 302.272 424.735 302.153C424.38 302.035 423.994 301.976 423.578 301.976C422.825 301.976 422.169 302.163 421.61 302.537C421.052 302.906 420.618 303.446 420.311 304.156C420.003 304.862 419.849 305.719 419.849 306.727C419.849 307.764 420.003 308.635 420.311 309.341C420.623 310.046 421.059 310.579 421.618 310.939C422.176 311.299 422.823 311.479 423.556 311.479C423.968 311.479 424.35 311.424 424.7 311.315C425.055 311.206 425.37 311.048 425.645 310.839C425.919 310.626 426.146 310.368 426.326 310.065C426.511 309.762 426.639 309.417 426.71 309.028L429.821 309.043C429.74 309.71 429.539 310.354 429.217 310.974C428.9 311.59 428.471 312.142 427.931 312.629C427.396 313.112 426.757 313.496 426.014 313.78C425.275 314.059 424.44 314.199 423.507 314.199C422.209 314.199 421.049 313.905 420.027 313.318C419.009 312.731 418.204 311.881 417.612 310.768C417.025 309.656 416.731 308.309 416.731 306.727C416.731 305.141 417.029 303.792 417.626 302.679C418.223 301.566 419.032 300.719 420.055 300.136C421.078 299.549 422.228 299.256 423.507 299.256C424.35 299.256 425.131 299.374 425.85 299.611C426.575 299.848 427.217 300.193 427.775 300.648C428.334 301.098 428.788 301.649 429.139 302.303C429.494 302.956 429.721 303.704 429.821 304.547Z" fill="white"/>
</g>
<defs>
<clipPath id="clip0_440_3">
<rect width="862" height="408" fill="white"/>
</clipPath>
</defs>
</svg>
