<svg width="1837" height="855" viewBox="0 0 1837 855" fill="none" xmlns="http://www.w3.org/2000/svg">
  <title
     id="title2639">HC-SR04 Ultrasonic Range Sensor</title>
<g clip-path="url(#clip0_39_2)">
<path d="M1836.36 0H0V854.841H1836.36V0Z" fill="#456F93"/>
<path d="M624.093 240.289L743.822 120.56V248.014L863.938 368.129V782.032" stroke="#355A7C" stroke-width="35"/>
<path d="M949.55 776.883V675.95L910.156 636.555V126.482L1015.3 187.187L1208.78 380.67" stroke="#355A7C" stroke-width="35"/>
<path d="M366.601 761.084C560.683 761.084 718.016 603.75 718.016 409.669C718.016 215.588 560.683 58.2544 366.601 58.2544C172.52 58.2544 15.1865 215.588 15.1865 409.669C15.1865 603.75 172.52 761.084 366.601 761.084Z" fill="#DCDCDC"/>
<path d="M366.601 702.378C528.26 702.378 659.31 571.328 659.31 409.669C659.31 248.011 528.26 116.96 366.601 116.96C204.943 116.96 73.8925 248.011 73.8925 409.669C73.8925 571.328 204.943 702.378 366.601 702.378Z" fill="#222222"/>
<path d="M366.602 635.433C491.287 635.433 592.365 534.355 592.365 409.669C592.365 284.984 491.287 183.906 366.602 183.906C241.916 183.906 140.838 284.984 140.838 409.669C140.838 534.355 241.916 635.433 366.602 635.433Z" fill="#777777" fill-opacity="0.991957"/>
<path d="M366.601 555.688C447.446 555.688 512.984 490.15 512.984 409.305C512.984 328.461 447.446 262.923 366.601 262.923C285.757 262.923 220.219 328.461 220.219 409.305C220.219 490.15 285.757 555.688 366.601 555.688Z" fill="url(#paint0_radial_39_2)"/>
<path d="M366.966 420.593C373.2 420.593 378.254 415.54 378.254 409.305C378.254 403.071 373.2 398.017 366.966 398.017C360.731 398.017 355.677 403.071 355.677 409.305C355.677 415.54 360.731 420.593 366.966 420.593Z" fill="#777777" fill-opacity="0.817694"/>
<path d="M1475.03 761.084C1669.11 761.084 1826.44 603.75 1826.44 409.669C1826.44 215.588 1669.11 58.2544 1475.03 58.2544C1280.95 58.2544 1123.61 215.588 1123.61 409.669C1123.61 603.75 1280.95 761.084 1475.03 761.084Z" fill="#DCDCDC"/>
<path d="M1475.03 702.378C1636.69 702.378 1767.74 571.328 1767.74 409.669C1767.74 248.011 1636.69 116.96 1475.03 116.96C1313.37 116.96 1182.32 248.011 1182.32 409.669C1182.32 571.328 1313.37 702.378 1475.03 702.378Z" fill="#222222"/>
<path d="M1475.03 635.433C1599.71 635.433 1700.79 534.355 1700.79 409.669C1700.79 284.984 1599.71 183.906 1475.03 183.906C1350.34 183.906 1249.26 284.984 1249.26 409.669C1249.26 534.355 1350.34 635.433 1475.03 635.433Z" fill="#777777" fill-opacity="0.991957"/>
<path d="M1475.03 555.688C1555.87 555.688 1621.41 490.15 1621.41 409.305C1621.41 328.461 1555.87 262.923 1475.03 262.923C1394.18 262.923 1328.65 328.461 1328.65 409.305C1328.65 490.15 1394.18 555.688 1475.03 555.688Z" fill="url(#paint1_radial_39_2)"/>
<path d="M1475.39 420.593C1481.63 420.593 1486.68 415.54 1486.68 409.305C1486.68 403.071 1481.63 398.017 1475.39 398.017C1469.16 398.017 1464.1 403.071 1464.1 409.305C1464.1 415.54 1469.16 420.593 1475.39 420.593Z" fill="#777777" fill-opacity="0.817694"/>
<path d="M1770.34 100.519C1792.87 100.519 1811.12 82.2596 1811.12 59.7357C1811.12 37.2118 1792.87 18.9526 1770.34 18.9526C1747.82 18.9526 1729.56 37.2118 1729.56 59.7357C1729.56 82.2596 1747.82 100.519 1770.34 100.519Z" fill="white" stroke="#505132" stroke-width="15" stroke-linecap="round" stroke-linejoin="round"/>
<path d="M1770.34 835.888C1792.87 835.888 1811.12 817.629 1811.12 795.105C1811.12 772.581 1792.87 754.322 1770.34 754.322C1747.82 754.322 1729.56 772.581 1729.56 795.105C1729.56 817.629 1747.82 835.888 1770.34 835.888Z" fill="white" stroke="#505132" stroke-width="15" stroke-linecap="round" stroke-linejoin="round"/>
<path d="M58.2034 100.519C80.7273 100.519 98.9865 82.2596 98.9865 59.7357C98.9865 37.2118 80.7273 18.9526 58.2034 18.9526C35.6795 18.9526 17.4203 37.2118 17.4203 59.7357C17.4203 82.2596 35.6795 100.519 58.2034 100.519Z" fill="white" stroke="#505132" stroke-width="15" stroke-linecap="round" stroke-linejoin="round"/>
<path d="M58.2034 835.888C80.7273 835.888 98.9865 817.629 98.9865 795.105C98.9865 772.581 80.7273 754.322 58.2034 754.322C35.6795 754.322 17.4203 772.581 17.4203 795.105C17.4203 817.629 35.6795 835.888 58.2034 835.888Z" fill="white" stroke="#505132" stroke-width="15" stroke-linecap="round" stroke-linejoin="round"/>
<path d="M1032.97 25.5493H782.702C736.059 25.5493 698.248 63.3607 698.248 110.003C698.248 156.646 736.059 194.458 782.702 194.458H1032.97C1079.62 194.458 1117.43 156.646 1117.43 110.003C1117.43 63.3607 1079.62 25.5493 1032.97 25.5493Z" fill="#878787" stroke="#424242" stroke-width="15" stroke-linecap="round" stroke-linejoin="round"/>
<path class="hoverable"  id="Vcc" d="M798.151 757.829C798.151 745.03 787.776 734.655 774.977 734.655C762.179 734.655 751.804 745.03 751.804 757.829V804.175C751.804 816.974 762.179 827.349 774.977 827.349C787.776 827.349 798.151 816.974 798.151 804.175V757.829Z" fill="url(#paint2_radial_39_2)"/>
<path class="hoverable"  id="trig" d="M883.292 757.829C883.292 745.03 872.917 734.655 860.118 734.655C847.32 734.655 836.945 745.03 836.945 757.829V804.175C836.945 816.974 847.32 827.349 860.118 827.349C872.917 827.349 883.292 816.974 883.292 804.175V757.829Z" fill="url(#paint3_radial_39_2)"/>
<path class="hoverable"  id="Echo" d="M968.432 757.829C968.432 745.03 958.057 734.655 945.259 734.655C932.461 734.655 922.086 745.03 922.086 757.829V804.175C922.086 816.974 932.461 827.349 945.259 827.349C958.057 827.349 968.432 816.974 968.432 804.175V757.829Z" fill="url(#paint4_radial_39_2)"/>
<path class="hoverable"  id="gnd" d="M1053.57 757.829C1053.57 745.03 1043.2 734.655 1030.4 734.655C1017.6 734.655 1007.23 745.03 1007.23 757.829V804.175C1007.23 816.974 1017.6 827.349 1030.4 827.349C1043.2 827.349 1053.57 816.974 1053.57 804.175V757.829Z" fill="url(#paint5_radial_39_2)"/>
<path d="M720.302 321.976V256.591H728.22V285.708H763.084V256.591H771.002V321.976H763.084V292.731H728.22V321.976H720.302ZM839.468 277.024H831.55C831.082 274.746 830.262 272.745 829.091 271.021C827.942 269.297 826.537 267.85 824.877 266.679C823.238 265.488 821.418 264.594 819.418 263.998C817.417 263.402 815.331 263.104 813.16 263.104C809.201 263.104 805.615 264.104 802.401 266.105C799.208 268.105 796.665 271.053 794.771 274.948C792.898 278.843 791.961 283.622 791.961 289.283C791.961 294.945 792.898 299.723 794.771 303.618C796.665 307.513 799.208 310.461 802.401 312.462C805.615 314.463 809.201 315.463 813.16 315.463C815.331 315.463 817.417 315.165 819.418 314.569C821.418 313.973 823.238 313.09 824.877 311.919C826.537 310.727 827.942 309.269 829.091 307.545C830.262 305.8 831.082 303.799 831.55 301.543H839.468C838.872 304.885 837.786 307.875 836.211 310.514C834.636 313.154 832.678 315.399 830.337 317.251C827.995 319.081 825.367 320.475 822.451 321.433C819.556 322.391 816.459 322.87 813.16 322.87C807.584 322.87 802.625 321.508 798.283 318.783C793.941 316.059 790.524 312.185 788.034 307.162C785.544 302.139 784.299 296.179 784.299 289.283C784.299 282.387 785.544 276.428 788.034 271.405C790.524 266.381 793.941 262.508 798.283 259.783C802.625 257.059 807.584 255.697 813.16 255.697C816.459 255.697 819.556 256.176 822.451 257.133C825.367 258.091 827.995 259.496 830.337 261.348C832.678 263.178 834.636 265.413 836.211 268.052C837.786 270.67 838.872 273.661 839.468 277.024ZM879.336 285.771V292.795H850.73V285.771H879.336ZM929.372 272.937C928.989 269.702 927.435 267.19 924.711 265.402C921.986 263.614 918.645 262.721 914.686 262.721C911.791 262.721 909.258 263.189 907.087 264.125C904.938 265.062 903.256 266.35 902.043 267.988C900.851 269.627 900.255 271.49 900.255 273.576C900.255 275.321 900.67 276.821 901.5 278.077C902.352 279.312 903.437 280.344 904.757 281.174C906.076 281.983 907.46 282.653 908.907 283.185C910.355 283.696 911.685 284.111 912.898 284.43L919.539 286.218C921.241 286.665 923.136 287.283 925.222 288.07C927.329 288.858 929.34 289.932 931.256 291.295C933.193 292.636 934.789 294.36 936.045 296.467C937.3 298.574 937.928 301.16 937.928 304.225C937.928 307.758 937.002 310.951 935.151 313.803C933.32 316.655 930.638 318.922 927.105 320.603C923.593 322.284 919.326 323.125 914.303 323.125C909.62 323.125 905.566 322.37 902.139 320.858C898.733 319.347 896.052 317.24 894.093 314.537C892.157 311.834 891.06 308.694 890.805 305.119H898.978C899.191 307.588 900.021 309.631 901.468 311.249C902.937 312.845 904.789 314.037 907.024 314.824C909.28 315.591 911.706 315.974 914.303 315.974C917.325 315.974 920.039 315.484 922.444 314.505C924.849 313.505 926.754 312.121 928.159 310.355C929.564 308.567 930.266 306.481 930.266 304.097C930.266 301.926 929.659 300.16 928.446 298.797C927.233 297.435 925.637 296.328 923.657 295.477C921.678 294.626 919.539 293.881 917.24 293.242L909.195 290.943C904.086 289.475 900.042 287.378 897.063 284.654C894.083 281.93 892.593 278.364 892.593 273.959C892.593 270.298 893.583 267.105 895.562 264.381C897.563 261.635 900.245 259.507 903.608 257.995C906.992 256.463 910.77 255.697 914.941 255.697C919.156 255.697 922.902 256.452 926.179 257.964C929.457 259.453 932.054 261.497 933.969 264.093C935.906 266.69 936.928 269.638 937.034 272.937H929.372ZM950.946 321.976V256.591H973.039C978.147 256.591 982.34 257.463 985.618 259.209C988.896 260.933 991.322 263.306 992.897 266.328C994.472 269.351 995.26 272.788 995.26 276.64C995.26 280.493 994.472 283.909 992.897 286.889C991.322 289.869 988.907 292.21 985.65 293.913C982.394 295.594 978.233 296.435 973.167 296.435H955.288V289.283H972.912C976.402 289.283 979.212 288.772 981.34 287.751C983.49 286.729 985.044 285.282 986.001 283.409C986.98 281.515 987.47 279.258 987.47 276.64C987.47 274.022 986.98 271.734 986.001 269.776C985.022 267.818 983.458 266.307 981.308 265.243C979.158 264.157 976.317 263.614 972.784 263.614H958.864V321.976H950.946ZM981.723 292.604L997.814 321.976H988.619L972.784 292.604H981.723ZM1028.63 322.87C1023.82 322.87 1019.72 321.561 1016.34 318.943C1012.96 316.304 1010.37 312.483 1008.58 307.481C1006.79 302.458 1005.9 296.392 1005.9 289.283C1005.9 282.217 1006.79 276.183 1008.58 271.181C1010.39 266.158 1012.99 262.327 1016.37 259.688C1019.78 257.027 1023.86 255.697 1028.63 255.697C1033.4 255.697 1037.47 257.027 1040.86 259.688C1044.26 262.327 1046.86 266.158 1048.65 271.181C1050.46 276.183 1051.36 282.217 1051.36 289.283C1051.36 296.392 1050.47 302.458 1048.68 307.481C1046.89 312.483 1044.31 316.304 1040.92 318.943C1037.54 321.561 1033.44 322.87 1028.63 322.87ZM1028.63 315.846C1033.4 315.846 1037.1 313.547 1039.74 308.95C1042.38 304.352 1043.7 297.797 1043.7 289.283C1043.7 283.622 1043.09 278.801 1041.88 274.821C1040.69 270.84 1038.96 267.807 1036.71 265.722C1034.47 263.636 1031.78 262.593 1028.63 262.593C1023.91 262.593 1020.21 264.923 1017.55 269.585C1014.89 274.225 1013.56 280.791 1013.56 289.283C1013.56 294.945 1014.16 299.755 1015.35 303.714C1016.54 307.673 1018.25 310.685 1020.49 312.749C1022.75 314.814 1025.46 315.846 1028.63 315.846ZM1061.96 308.567V302.054L1090.7 256.591H1095.42V266.679H1092.23L1070.52 301.032V301.543H1109.21V308.567H1061.96ZM1092.74 321.976V306.587V303.554V256.591H1100.27V321.976H1092.74Z" fill="#E6E6E6"/>
<path d="M750.965 703.913L784.664 693.624V693.242L750.965 682.952V670.506L796.976 686.03V700.836L750.965 716.36V703.913ZM797.627 653.583C797.627 657.223 796.879 660.346 795.381 662.952C793.883 665.543 791.801 667.535 789.135 668.928C786.454 670.321 783.354 671.017 779.834 671.017C776.299 671.017 773.199 670.321 770.533 668.928C767.852 667.52 765.763 665.52 764.265 662.929C762.767 660.323 762.018 657.215 762.018 653.606C762.018 650.415 762.595 647.637 763.748 645.271C764.902 642.889 766.534 641.032 768.646 639.699C770.743 638.351 773.207 637.64 776.037 637.565V647.832C774.27 648.041 772.885 648.641 771.881 649.629C770.878 650.603 770.376 651.876 770.376 653.448C770.376 654.721 770.735 655.837 771.454 656.796C772.158 657.754 773.207 658.503 774.599 659.042C775.977 659.567 777.685 659.829 779.722 659.829C781.759 659.829 783.481 659.567 784.889 659.042C786.282 658.503 787.338 657.754 788.057 656.796C788.761 655.837 789.113 654.721 789.113 653.448C789.113 652.43 788.896 651.531 788.461 650.752C788.027 649.959 787.39 649.307 786.552 648.798C785.698 648.289 784.664 647.967 783.451 647.832V637.565C786.297 637.67 788.783 638.381 790.91 639.699C793.037 641.002 794.692 642.837 795.875 645.203C797.043 647.555 797.627 650.348 797.627 653.583ZM797.627 615.834C797.627 619.474 796.879 622.596 795.381 625.203C793.883 627.794 791.801 629.786 789.135 631.179C786.454 632.572 783.354 633.268 779.834 633.268C776.299 633.268 773.199 632.572 770.533 631.179C767.852 629.771 765.763 627.771 764.265 625.18C762.767 622.574 762.018 619.466 762.018 615.857C762.018 612.666 762.595 609.888 763.748 607.522C764.902 605.14 766.534 603.283 768.646 601.95C770.743 600.602 773.207 599.89 776.037 599.816V610.083C774.27 610.292 772.885 610.892 771.881 611.88C770.878 612.854 770.376 614.127 770.376 615.699C770.376 616.972 770.735 618.088 771.454 619.047C772.158 620.005 773.207 620.754 774.599 621.293C775.977 621.818 777.685 622.08 779.722 622.08C781.759 622.08 783.481 621.818 784.889 621.293C786.282 620.754 787.338 620.005 788.057 619.047C788.761 618.088 789.113 616.972 789.113 615.699C789.113 614.681 788.896 613.782 788.461 613.003C788.027 612.21 787.39 611.558 786.552 611.049C785.698 610.54 784.664 610.218 783.451 610.083V599.816C786.297 599.92 788.783 600.632 790.91 601.95C793.037 603.253 794.692 605.088 795.875 607.454C797.043 609.806 797.627 612.599 797.627 615.834Z" fill="#DDC54A"/>
<path d="M845.404 715.865H836.373V676.976H845.404V690.928H882.384V701.891H845.404V715.865ZM882.384 675.128H847.876V664.457H854.166V664.097C851.89 663.468 850.197 662.442 849.089 661.02C847.965 659.597 847.404 657.942 847.404 656.054C847.404 655.545 847.441 655.021 847.516 654.482C847.576 653.943 847.673 653.441 847.808 652.977H857.356C857.177 653.501 857.034 654.19 856.93 655.043C856.825 655.882 856.772 656.631 856.772 657.29C856.772 658.593 857.064 659.769 857.648 660.817C858.218 661.851 859.019 662.667 860.052 663.266C861.071 663.85 862.269 664.142 863.647 664.142H882.384V675.128ZM882.384 648.5H847.876V637.514H882.384V648.5ZM843.854 642.996C843.854 644.539 843.345 645.864 842.326 646.972C841.293 648.081 840.05 648.635 838.597 648.635C837.159 648.635 835.931 648.081 834.913 646.972C833.879 645.864 833.362 644.539 833.362 642.996C833.362 641.438 833.879 640.113 834.913 639.019C835.931 637.911 837.159 637.357 838.597 637.357C840.05 637.357 841.293 637.911 842.326 639.019C843.345 640.113 843.854 641.438 843.854 642.996ZM896.043 614.436C896.043 617.716 895.587 620.524 894.673 622.86C893.759 625.197 892.509 627.032 890.921 628.365C889.333 629.698 887.536 630.499 885.529 630.769L884.945 620.367C885.649 620.172 886.263 619.813 886.787 619.288C887.312 618.749 887.716 618.053 888 617.199C888.285 616.33 888.427 615.312 888.427 614.144C888.427 612.301 887.978 610.781 887.079 609.583C886.196 608.37 884.646 607.763 882.429 607.763H876.363V608.145C877.426 608.579 878.377 609.238 879.216 610.122C880.055 611.006 880.714 612.107 881.193 613.425C881.672 614.728 881.912 616.225 881.912 617.918C881.912 620.434 881.328 622.741 880.16 624.837C878.977 626.919 877.149 628.589 874.678 629.847C872.192 631.091 868.994 631.712 865.085 631.712C861.056 631.712 857.738 631.068 855.132 629.78C852.511 628.492 850.572 626.807 849.313 624.725C848.055 622.628 847.426 620.374 847.426 617.963C847.426 616.151 847.741 614.6 848.37 613.312C848.984 612.009 849.778 610.938 850.751 610.1C851.725 609.261 852.736 608.624 853.784 608.19V607.875H847.876V596.934H882.519C885.439 596.934 887.903 597.668 889.91 599.136C891.917 600.604 893.437 602.656 894.471 605.292C895.519 607.928 896.043 610.976 896.043 614.436ZM873.914 614.099C873.914 612.766 873.562 611.627 872.858 610.684C872.154 609.74 871.143 609.014 869.825 608.504C868.507 607.995 866.927 607.741 865.085 607.741C863.213 607.741 861.603 607.995 860.255 608.504C858.892 608.999 857.843 609.725 857.109 610.684C856.375 611.627 856.008 612.766 856.008 614.099C856.008 615.462 856.383 616.615 857.132 617.558C857.881 618.502 858.937 619.221 860.299 619.715C861.647 620.194 863.243 620.434 865.085 620.434C866.927 620.434 868.507 620.187 869.825 619.693C871.143 619.198 872.154 618.487 872.858 617.558C873.562 616.615 873.914 615.462 873.914 614.099Z" fill="#DDC54A"/>
<path d="M967.792 714.36H921.781V682.278H930.813V703.239H940.248V683.918H949.302V703.239H958.761V682.278H967.792V714.36ZM968.444 659.205C968.444 662.845 967.695 665.968 966.197 668.574C964.699 671.165 962.617 673.157 959.951 674.55C957.27 675.943 954.17 676.639 950.65 676.639C947.116 676.639 944.015 675.943 941.349 674.55C938.668 673.142 936.579 671.142 935.081 668.551C933.583 665.945 932.834 662.837 932.834 659.228C932.834 656.038 933.411 653.259 934.564 650.893C935.718 648.511 937.35 646.654 939.462 645.321C941.559 643.973 944.023 643.262 946.853 643.187V653.454C945.086 653.664 943.701 654.263 942.697 655.251C941.694 656.225 941.192 657.498 941.192 659.071C941.192 660.344 941.551 661.46 942.27 662.418C942.974 663.377 944.023 664.126 945.416 664.665C946.794 665.189 948.501 665.451 950.538 665.451C952.575 665.451 954.297 665.189 955.705 664.665C957.098 664.126 958.154 663.377 958.873 662.418C959.577 661.46 959.929 660.344 959.929 659.071C959.929 658.052 959.712 657.153 959.277 656.375C958.843 655.581 958.206 654.929 957.368 654.42C956.514 653.911 955.481 653.589 954.267 653.454V643.187C957.113 643.292 959.599 644.003 961.726 645.321C963.853 646.624 965.508 648.459 966.691 650.825C967.86 653.177 968.444 655.97 968.444 659.205ZM948.112 626.579H967.792V637.565H921.781V626.938H939.619V626.556C937.493 625.777 935.83 624.504 934.632 622.737C933.434 620.955 932.834 618.775 932.834 616.199C932.834 613.773 933.374 611.661 934.452 609.864C935.515 608.066 937.021 606.673 938.968 605.685C940.915 604.681 943.191 604.187 945.798 604.202H967.792V615.188H947.954C946.037 615.173 944.539 615.653 943.461 616.626C942.383 617.6 941.843 618.97 941.843 620.737C941.843 621.891 942.098 622.909 942.607 623.793C943.102 624.662 943.813 625.343 944.742 625.837C945.67 626.317 946.794 626.564 948.112 626.579ZM968.444 581.236C968.444 584.861 967.702 587.976 966.219 590.582C964.722 593.173 962.64 595.173 959.974 596.58C957.293 597.973 954.185 598.67 950.65 598.67C947.101 598.67 943.993 597.973 941.327 596.58C938.646 595.173 936.564 593.173 935.081 590.582C933.583 587.976 932.834 584.861 932.834 581.236C932.834 577.611 933.583 574.504 935.081 571.912C936.564 569.306 938.646 567.307 941.327 565.914C943.993 564.506 947.101 563.802 950.65 563.802C954.185 563.802 957.293 564.506 959.974 565.914C962.64 567.307 964.722 569.306 966.219 571.912C967.702 574.504 968.444 577.611 968.444 581.236ZM960.154 581.169C960.154 579.851 959.749 578.735 958.94 577.821C958.132 576.907 957.008 576.211 955.57 575.732C954.133 575.237 952.47 574.99 950.583 574.99C948.666 574.99 946.988 575.237 945.55 575.732C944.113 576.211 942.989 576.907 942.18 577.821C941.372 578.735 940.967 579.851 940.967 581.169C940.967 582.532 941.372 583.685 942.18 584.628C942.989 585.557 944.113 586.268 945.55 586.763C946.988 587.242 948.666 587.482 950.583 587.482C952.47 587.482 954.133 587.242 955.57 586.763C957.008 586.268 958.132 585.557 958.94 584.628C959.749 583.685 960.154 582.532 960.154 581.169Z" fill="#DDC54A"/>
<path d="M1022.22 684.165C1021.28 684.42 1020.44 684.795 1019.73 685.289C1018.99 685.783 1018.37 686.39 1017.86 687.109C1017.35 687.827 1016.97 688.651 1016.71 689.58C1016.45 690.508 1016.31 691.527 1016.31 692.635C1016.31 694.867 1016.85 696.799 1017.93 698.432C1019.01 700.049 1020.58 701.3 1022.65 702.183C1024.7 703.067 1027.19 703.509 1030.13 703.509C1033.08 703.509 1035.59 703.082 1037.68 702.228C1039.76 701.375 1041.35 700.139 1042.44 698.521C1043.53 696.904 1044.08 694.942 1044.08 692.635C1044.08 690.598 1043.75 688.876 1043.09 687.468C1042.42 686.045 1041.47 684.967 1040.24 684.233C1039.01 683.499 1037.56 683.132 1035.9 683.132L1036.15 681.065V692.253H1028.04V672.416H1034.13C1038.24 672.416 1041.77 673.292 1044.71 675.044C1047.64 676.782 1049.9 679.178 1051.47 682.233C1053.04 685.274 1053.83 688.771 1053.83 692.725C1053.83 697.114 1052.88 700.97 1050.98 704.295C1049.07 707.62 1046.36 710.211 1042.84 712.069C1039.31 713.926 1035.11 714.855 1030.26 714.855C1026.49 714.855 1023.14 714.293 1020.22 713.17C1017.28 712.046 1014.8 710.481 1012.76 708.474C1010.72 706.452 1009.18 704.116 1008.13 701.465C1007.08 698.799 1006.56 695.93 1006.56 692.86C1006.56 690.194 1006.94 687.715 1007.71 685.424C1008.47 683.117 1009.55 681.08 1010.94 679.313C1012.33 677.53 1013.99 676.085 1015.91 674.977C1017.82 673.868 1019.93 673.179 1022.22 672.91V684.165ZM1033.52 654.875H1053.2V665.861H1018.69V655.414H1025.03V655.032C1022.92 654.268 1021.26 652.965 1020.06 651.123C1018.85 649.281 1018.24 647.087 1018.24 644.54C1018.24 642.114 1018.79 640.01 1019.88 638.227C1020.96 636.43 1022.47 635.037 1024.42 634.049C1026.35 633.045 1028.61 632.551 1031.21 632.566H1053.2V643.552H1033.36C1031.45 643.537 1029.95 644.024 1028.87 645.012C1027.79 645.986 1027.25 647.341 1027.25 649.079C1027.25 650.232 1027.51 651.25 1028.02 652.134C1028.51 653.003 1029.22 653.677 1030.15 654.156C1031.08 654.62 1032.2 654.86 1033.52 654.875ZM1053.69 613.161C1053.69 615.707 1053.04 618.021 1051.72 620.103C1050.4 622.185 1048.42 623.847 1045.79 625.09C1043.15 626.333 1039.88 626.955 1035.97 626.955C1031.91 626.955 1028.57 626.311 1025.95 625.023C1023.33 623.735 1021.39 622.05 1020.13 619.968C1018.87 617.871 1018.24 615.617 1018.24 613.206C1018.24 611.393 1018.56 609.843 1019.19 608.555C1019.8 607.267 1020.59 606.204 1021.57 605.365C1022.54 604.526 1023.55 603.89 1024.6 603.455V603.23H1007.19V592.244H1053.2V603.118H1047.61V603.455C1048.67 603.919 1049.67 604.578 1050.59 605.432C1051.52 606.286 1052.27 607.357 1052.84 608.645C1053.41 609.918 1053.69 611.423 1053.69 613.161ZM1045.13 609.341C1045.13 608.008 1044.76 606.87 1044.01 605.926C1043.25 604.983 1042.18 604.256 1040.8 603.747C1039.42 603.238 1037.8 602.983 1035.95 602.983C1034.06 602.983 1032.43 603.238 1031.07 603.747C1029.71 604.241 1028.66 604.968 1027.93 605.926C1027.19 606.87 1026.82 608.008 1026.82 609.341C1026.82 610.704 1027.2 611.858 1027.95 612.801C1028.7 613.745 1029.75 614.464 1031.12 614.958C1032.48 615.437 1034.09 615.677 1035.95 615.677C1037.8 615.677 1039.42 615.43 1040.8 614.935C1042.18 614.441 1043.25 613.73 1044.01 612.801C1044.76 611.858 1045.13 610.704 1045.13 609.341Z" fill="#DDC54A"/>
<path d="M149.236 740.472V733.448H198.275V740.472H177.714V798.833H169.796V740.472H149.236Z" fill="#E6E6E6"/>
<path d="M1640.03 798.833V733.448H1662.12C1667.23 733.448 1671.42 734.321 1674.7 736.066C1677.98 737.79 1680.41 740.163 1681.98 743.185C1683.56 746.208 1684.34 749.645 1684.34 753.498C1684.34 757.35 1683.56 760.766 1681.98 763.746C1680.41 766.726 1677.99 769.067 1674.73 770.77C1671.48 772.451 1667.32 773.292 1662.25 773.292H1644.37V766.14H1661.99C1665.48 766.14 1668.29 765.63 1670.42 764.608C1672.57 763.586 1674.13 762.139 1675.08 760.266C1676.06 758.372 1676.55 756.116 1676.55 753.498C1676.55 750.88 1676.06 748.592 1675.08 746.633C1674.11 744.675 1672.54 743.164 1670.39 742.1C1668.24 741.014 1665.4 740.472 1661.87 740.472H1647.95V798.833H1640.03ZM1670.81 769.461L1686.9 798.833H1677.7L1661.87 769.461H1670.81Z" fill="#E6E6E6"/>
</g>
<defs>
<radialGradient id="paint0_radial_39_2" cx="0" cy="0" r="1" gradientUnits="userSpaceOnUse" gradientTransform="translate(366.601 409.305) scale(146.382 146.382)">
<stop stop-color="#777777"/>
<stop offset="1" stop-color="#B9B9B9"/>
</radialGradient>
<radialGradient id="paint1_radial_39_2" cx="0" cy="0" r="1" gradientUnits="userSpaceOnUse" gradientTransform="translate(1475.03 409.305) scale(146.382 146.382)">
<stop stop-color="#777777"/>
<stop offset="1" stop-color="#B9B9B9"/>
</radialGradient>
<radialGradient id="paint2_radial_39_2" cx="0" cy="0" r="1" gradientUnits="userSpaceOnUse" gradientTransform="translate(774.977 781.002) scale(23.1734 46.3468)">
<stop stop-color="#D6D6D6"/>
<stop offset="1" stop-color="#AAAAAA"/>
</radialGradient>
<radialGradient id="paint3_radial_39_2" cx="0" cy="0" r="1" gradientUnits="userSpaceOnUse" gradientTransform="translate(860.118 781.002) scale(23.1734 46.3468)">
<stop stop-color="#D6D6D6"/>
<stop offset="1" stop-color="#AAAAAA"/>
</radialGradient>
<radialGradient id="paint4_radial_39_2" cx="0" cy="0" r="1" gradientUnits="userSpaceOnUse" gradientTransform="translate(945.259 781.002) scale(23.1734 46.3468)">
<stop stop-color="#D6D6D6"/>
<stop offset="1" stop-color="#AAAAAA"/>
</radialGradient>
<radialGradient id="paint5_radial_39_2" cx="0" cy="0" r="1" gradientUnits="userSpaceOnUse" gradientTransform="translate(1030.4 781.002) scale(23.1734 46.3468)">
<stop stop-color="#D6D6D6"/>
<stop offset="1" stop-color="#AAAAAA"/>
</radialGradient>
<clipPath id="clip0_39_2">
<rect width="1836.36" height="854.841" fill="white"/>
</clipPath>
</defs>
</svg>
