<svg width="2160" height="1080" viewBox="0 0 2160 1080" fill="none" xmlns="http://www.w3.org/2000/svg">
<g clip-path="url(#clip0_40_38)">
<path id="1kresistor_pin_1" class="hoverable" d="M889.171 350.169H-88.3347C-96.0606 350.169 -102.324 356.432 -102.324 364.158V389.914C-102.324 397.64 -96.0606 403.903 -88.3347 403.903H889.171C896.897 403.903 903.16 397.64 903.16 389.914V364.158C903.16 356.432 896.897 350.169 889.171 350.169Z" fill="#666666"/>
<path id="1kresistor_pin_2" class="hoverable" d="M2163.64 350.169H1186.13C1178.41 350.169 1172.14 356.432 1172.14 364.158V389.914C1172.14 397.64 1178.41 403.903 1186.13 403.903H2163.64C2171.36 403.903 2177.63 397.64 2177.63 389.914V364.158C2177.63 356.432 2171.36 350.169 2163.64 350.169Z" fill="#666666"/>
<path d="M798.562 228.562C777.083 228.562 761.236 232.572 749.094 239.125C749.041 239.153 748.99 239.19 748.938 239.219C730.891 248.21 721.58 261.931 715.031 276.656C700.52 304.41 692.918 335.751 659.219 345.75C657.905 346.14 656.597 346.497 655.281 346.875V393.094C656.598 393.473 657.904 393.86 659.219 394.25C723.966 413.462 672.156 511.438 798.562 511.438C799.298 511.438 800.09 511.405 800.875 511.376C802.302 511.405 803.742 511.438 805.219 511.438C835.433 511.438 908.325 485.813 936.406 485.813H1121.66C1149.74 485.813 1222.63 511.438 1252.84 511.438C1254.32 511.438 1255.76 511.404 1257.19 511.376C1257.97 511.406 1258.76 511.438 1259.5 511.438C1385.91 511.438 1334.1 413.462 1398.84 394.25C1400.16 393.86 1401.46 393.473 1402.78 393.094V346.875C1401.47 346.497 1400.16 346.14 1398.84 345.75C1365.14 335.751 1357.54 304.41 1343.03 276.656C1336.48 261.931 1327.17 248.21 1309.12 239.219C1309.07 239.19 1309.02 239.154 1308.97 239.125C1296.83 232.572 1280.98 228.562 1259.5 228.562C1258.78 228.562 1258.02 228.597 1257.25 228.625C1255.8 228.596 1254.34 228.562 1252.84 228.562C1222.63 228.562 1149.74 254.188 1121.66 254.188H936.406C908.325 254.188 835.433 228.562 805.219 228.562C803.721 228.562 802.26 228.597 800.812 228.625C800.046 228.596 799.286 228.562 798.562 228.562Z" fill="#D9BB7A" stroke="#565248"/>
<path d="M798.562 228.562C794.84 228.562 791.3 228.673 787.906 228.906V511.188C791.313 511.351 794.856 511.438 798.562 511.438C799.298 511.438 800.09 511.404 800.875 511.375C802.302 511.404 803.742 511.438 805.219 511.438C817.353 511.438 836.391 507.29 856.625 502.344V237.656C836.391 232.71 817.353 228.562 805.219 228.562C803.721 228.562 802.26 228.597 800.812 228.625C800.046 228.596 799.286 228.562 798.562 228.562Z" fill="#964B00" stroke="#986601"/>
<path d="M901.062 248.562V491.438C915.317 488.172 927.921 485.812 936.406 485.812H969.75V254.188H936.406C927.921 254.188 915.317 251.828 901.062 248.562Z" fill="black" stroke="#430086" stroke-width="0.99"/>
<path d="M1014.19 254.188V485.812H1082.88V254.188H1014.19Z" fill="#FF0000" stroke="#980101"/>
<path d="M1252.84 228.562C1246.36 228.562 1237.9 229.769 1228.34 231.625V508.375C1237.9 510.231 1246.36 511.438 1252.84 511.438C1254.32 511.438 1255.76 511.403 1257.19 511.375C1257.97 511.405 1258.76 511.438 1259.5 511.438C1274.3 511.438 1286.64 510.091 1297.03 507.688V234C1286.84 230.561 1274.57 228.562 1259.5 228.562C1258.78 228.562 1258.02 228.597 1257.25 228.625C1255.8 228.596 1254.34 228.562 1252.84 228.562Z" fill="#FFD700"/>
<path d="M754.243 618.653V688.471H737.402V634.403H736.993L721.379 643.948V629.357L738.595 618.653H754.243ZM784.848 674.732L784.916 654.857H787.234L801.961 636.107H820.848L798.961 662.971H794.564L784.848 674.732ZM769.814 688.471V618.653H786.484V688.471H769.814ZM802.336 688.471L788.632 666.721L799.609 654.891L821.598 688.471H802.336ZM847.439 688.471V618.653H876.28C881.507 618.653 886.018 619.596 889.814 621.482C893.632 623.346 896.575 626.028 898.643 629.528C900.711 633.005 901.745 637.13 901.745 641.903C901.745 646.743 900.689 650.857 898.575 654.243C896.461 657.607 893.461 660.175 889.575 661.948C885.689 663.698 881.086 664.573 875.768 664.573H857.53V651.278H872.632C875.177 651.278 877.302 650.948 879.007 650.289C880.734 649.607 882.041 648.584 882.927 647.221C883.814 645.834 884.257 644.062 884.257 641.903C884.257 639.743 883.814 637.959 882.927 636.55C882.041 635.118 880.734 634.05 879.007 633.346C877.28 632.618 875.155 632.255 872.632 632.255H864.314V688.471H847.439ZM886.745 656.562L904.132 688.471H885.723L868.677 656.562H886.745ZM934.447 689.459C928.97 689.459 924.243 688.38 920.265 686.221C916.311 684.039 913.265 680.937 911.129 676.914C909.015 672.868 907.959 668.062 907.959 662.493C907.959 657.084 909.027 652.357 911.163 648.312C913.299 644.243 916.311 641.084 920.197 638.834C924.084 636.562 928.663 635.425 933.936 635.425C937.663 635.425 941.072 636.005 944.163 637.164C947.254 638.323 949.924 640.039 952.174 642.312C954.424 644.584 956.174 647.391 957.424 650.732C958.674 654.05 959.299 657.857 959.299 662.153V666.312H913.788V656.63H943.788C943.765 654.857 943.345 653.278 942.527 651.891C941.709 650.505 940.584 649.425 939.152 648.653C937.743 647.857 936.118 647.459 934.277 647.459C932.413 647.459 930.743 647.88 929.265 648.721C927.788 649.539 926.618 650.664 925.754 652.096C924.89 653.505 924.436 655.107 924.39 656.903V666.755C924.39 668.891 924.811 670.766 925.652 672.38C926.493 673.971 927.686 675.209 929.231 676.096C930.777 676.982 932.618 677.425 934.754 677.425C936.231 677.425 937.572 677.221 938.777 676.812C939.981 676.403 941.015 675.8 941.879 675.005C942.743 674.209 943.39 673.232 943.822 672.073L959.129 672.516C958.493 675.948 957.095 678.937 954.936 681.482C952.799 684.005 949.993 685.971 946.515 687.38C943.038 688.766 939.015 689.459 934.447 689.459ZM1013.53 652.096L998.223 652.505C998.064 651.414 997.632 650.448 996.927 649.607C996.223 648.743 995.302 648.073 994.166 647.596C993.052 647.096 991.757 646.846 990.28 646.846C988.348 646.846 986.7 647.232 985.336 648.005C983.995 648.778 983.336 649.823 983.359 651.141C983.336 652.164 983.745 653.05 984.586 653.8C985.45 654.55 986.984 655.153 989.189 655.607L999.28 657.516C1004.51 658.516 1008.39 660.175 1010.94 662.493C1013.51 664.812 1014.8 667.88 1014.82 671.698C1014.8 675.289 1013.73 678.414 1011.62 681.073C1009.53 683.732 1006.67 685.8 1003.03 687.278C999.393 688.732 995.234 689.459 990.552 689.459C983.075 689.459 977.177 687.925 972.859 684.857C968.564 681.766 966.109 677.63 965.495 672.448L981.961 672.039C982.325 673.948 983.268 675.403 984.791 676.403C986.314 677.403 988.257 677.903 990.62 677.903C992.757 677.903 994.495 677.505 995.836 676.709C997.177 675.914 997.859 674.857 997.882 673.539C997.859 672.357 997.336 671.414 996.314 670.709C995.291 669.982 993.689 669.414 991.507 669.005L982.37 667.266C977.12 666.312 973.211 664.55 970.643 661.982C968.075 659.391 966.802 656.096 966.825 652.096C966.802 648.596 967.734 645.607 969.62 643.13C971.507 640.63 974.189 638.721 977.666 637.403C981.143 636.084 985.245 635.425 989.973 635.425C997.064 635.425 1002.65 636.914 1006.75 639.891C1010.84 642.846 1013.1 646.914 1013.53 652.096ZM1023.03 688.471V636.107H1039.7V688.471H1023.03ZM1031.38 630.005C1029.04 630.005 1027.03 629.232 1025.35 627.687C1023.67 626.118 1022.83 624.232 1022.83 622.028C1022.83 619.846 1023.67 617.982 1025.35 616.437C1027.03 614.868 1029.04 614.084 1031.38 614.084C1033.75 614.084 1035.76 614.868 1037.42 616.437C1039.1 617.982 1039.94 619.846 1039.94 622.028C1039.94 624.232 1039.1 626.118 1037.42 627.687C1035.76 629.232 1033.75 630.005 1031.38 630.005ZM1096.03 652.096L1080.72 652.505C1080.56 651.414 1080.13 650.448 1079.43 649.607C1078.72 648.743 1077.8 648.073 1076.67 647.596C1075.55 647.096 1074.26 646.846 1072.78 646.846C1070.85 646.846 1069.2 647.232 1067.84 648.005C1066.5 648.778 1065.84 649.823 1065.86 651.141C1065.84 652.164 1066.25 653.05 1067.09 653.8C1067.95 654.55 1069.48 655.153 1071.69 655.607L1081.78 657.516C1087.01 658.516 1090.89 660.175 1093.44 662.493C1096.01 664.812 1097.3 667.88 1097.32 671.698C1097.3 675.289 1096.23 678.414 1094.12 681.073C1092.03 683.732 1089.17 685.8 1085.53 687.278C1081.89 688.732 1077.73 689.459 1073.05 689.459C1065.57 689.459 1059.68 687.925 1055.36 684.857C1051.06 681.766 1048.61 677.63 1048 672.448L1064.46 672.039C1064.82 673.948 1065.77 675.403 1067.29 676.403C1068.81 677.403 1070.76 677.903 1073.12 677.903C1075.26 677.903 1077 677.505 1078.34 676.709C1079.68 675.914 1080.36 674.857 1080.38 673.539C1080.36 672.357 1079.84 671.414 1078.81 670.709C1077.79 669.982 1076.19 669.414 1074.01 669.005L1064.87 667.266C1059.62 666.312 1055.71 664.55 1053.14 661.982C1050.57 659.391 1049.3 656.096 1049.32 652.096C1049.3 648.596 1050.23 645.607 1052.12 643.13C1054.01 640.63 1056.69 638.721 1060.17 637.403C1063.64 636.084 1067.75 635.425 1072.47 635.425C1079.56 635.425 1085.15 636.914 1089.25 639.891C1093.34 642.846 1095.6 646.914 1096.03 652.096ZM1135.09 636.107V648.38H1102.06V636.107H1135.09ZM1108.98 623.562H1125.65V672.005C1125.65 673.028 1125.81 673.857 1126.12 674.493C1126.46 675.107 1126.95 675.55 1127.59 675.823C1128.23 676.073 1128.99 676.198 1129.87 676.198C1130.51 676.198 1131.18 676.141 1131.88 676.028C1132.61 675.891 1133.16 675.778 1133.52 675.687L1136.04 687.721C1135.25 687.948 1134.12 688.232 1132.67 688.573C1131.24 688.914 1129.52 689.13 1127.52 689.221C1123.61 689.403 1120.26 688.948 1117.46 687.857C1114.69 686.743 1112.57 685.016 1111.09 682.675C1109.63 680.334 1108.93 677.391 1108.98 673.846V623.562ZM1167.48 689.459C1161.98 689.459 1157.25 688.334 1153.29 686.084C1149.36 683.812 1146.33 680.653 1144.19 676.607C1142.08 672.539 1141.02 667.823 1141.02 662.459C1141.02 657.073 1142.08 652.357 1144.19 648.312C1146.33 644.243 1149.36 641.084 1153.29 638.834C1157.25 636.562 1161.98 635.425 1167.48 635.425C1172.98 635.425 1177.69 636.562 1181.62 638.834C1185.58 641.084 1188.61 644.243 1190.73 648.312C1192.86 652.357 1193.93 657.073 1193.93 662.459C1193.93 667.823 1192.86 672.539 1190.73 676.607C1188.61 680.653 1185.58 683.812 1181.62 686.084C1177.69 688.334 1172.98 689.459 1167.48 689.459ZM1167.58 676.88C1169.58 676.88 1171.27 676.266 1172.66 675.039C1174.04 673.812 1175.1 672.107 1175.83 669.925C1176.58 667.743 1176.95 665.221 1176.95 662.357C1176.95 659.448 1176.58 656.903 1175.83 654.721C1175.1 652.539 1174.04 650.834 1172.66 649.607C1171.27 648.38 1169.58 647.766 1167.58 647.766C1165.51 647.766 1163.76 648.38 1162.33 649.607C1160.92 650.834 1159.84 652.539 1159.09 654.721C1158.36 656.903 1158 659.448 1158 662.357C1158 665.221 1158.36 667.743 1159.09 669.925C1159.84 672.107 1160.92 673.812 1162.33 675.039C1163.76 676.266 1165.51 676.88 1167.58 676.88ZM1202.47 688.471V636.107H1218.66V645.653H1219.21C1220.16 642.198 1221.72 639.63 1223.88 637.948C1226.04 636.243 1228.55 635.391 1231.41 635.391C1232.19 635.391 1232.98 635.448 1233.8 635.562C1234.62 635.653 1235.38 635.8 1236.08 636.005V650.493C1235.29 650.221 1234.24 650.005 1232.95 649.846C1231.67 649.687 1230.54 649.607 1229.54 649.607C1227.56 649.607 1225.78 650.05 1224.19 650.937C1222.62 651.8 1221.38 653.016 1220.47 654.584C1219.58 656.13 1219.14 657.948 1219.14 660.039V688.471H1202.47Z" fill="black"/>
</g>
<defs>
<clipPath id="clip0_40_38">
<rect width="2160" height="1080" fill="white"/>
</clipPath>
</defs>
</svg>
