<svg width="500" height="900" viewBox="0 0 500 900" fill="none" xmlns="http://www.w3.org/2000/svg">
<mask id="mask0_103_108" style="mask-type:luminance" maskUnits="userSpaceOnUse" x="21" y="0" width="452" height="898">
<path d="M472.261 7.62939e-06H21.7391V897.456H472.261V7.62939e-06Z" fill="white"/>
</mask>
<g mask="url(#mask0_103_108)">
<path d="M244.147 0.195654C189.237 0.266741 134.347 0.493431 79.4403 5.03361C79.4403 5.03361 25.0412 7.60983 21.8742 35.3662C21.8742 35.3662 21.1193 74.6133 23.1788 130.225L21.8742 853.291C23.1734 888.378 52.3985 895.128 151.031 895.911L245.015 897.593V897.652H246.103H247.245V897.593L341.177 895.911C439.812 895.128 469.036 888.378 470.334 853.291L469.029 130.225C471.089 74.6159 470.334 35.3662 470.334 35.3662C467.167 7.61035 412.822 5.03361 412.822 5.03361C357.911 0.493302 302.97 0.26661 248.057 0.195654C246.753 0.193971 245.451 0.197193 244.147 0.195654Z" fill="black"/>
<path d="M453.318 73H41V801.609H453.318V73Z" fill="#FFFEFE"/>
<path d="M256.96 41.9999C256.96 48.6262 251.589 53.9977 244.963 53.9977C238.336 53.9977 232.965 48.6262 232.965 41.9999C232.965 35.3737 238.336 30.0022 244.963 30.0022C251.589 30.0022 256.96 35.3737 256.96 41.9999Z" fill="url(#paint0_linear_103_108)"/>
<path d="M256.96 41.6934C256.96 48.3196 251.589 53.6911 244.963 53.6911C238.336 53.6911 232.965 48.3196 232.965 41.6934C232.965 35.0673 238.336 29.6957 244.963 29.6957C251.589 29.6957 256.96 35.0673 256.96 41.6934Z" fill="url(#paint1_linear_103_108)"/>
<path d="M100.209 42.201C100.209 45.5887 97.4624 48.3348 94.075 48.3348C90.6876 48.3348 87.9413 45.5887 87.9413 42.201C87.9413 38.8133 90.6876 36.0672 94.075 36.0672C97.4624 36.0672 100.209 38.8133 100.209 42.201Z" fill="url(#paint2_linear_103_108)"/>
<path d="M100.293 42.1945C100.293 45.5821 97.5478 48.3283 94.1598 48.3283C90.7724 48.3283 88.0261 45.5821 88.0261 42.1945C88.0261 38.8069 90.7724 36.0607 94.1598 36.0607C97.5478 36.0607 100.293 38.8069 100.293 42.1945Z" fill="url(#paint3_linear_103_108)"/>
<path d="M96.5259 42.3161C96.5259 43.7958 95.3611 44.9952 93.9243 44.9952C92.4876 44.9952 91.3228 43.7958 91.3228 42.3161C91.3228 40.8365 92.4876 39.637 93.9243 39.637C95.3611 39.637 96.5259 40.8365 96.5259 42.3161Z" fill="#6378FF"/>
<path d="M470.138 112.943V170.408" stroke="#5A5A5A" stroke-width="4.17476"/>
<path d="M253.76 42.0229C253.76 46.8263 249.866 50.7201 245.062 50.7201C240.258 50.7201 236.364 46.8263 236.364 42.0229C236.364 37.2196 240.258 33.3257 245.062 33.3257C249.866 33.3257 253.76 37.2196 253.76 42.0229Z" fill="#3D3D3D"/>
<path d="M353.679 764.935L383.794 765.046V777.978M106.497 771.228L112.11 778.904M112.218 764.661L106.449 771.202L138.093 771.509C146.533 771.633 143.4 784.852 137.985 783.47L122.655 783.58M344.547 771.02H376.075L375.749 783.091H344.764L344.547 771.02ZM223.112 784.722L263.99 784.937L264.207 772.22L243.66 764.283L223.547 772.761L223.112 784.722Z" stroke="white" stroke-width="1.73948"/>
<path d="M356.073 93.8218C357.468 93.5498 357.722 93.6046 358.464 93.8218" stroke="white" stroke-width="1.73948"/>
<path d="M353.086 90.3456C355.297 88.0083 359.681 88.2802 361.674 90.2367" stroke="white" stroke-width="1.73948"/>
<path d="M349.877 87.0457C354.697 82.8059 360.386 82.9141 364.609 87.1004" stroke="white" stroke-width="1.73948"/>
<path d="M347.132 83.4C353.147 77.5839 362.859 78.2902 367.625 83.0739" stroke="white" stroke-width="1.73948"/>
<path d="M368.36 96.2152L368.306 93.6059L371.513 91.7576L371.459 96.2152H368.36Z" fill="#F6F6F6"/>
<path d="M372.925 96.1044L373.142 89.2011L375.697 87.2987V96.2681L372.925 96.1044Z" fill="#F6F6F6"/>
<path d="M377.412 96.1044L377.629 84.7702L380.184 82.8678V96.2674L377.412 96.1044Z" fill="#F6F6F6"/>
<path d="M381.788 96.0783L382.018 80.8852L384.724 78.9828V96.242L381.788 96.0783Z" fill="#F6F6F6"/>
<path d="M391.681 95.7261H402.444V79.7987H398.857V78.1135H395.106V79.7446H391.627L391.681 95.7261Z" fill="#F6F6F6"/>
<mask id="mask1_103_108" style="mask-type:luminance" maskUnits="userSpaceOnUse" x="35" y="-144" width="653" height="327">
<path d="M687.886 -143.478H35.7121V182.609H687.886V-143.478Z" fill="white"/>
</mask>
<g mask="url(#mask1_103_108)">
<path d="M68.6294 163.239V149.01H74.3267C75.3735 149.01 76.2466 149.165 76.946 149.476C77.6454 149.785 78.1712 150.217 78.5232 150.768C78.8752 151.314 79.0513 151.944 79.0513 152.658C79.0513 153.213 78.9401 153.702 78.7177 154.124C78.4954 154.54 78.1897 154.883 77.8006 155.152C77.4162 155.416 76.9761 155.603 76.4805 155.714V155.853C77.0225 155.877 77.5297 156.029 78.0021 156.312C78.4792 156.595 78.866 156.991 79.1624 157.5C79.4589 158.005 79.607 158.607 79.607 159.307C79.607 160.062 79.4195 160.735 79.0443 161.328C78.6737 161.917 78.1249 162.382 77.3976 162.725C76.6704 163.068 75.7742 163.239 74.7088 163.239H68.6294ZM71.6379 160.78H74.0904C74.9288 160.78 75.5402 160.62 75.9247 160.3C76.3091 159.976 76.5014 159.545 76.5014 159.008C76.5014 158.614 76.4064 158.267 76.2165 157.966C76.0266 157.664 75.7556 157.428 75.4036 157.257C75.0562 157.086 74.6417 157 74.16 157H71.6379V160.78ZM71.6379 154.964H73.8681C74.2804 154.964 74.6463 154.893 74.9659 154.749C75.2901 154.6 75.5449 154.392 75.7301 154.124C75.92 153.855 76.015 153.533 76.015 153.158C76.015 152.644 75.8321 152.229 75.4661 151.914C75.1048 151.599 74.5907 151.441 73.9237 151.441H71.6379V154.964ZM85.0558 149.01V163.239H82.096V149.01H85.0558ZM94.8576 158.695V152.567H97.8172V163.239H94.9757V161.301H94.8641C94.6235 161.926 94.223 162.428 93.6622 162.808C93.1065 163.188 92.4276 163.378 91.6267 163.378C90.9133 163.378 90.2859 163.216 89.7439 162.892C89.202 162.567 88.778 162.106 88.4722 161.509C88.1715 160.912 88.0183 160.196 88.0137 159.362V152.567H90.9733V158.834C90.9778 159.464 91.1474 159.962 91.4807 160.328C91.8139 160.694 92.2613 160.877 92.8215 160.877C93.1783 160.877 93.5115 160.796 93.822 160.634C94.1324 160.467 94.3828 160.222 94.5726 159.897C94.767 159.573 94.8622 159.172 94.8576 158.695ZM105.635 163.448C104.537 163.448 103.592 163.225 102.8 162.781C102.013 162.331 101.406 161.697 100.98 160.877C100.554 160.053 100.341 159.078 100.341 157.952C100.341 156.854 100.554 155.89 100.98 155.062C101.406 154.233 102.006 153.586 102.78 153.123C103.558 152.66 104.47 152.428 105.517 152.428C106.221 152.428 106.877 152.542 107.483 152.768C108.095 152.991 108.628 153.327 109.082 153.776C109.54 154.225 109.897 154.79 110.151 155.471C110.406 156.147 110.533 156.94 110.533 157.848V158.66H101.522V156.826H107.747C107.747 156.4 107.655 156.023 107.469 155.693C107.284 155.365 107.027 155.108 106.698 154.923C106.374 154.733 105.997 154.638 105.566 154.638C105.116 154.638 104.718 154.742 104.371 154.95C104.028 155.154 103.759 155.43 103.565 155.777C103.37 156.12 103.271 156.502 103.266 156.923V158.667C103.266 159.196 103.363 159.652 103.558 160.036C103.757 160.42 104.037 160.717 104.398 160.925C104.76 161.134 105.188 161.238 105.684 161.238C106.012 161.238 106.314 161.192 106.587 161.099C106.86 161.007 107.094 160.868 107.289 160.683C107.483 160.497 107.632 160.27 107.733 160.001L110.471 160.182C110.332 160.84 110.047 161.414 109.616 161.905C109.19 162.391 108.639 162.772 107.962 163.045C107.291 163.313 106.515 163.448 105.635 163.448ZM118.728 152.567V154.79H112.301V152.567H118.728ZM113.76 150.01H116.72V159.96C116.72 160.233 116.762 160.446 116.846 160.599C116.928 160.747 117.045 160.852 117.193 160.912C117.346 160.972 117.522 161.002 117.721 161.002C117.86 161.002 117.999 160.99 118.138 160.967C118.277 160.94 118.383 160.919 118.457 160.904L118.923 163.107C118.775 163.154 118.566 163.207 118.297 163.267C118.029 163.332 117.703 163.371 117.318 163.385C116.604 163.413 115.979 163.318 115.442 163.1C114.909 162.882 114.495 162.545 114.198 162.086C113.902 161.627 113.756 161.048 113.76 160.349V150.01ZM125.951 163.448C124.871 163.448 123.938 163.218 123.15 162.76C122.368 162.297 121.763 161.652 121.337 160.828C120.911 159.999 120.698 159.038 120.698 157.945C120.698 156.843 120.911 155.879 121.337 155.054C121.763 154.225 122.368 153.582 123.15 153.123C123.938 152.66 124.871 152.428 125.951 152.428C127.029 152.428 127.961 152.66 128.743 153.123C129.531 153.582 130.138 154.225 130.564 155.054C130.99 155.879 131.203 156.843 131.203 157.945C131.203 159.038 130.99 159.999 130.564 160.828C130.138 161.652 129.531 162.297 128.743 162.76C127.961 163.218 127.029 163.448 125.951 163.448ZM125.964 161.155C126.455 161.155 126.865 161.016 127.194 160.738C127.523 160.456 127.771 160.071 127.938 159.584C128.109 159.098 128.195 158.545 128.195 157.924C128.195 157.303 128.109 156.75 127.938 156.263C127.771 155.777 127.523 155.393 127.194 155.11C126.865 154.827 126.455 154.687 125.964 154.687C125.469 154.687 125.052 154.827 124.713 155.11C124.38 155.393 124.128 155.777 123.956 156.263C123.789 156.75 123.707 157.303 123.707 157.924C123.707 158.545 123.789 159.098 123.956 159.584C124.128 160.071 124.38 160.456 124.713 160.738C125.052 161.016 125.469 161.155 125.964 161.155ZM138.536 163.448C137.457 163.448 136.524 163.218 135.737 162.76C134.953 162.297 134.349 161.652 133.923 160.828C133.497 159.999 133.284 159.038 133.284 157.945C133.284 156.843 133.497 155.879 133.923 155.054C134.349 154.225 134.953 153.582 135.737 153.123C136.524 152.66 137.457 152.428 138.536 152.428C139.616 152.428 140.546 152.66 141.33 153.123C142.117 153.582 142.724 154.225 143.15 155.054C143.576 155.879 143.789 156.843 143.789 157.945C143.789 159.038 143.576 159.999 143.15 160.828C142.724 161.652 142.117 162.297 141.33 162.76C140.546 163.218 139.616 163.448 138.536 163.448ZM138.55 161.155C139.041 161.155 139.451 161.016 139.78 160.738C140.109 160.456 140.357 160.071 140.523 159.584C140.695 159.098 140.78 158.545 140.78 157.924C140.78 157.303 140.695 156.75 140.523 156.263C140.357 155.777 140.109 155.393 139.78 155.11C139.451 154.827 139.041 154.687 138.55 154.687C138.054 154.687 137.638 154.827 137.3 155.11C136.966 155.393 136.713 155.777 136.543 156.263C136.376 156.75 136.292 157.303 136.292 157.924C136.292 158.545 136.376 159.098 136.543 159.584C136.713 160.071 136.966 160.456 137.3 160.738C137.638 161.016 138.054 161.155 138.55 161.155ZM151.977 152.567V154.79H145.55V152.567H151.977ZM147.009 150.01H149.969V159.96C149.969 160.233 150.011 160.446 150.094 160.599C150.178 160.747 150.293 160.852 150.442 160.912C150.594 160.972 150.77 161.002 150.969 161.002C151.108 161.002 151.247 160.99 151.386 160.967C151.525 160.94 151.632 160.919 151.706 160.904L152.171 163.107C152.023 163.154 151.815 163.207 151.546 163.267C151.277 163.332 150.951 163.371 150.566 163.385C149.853 163.413 149.228 163.318 148.691 163.1C148.158 162.882 147.743 162.545 147.447 162.086C147.15 161.627 147.005 161.048 147.009 160.349V150.01ZM157.681 157.07V163.239H154.721V149.01H157.597V154.45H157.723C157.963 153.82 158.353 153.327 158.89 152.97C159.427 152.609 160.101 152.428 160.912 152.428C161.653 152.428 162.299 152.59 162.85 152.915C163.406 153.234 163.837 153.695 164.143 154.297C164.453 154.895 164.606 155.611 164.601 156.444V163.239H161.642V156.972C161.646 156.314 161.479 155.802 161.141 155.437C160.807 155.071 160.34 154.888 159.738 154.888C159.335 154.888 158.978 154.973 158.668 155.145C158.362 155.317 158.121 155.566 157.945 155.895C157.773 156.219 157.685 156.611 157.681 157.07ZM180.407 153.102C180.352 152.542 180.113 152.107 179.692 151.796C179.27 151.486 178.698 151.33 177.975 151.33C177.484 151.33 177.07 151.4 176.732 151.539C176.394 151.673 176.134 151.861 175.953 152.102C175.777 152.343 175.689 152.616 175.689 152.922C175.68 153.176 175.734 153.398 175.849 153.588C175.97 153.779 176.134 153.943 176.343 154.082C176.551 154.216 176.792 154.334 177.065 154.436C177.339 154.533 177.63 154.617 177.941 154.687L179.219 154.992C179.84 155.131 180.41 155.317 180.928 155.548C181.447 155.78 181.896 156.065 182.276 156.402C182.656 156.74 182.95 157.139 183.159 157.597C183.371 158.056 183.48 158.582 183.485 159.175C183.48 160.045 183.258 160.801 182.818 161.44C182.383 162.074 181.753 162.567 180.928 162.92C180.108 163.267 179.12 163.441 177.962 163.441C176.813 163.441 175.813 163.265 174.96 162.912C174.112 162.561 173.45 162.039 172.973 161.349C172.5 160.655 172.252 159.795 172.23 158.772H175.141C175.173 159.248 175.31 159.647 175.55 159.967C175.796 160.282 176.122 160.52 176.53 160.683C176.943 160.84 177.408 160.919 177.927 160.919C178.436 160.919 178.878 160.844 179.254 160.696C179.634 160.548 179.928 160.342 180.137 160.078C180.345 159.814 180.449 159.511 180.449 159.168C180.449 158.848 180.354 158.579 180.164 158.362C179.979 158.144 179.705 157.958 179.344 157.806C178.987 157.653 178.55 157.514 178.031 157.389L176.482 157C175.282 156.708 174.335 156.252 173.64 155.632C172.945 155.011 172.6 154.175 172.605 153.123C172.6 152.262 172.83 151.508 173.293 150.865C173.76 150.221 174.402 149.718 175.217 149.357C176.032 148.996 176.958 148.816 177.996 148.816C179.053 148.816 179.974 148.996 180.761 149.357C181.554 149.718 182.169 150.221 182.61 150.865C183.05 151.508 183.277 152.255 183.29 153.102H180.407ZM190.903 163.448C189.806 163.448 188.861 163.225 188.069 162.781C187.281 162.331 186.675 161.697 186.249 160.877C185.822 160.053 185.61 159.078 185.61 157.952C185.61 156.854 185.822 155.89 186.249 155.062C186.675 154.233 187.275 153.586 188.048 153.123C188.826 152.66 189.738 152.428 190.785 152.428C191.49 152.428 192.145 152.542 192.752 152.768C193.363 152.991 193.896 153.327 194.35 153.776C194.808 154.225 195.165 154.79 195.42 155.471C195.675 156.147 195.802 156.94 195.802 157.848V158.66H186.791V156.826H193.016C193.016 156.4 192.923 156.023 192.738 155.693C192.553 155.365 192.296 155.108 191.966 154.923C191.642 154.733 191.265 154.638 190.834 154.638C190.385 154.638 189.986 154.742 189.639 154.95C189.296 155.154 189.028 155.43 188.833 155.777C188.638 156.12 188.539 156.502 188.535 156.923V158.667C188.535 159.196 188.632 159.652 188.826 160.036C189.025 160.42 189.305 160.717 189.667 160.925C190.028 161.134 190.457 161.238 190.952 161.238C191.281 161.238 191.582 161.192 191.855 161.099C192.129 161.007 192.363 160.868 192.557 160.683C192.752 160.497 192.9 160.27 193.002 160.001L195.739 160.182C195.6 160.84 195.315 161.414 194.885 161.905C194.458 162.391 193.907 162.772 193.231 163.045C192.56 163.313 191.784 163.448 190.903 163.448ZM203.997 152.567V154.79H197.57V152.567H203.997ZM199.029 150.01H201.989V159.96C201.989 160.233 202.031 160.446 202.114 160.599C202.197 160.747 202.313 160.852 202.461 160.912C202.614 160.972 202.79 161.002 202.989 161.002C203.128 161.002 203.267 160.99 203.406 160.967C203.545 160.94 203.651 160.919 203.726 160.904L204.191 163.107C204.043 163.154 203.835 163.207 203.566 163.267C203.297 163.332 202.97 163.371 202.586 163.385C201.873 163.413 201.247 163.318 200.711 163.1C200.178 162.882 199.763 162.545 199.467 162.086C199.17 161.627 199.024 161.048 199.029 160.349V150.01ZM212.188 152.567V154.79H205.761V152.567H212.188ZM207.221 150.01H210.18V159.96C210.18 160.233 210.222 160.446 210.305 160.599C210.389 160.747 210.504 160.852 210.652 160.912C210.806 160.972 210.982 161.002 211.181 161.002C211.32 161.002 211.458 160.99 211.597 160.967C211.736 160.94 211.843 160.919 211.917 160.904L212.383 163.107C212.235 163.154 212.026 163.207 211.757 163.267C211.488 163.332 211.162 163.371 210.778 163.385C210.064 163.413 209.439 163.318 208.902 163.1C208.369 162.882 207.954 162.545 207.658 162.086C207.362 161.627 207.215 161.048 207.221 160.349V150.01ZM214.703 163.239V152.567H217.663V163.239H214.703ZM216.19 151.192C215.75 151.192 215.372 151.045 215.057 150.754C214.747 150.457 214.592 150.103 214.592 149.691C214.592 149.283 214.747 148.934 215.057 148.642C215.372 148.345 215.75 148.197 216.19 148.197C216.63 148.197 217.005 148.345 217.316 148.642C217.631 148.934 217.788 149.283 217.788 149.691C217.788 150.103 217.631 150.457 217.316 150.754C217.005 151.045 216.63 151.192 216.19 151.192ZM223.58 157.07V163.239H220.621V152.567H223.442V154.45H223.567C223.803 153.83 224.199 153.338 224.755 152.977C225.311 152.611 225.984 152.428 226.777 152.428C227.518 152.428 228.164 152.59 228.715 152.915C229.266 153.239 229.695 153.702 230 154.304C230.306 154.902 230.459 155.615 230.459 156.444V163.239H227.499V156.972C227.504 156.319 227.337 155.81 226.999 155.444C226.661 155.073 226.195 154.888 225.602 154.888C225.204 154.888 224.852 154.973 224.546 155.145C224.245 155.317 224.009 155.566 223.837 155.895C223.671 156.219 223.585 156.611 223.58 157.07ZM238.187 167.463C237.228 167.463 236.405 167.332 235.72 167.067C235.039 166.808 234.497 166.454 234.094 166.004C233.691 165.555 233.43 165.05 233.309 164.49L236.047 164.122C236.13 164.335 236.262 164.534 236.443 164.719C236.623 164.904 236.862 165.053 237.158 165.164C237.459 165.28 237.825 165.337 238.256 165.337C238.9 165.337 239.43 165.18 239.847 164.865C240.269 164.555 240.48 164.033 240.48 163.302V161.349H240.354C240.225 161.646 240.03 161.926 239.771 162.19C239.511 162.454 239.178 162.669 238.77 162.836C238.363 163.003 237.876 163.087 237.311 163.087C236.51 163.087 235.781 162.901 235.123 162.53C234.47 162.155 233.949 161.583 233.559 160.814C233.175 160.041 232.983 159.063 232.983 157.882C232.983 156.674 233.18 155.663 233.573 154.853C233.967 154.042 234.491 153.436 235.143 153.033C235.801 152.63 236.522 152.428 237.304 152.428C237.902 152.428 238.402 152.53 238.805 152.734C239.208 152.933 239.532 153.183 239.778 153.485C240.028 153.781 240.22 154.073 240.354 154.36H240.465V152.567H243.405V163.343C243.405 164.251 243.182 165.011 242.737 165.622C242.293 166.234 241.677 166.692 240.889 166.998C240.107 167.308 239.206 167.463 238.187 167.463ZM238.249 160.863C238.727 160.863 239.129 160.745 239.458 160.508C239.792 160.268 240.047 159.925 240.223 159.48C240.403 159.031 240.493 158.494 240.493 157.868C240.493 157.243 240.405 156.701 240.229 156.243C240.053 155.78 239.799 155.42 239.465 155.166C239.132 154.911 238.727 154.784 238.249 154.784C237.763 154.784 237.353 154.915 237.019 155.18C236.686 155.439 236.433 155.8 236.262 156.263C236.09 156.727 236.005 157.262 236.005 157.868C236.005 158.485 236.09 159.017 236.262 159.466C236.438 159.911 236.69 160.256 237.019 160.502C237.353 160.743 237.763 160.863 238.249 160.863Z" fill="black"/>
</g>
<path d="M364.522 309.739C364.522 313.341 368.124 303.043 364.522 303.043C360.92 303.043 358 300.124 358 296.522C358 292.92 360.92 290 364.522 290C368.124 290 364.522 306.137 364.522 309.739Z" fill="white"/>
<path d="M41.3044 331.957H452.174" stroke="#EEEEEE" stroke-width="1.30435"/>
<path d="M64.1003 358.696H61.349L66.3584 344.467H69.5406L74.5569 358.696H71.8056L68.0051 347.384H67.8939L64.1003 358.696ZM64.1907 353.116H71.6944V355.187H64.1907V353.116ZM85.1019 348.023L81.3014 358.696H78.5222L74.7218 348.023H77.4036L79.8563 355.951H79.9674L82.427 348.023H85.1019ZM90.1946 358.911C89.5183 358.911 88.9091 358.791 88.3672 358.55C87.8298 358.304 87.4039 357.943 87.0889 357.466C86.7785 356.989 86.6233 356.401 86.6233 355.701C86.6233 355.099 86.7345 354.601 86.9565 354.207C87.1789 353.813 87.4828 353.498 87.867 353.262C88.2518 353.026 88.6848 352.848 89.1661 352.728C89.6526 352.602 90.1555 352.512 90.6739 352.456C91.2994 352.392 91.8068 352.334 92.1955 352.283C92.5848 352.227 92.8672 352.144 93.0433 352.032C93.2239 351.917 93.3139 351.738 93.3139 351.498V351.456C93.3139 350.933 93.1587 350.527 92.8489 350.24C92.5385 349.953 92.0911 349.809 91.5074 349.809C90.8918 349.809 90.4033 349.943 90.042 350.212C89.6852 350.481 89.4439 350.798 89.3194 351.164L86.9709 350.83C87.1561 350.182 87.462 349.64 87.8878 349.205C88.3137 348.765 88.8348 348.436 89.4511 348.218C90.0674 347.996 90.7483 347.885 91.4937 347.885C92.0076 347.885 92.5196 347.945 93.0296 348.065C93.5389 348.186 94.0046 348.385 94.4259 348.663C94.8472 348.937 95.1857 349.309 95.44 349.782C95.6996 350.254 95.8294 350.845 95.8294 351.553V358.696H93.4111V357.23H93.3283C93.175 357.526 92.9598 357.804 92.682 358.064C92.4087 358.318 92.0637 358.524 91.647 358.682C91.2342 358.835 90.7502 358.911 90.1946 358.911ZM90.8474 357.063C91.3528 357.063 91.7905 356.963 92.1609 356.764C92.5313 356.56 92.8163 356.292 93.0152 355.958C93.2194 355.625 93.3211 355.261 93.3211 354.867V353.61C93.2422 353.675 93.1078 353.735 92.9181 353.791C92.7328 353.846 92.5242 353.894 92.2926 353.936C92.0611 353.978 91.8322 354.015 91.6052 354.048C91.3783 354.08 91.1813 354.108 91.0144 354.131C90.6394 354.182 90.3035 354.265 90.0068 354.381C89.7107 354.497 89.4765 354.659 89.305 354.867C89.1341 355.071 89.0481 355.335 89.0481 355.659C89.0481 356.123 89.217 356.472 89.5555 356.708C89.8933 356.945 90.3244 357.063 90.8474 357.063ZM98.9455 358.696V348.023H101.46V358.696H98.9455ZM100.21 346.509C99.8115 346.509 99.4685 346.377 99.1815 346.113C98.8946 345.845 98.7505 345.522 98.7505 345.147C98.7505 344.767 98.8946 344.446 99.1815 344.182C99.4685 343.913 99.8115 343.778 100.21 343.778C100.613 343.778 100.955 343.913 101.238 344.182C101.525 344.446 101.669 344.767 101.669 345.147C101.669 345.522 101.525 345.845 101.238 346.113C100.955 346.377 100.613 346.509 100.21 346.509ZM107.149 344.467V358.696H104.634V344.467H107.149ZM113.393 358.911C112.717 358.911 112.108 358.791 111.566 358.55C111.028 358.304 110.602 357.943 110.287 357.466C109.977 356.989 109.822 356.401 109.822 355.701C109.822 355.099 109.933 354.601 110.156 354.207C110.377 353.813 110.681 353.498 111.065 353.262C111.45 353.026 111.883 352.848 112.365 352.728C112.851 352.602 113.354 352.512 113.872 352.456C114.498 352.392 115.005 352.334 115.394 352.283C115.783 352.227 116.066 352.144 116.242 352.032C116.422 351.917 116.512 351.738 116.512 351.498V351.456C116.512 350.933 116.357 350.527 116.047 350.24C115.737 349.953 115.29 349.809 114.707 349.809C114.09 349.809 113.602 349.943 113.24 350.212C112.884 350.481 112.642 350.798 112.518 351.164L110.169 350.83C110.355 350.182 110.66 349.64 111.086 349.205C111.513 348.765 112.034 348.436 112.65 348.218C113.266 347.996 113.947 347.885 114.692 347.885C115.207 347.885 115.718 347.945 116.228 348.065C116.737 348.186 117.203 348.385 117.624 348.663C118.046 348.937 118.384 349.309 118.638 349.782C118.898 350.254 119.028 350.845 119.028 351.553V358.696H116.61V357.23H116.527C116.373 357.526 116.158 357.804 115.88 358.064C115.607 358.318 115.262 358.524 114.845 358.682C114.433 358.835 113.949 358.911 113.393 358.911ZM114.046 357.063C114.551 357.063 114.989 356.963 115.359 356.764C115.73 356.56 116.015 356.292 116.214 355.958C116.418 355.625 116.52 355.261 116.52 354.867V353.61C116.441 353.675 116.306 353.735 116.117 353.791C115.931 353.846 115.723 353.894 115.491 353.936C115.26 353.978 115.031 354.015 114.804 354.048C114.577 354.08 114.38 354.108 114.213 354.131C113.838 354.182 113.502 354.265 113.205 354.381C112.909 354.497 112.675 354.659 112.503 354.867C112.333 355.071 112.247 355.335 112.247 355.659C112.247 356.123 112.415 356.472 112.754 356.708C113.092 356.945 113.523 357.063 114.046 357.063ZM122.255 358.696V344.467H124.77V349.788H124.875C125.004 349.529 125.187 349.253 125.423 348.962C125.659 348.665 125.979 348.413 126.382 348.204C126.785 347.992 127.299 347.885 127.924 347.885C128.749 347.885 129.493 348.095 130.155 348.517C130.822 348.934 131.35 349.552 131.739 350.372C132.133 351.187 132.33 352.188 132.33 353.373C132.33 354.545 132.137 355.541 131.752 356.361C131.368 357.181 130.845 357.806 130.183 358.237C129.52 358.668 128.77 358.883 127.931 358.883C127.32 358.883 126.813 358.781 126.41 358.578C126.007 358.373 125.683 358.128 125.437 357.841C125.196 357.549 125.009 357.274 124.875 357.014H124.728V358.696H122.255ZM124.721 353.36C124.721 354.05 124.818 354.654 125.013 355.173C125.212 355.692 125.497 356.097 125.868 356.389C126.243 356.676 126.697 356.82 127.23 356.82C127.785 356.82 128.251 356.671 128.626 356.375C129.002 356.074 129.284 355.664 129.474 355.145C129.668 354.622 129.766 354.027 129.766 353.36C129.766 352.698 129.671 352.109 129.481 351.595C129.291 351.081 129.008 350.678 128.633 350.386C128.258 350.094 127.79 349.948 127.23 349.948C126.692 349.948 126.236 350.09 125.861 350.372C125.486 350.654 125.201 351.051 125.006 351.56C124.817 352.07 124.721 352.67 124.721 353.36ZM137.57 344.467V358.696H135.054V344.467H137.57ZM145.468 358.904C144.397 358.904 143.473 358.682 142.695 358.237C141.922 357.788 141.326 357.153 140.91 356.333C140.493 355.509 140.284 354.539 140.284 353.422C140.284 352.325 140.493 351.361 140.91 350.532C141.332 349.698 141.92 349.05 142.674 348.586C143.43 348.119 144.317 347.885 145.335 347.885C145.993 347.885 146.614 347.992 147.198 348.204C147.786 348.413 148.305 348.737 148.754 349.177C149.208 349.617 149.565 350.178 149.824 350.858C150.083 351.535 150.213 352.341 150.213 353.276V354.048H141.466V352.352H147.802C147.797 351.871 147.693 351.442 147.489 351.067C147.286 350.687 147.001 350.388 146.635 350.17C146.274 349.953 145.852 349.844 145.37 349.844C144.856 349.844 144.405 349.969 144.015 350.219C143.627 350.465 143.323 350.789 143.105 351.192C142.892 351.59 142.783 352.028 142.779 352.505V353.985C142.779 354.606 142.892 355.138 143.119 355.583C143.346 356.023 143.664 356.361 144.071 356.598C144.479 356.829 144.956 356.945 145.502 356.945C145.868 356.945 146.199 356.894 146.496 356.792C146.792 356.686 147.049 356.53 147.267 356.326C147.485 356.123 147.649 355.87 147.76 355.569L150.108 355.833C149.96 356.453 149.678 356.995 149.261 357.459C148.849 357.918 148.321 358.274 147.677 358.529C147.033 358.779 146.297 358.904 145.468 358.904ZM163.301 358.696H158.479V344.467H163.398C164.81 344.467 166.024 344.752 167.039 345.321C168.058 345.886 168.84 346.699 169.387 347.76C169.934 348.82 170.207 350.09 170.207 351.567C170.207 353.049 169.931 354.323 169.38 355.388C168.834 356.453 168.044 357.271 167.011 357.841C165.982 358.411 164.746 358.696 163.301 358.696ZM161.057 356.465H163.175C164.167 356.465 164.994 356.285 165.656 355.923C166.318 355.557 166.817 355.013 167.15 354.291C167.483 353.564 167.65 352.656 167.65 351.567C167.65 350.479 167.483 349.576 167.15 348.858C166.817 348.135 166.323 347.595 165.67 347.239C165.022 346.878 164.216 346.697 163.252 346.697H161.057V356.465ZM177.857 358.904C176.786 358.904 175.862 358.682 175.084 358.237C174.311 357.788 173.715 357.153 173.298 356.333C172.882 355.509 172.673 354.539 172.673 353.422C172.673 352.325 172.882 351.361 173.298 350.532C173.72 349.698 174.308 349.05 175.063 348.586C175.819 348.119 176.705 347.885 177.724 347.885C178.382 347.885 179.003 347.992 179.586 348.204C180.174 348.413 180.693 348.737 181.143 349.177C181.597 349.617 181.954 350.178 182.212 350.858C182.472 351.535 182.602 352.341 182.602 353.276V354.048H173.854V352.352H180.191C180.186 351.871 180.082 351.442 179.878 351.067C179.674 350.687 179.39 350.388 179.024 350.17C178.663 349.953 178.241 349.844 177.759 349.844C177.245 349.844 176.793 349.969 176.404 350.219C176.015 350.465 175.712 350.789 175.494 351.192C175.281 351.59 175.172 352.028 175.168 352.505V353.985C175.168 354.606 175.281 355.138 175.508 355.583C175.735 356.023 176.052 356.361 176.46 356.598C176.867 356.829 177.345 356.945 177.891 356.945C178.257 356.945 178.588 356.894 178.884 356.792C179.181 356.686 179.438 356.53 179.656 356.326C179.874 356.123 180.038 355.87 180.149 355.569L182.497 355.833C182.349 356.453 182.067 356.995 181.65 357.459C181.237 357.918 180.71 358.274 180.066 358.529C179.422 358.779 178.685 358.904 177.857 358.904ZM194.543 348.023L190.743 358.696H187.964L184.163 348.023H186.845L189.298 355.951H189.409L191.868 348.023H194.543ZM196.871 358.696V348.023H199.386V358.696H196.871ZM198.135 346.509C197.737 346.509 197.394 346.377 197.107 346.113C196.82 345.845 196.676 345.522 196.676 345.147C196.676 344.767 196.82 344.446 197.107 344.182C197.394 343.913 197.737 343.778 198.135 343.778C198.538 343.778 198.881 343.913 199.164 344.182C199.451 344.446 199.594 344.767 199.594 345.147C199.594 345.522 199.451 345.845 199.164 346.113C198.881 346.377 198.538 346.509 198.135 346.509ZM207.214 358.904C206.149 358.904 205.234 358.67 204.47 358.203C203.71 357.734 203.124 357.089 202.712 356.264C202.305 355.435 202.1 354.481 202.1 353.401C202.1 352.317 202.309 351.361 202.726 350.532C203.143 349.698 203.731 349.05 204.491 348.586C205.255 348.119 206.158 347.885 207.2 347.885C208.067 347.885 208.833 348.044 209.5 348.364C210.172 348.679 210.707 349.126 211.105 349.705C211.503 350.279 211.73 350.951 211.786 351.72H209.382C209.285 351.206 209.053 350.778 208.687 350.435C208.326 350.087 207.842 349.913 207.235 349.913C206.721 349.913 206.269 350.052 205.88 350.33C205.491 350.603 205.188 350.997 204.97 351.511C204.757 352.026 204.65 352.642 204.65 353.36C204.65 354.087 204.757 354.712 204.97 355.236C205.183 355.754 205.482 356.155 205.866 356.438C206.255 356.716 206.712 356.855 207.235 356.855C207.605 356.855 207.937 356.785 208.228 356.646C208.525 356.502 208.773 356.296 208.972 356.028C209.171 355.759 209.308 355.432 209.382 355.048H211.786C211.726 355.803 211.504 356.472 211.119 357.056C210.735 357.635 210.211 358.089 209.549 358.418C208.886 358.742 208.108 358.904 207.214 358.904ZM219.163 358.904C218.092 358.904 217.169 358.682 216.39 358.237C215.617 357.788 215.022 357.153 214.605 356.333C214.188 355.509 213.98 354.539 213.98 353.422C213.98 352.325 214.188 351.361 214.605 350.532C215.027 349.698 215.615 349.05 216.369 348.586C217.125 348.119 218.012 347.885 219.031 347.885C219.688 347.885 220.309 347.992 220.893 348.204C221.481 348.413 222 348.737 222.449 349.177C222.903 349.617 223.26 350.178 223.519 350.858C223.779 351.535 223.908 352.341 223.908 353.276V354.048H215.161V352.352H221.497C221.493 351.871 221.389 351.442 221.184 351.067C220.981 350.687 220.696 350.388 220.33 350.17C219.969 349.953 219.547 349.844 219.065 349.844C218.552 349.844 218.1 349.969 217.711 350.219C217.322 350.465 217.018 350.789 216.8 351.192C216.587 351.59 216.478 352.028 216.474 352.505V353.985C216.474 354.606 216.587 355.138 216.814 355.583C217.041 356.023 217.359 356.361 217.766 356.598C218.174 356.829 218.651 356.945 219.197 356.945C219.563 356.945 219.894 356.894 220.191 356.792C220.487 356.686 220.745 356.53 220.962 356.326C221.18 356.123 221.344 355.87 221.456 355.569L223.804 355.833C223.655 356.453 223.373 356.995 222.956 357.459C222.544 357.918 222.016 358.274 221.372 358.529C220.728 358.779 219.992 358.904 219.163 358.904ZM235.057 350.845L232.765 351.095C232.7 350.863 232.586 350.645 232.425 350.442C232.267 350.238 232.054 350.073 231.785 349.948C231.517 349.823 231.187 349.761 230.799 349.761C230.275 349.761 229.835 349.874 229.479 350.101C229.127 350.328 228.952 350.622 228.958 350.984C228.952 351.294 229.066 351.547 229.298 351.741C229.534 351.935 229.923 352.095 230.465 352.22L232.286 352.61C233.295 352.827 234.045 353.172 234.536 353.645C235.032 354.117 235.282 354.736 235.287 355.499C235.282 356.171 235.085 356.764 234.696 357.278C234.312 357.788 233.777 358.186 233.091 358.473C232.406 358.76 231.619 358.904 230.729 358.904C229.423 358.904 228.371 358.631 227.574 358.084C226.778 357.533 226.303 356.767 226.151 355.784L228.603 355.548C228.714 356.03 228.95 356.393 229.312 356.639C229.673 356.885 230.143 357.007 230.722 357.007C231.32 357.007 231.799 356.885 232.16 356.639C232.526 356.393 232.709 356.09 232.709 355.729C232.709 355.423 232.591 355.171 232.355 354.972C232.123 354.772 231.762 354.62 231.271 354.513L229.451 354.131C228.427 353.918 227.67 353.559 227.178 353.054C226.687 352.544 226.445 351.901 226.449 351.123C226.445 350.465 226.623 349.895 226.984 349.413C227.35 348.927 227.857 348.552 228.506 348.288C229.159 348.019 229.912 347.885 230.763 347.885C232.014 347.885 232.999 348.151 233.717 348.683C234.439 349.216 234.886 349.937 235.057 350.845Z" fill="black"/>
<path id='devices' d="M406.522 404.348H80.4348C62.4255 404.348 47.8261 418.947 47.8261 436.957C47.8261 454.966 62.4255 469.565 80.4348 469.565H406.522C424.531 469.565 439.13 454.966 439.13 436.957C439.13 418.947 424.531 404.348 406.522 404.348Z" fill="#F3F3F3"/>
<path d="M409.696 217H83.6087C65.5994 217 51 231.599 51 249.609C51 267.618 65.5994 282.217 83.6087 282.217H409.696C427.705 282.217 442.304 267.618 442.304 249.609C442.304 231.599 427.705 217 409.696 217Z" fill="#EEEEEE"/>
<path id='on' d="M371.696 238H326.043C318.84 238 313 243.84 313 251.043C313 258.247 318.84 264.087 326.043 264.087H371.696C378.899 264.087 384.739 258.247 384.739 251.043C384.739 243.84 378.899 238 371.696 238Z" fill="#656966ff"/>
<path id='hide' d="M383 251C383 257.075 377.628 262 371 262C364.372 262 359 257.075 359 251C359 244.925 364.372 240 371 240C377.628 240 383 244.925 383 251Z" fill="white"/>
<path id='off' d="M340 250C340 256.075 334.628 261 328 261C321.372 261 316 256.075 316 250C316 243.925 321.372 239 328 239C334.628 239 340 243.925 340 250Z" fill="white"/>
<path d="M89 256.229V242H94.4472C95.4754 242 96.33 242.162 97.0109 242.487C97.6964 242.806 98.2082 243.244 98.5464 243.799C98.8891 244.355 99.0605 244.985 99.0605 245.689C99.0605 246.268 98.9494 246.764 98.727 247.176C98.5047 247.584 98.206 247.915 97.8308 248.17C97.4556 248.425 97.0363 248.607 96.5732 248.719V248.858C97.0781 248.885 97.5621 249.04 98.0253 249.323C98.4931 249.601 98.8752 249.994 99.1717 250.504C99.4681 251.014 99.6164 251.629 99.6164 252.352C99.6164 253.089 99.438 253.751 99.0814 254.339C98.7247 254.923 98.1874 255.384 97.4695 255.722C96.7515 256.06 95.8483 256.229 94.7598 256.229H89ZM91.5777 254.075H94.3498C95.2855 254.075 95.9595 253.897 96.3717 253.54C96.7886 253.179 96.997 252.716 96.997 252.15C96.997 251.729 96.8928 251.35 96.6844 251.011C96.4759 250.669 96.1795 250.4 95.795 250.205C95.4105 250.006 94.952 249.906 94.4193 249.906H91.5777V254.075ZM91.5777 248.052H94.1275C94.5722 248.052 94.9729 247.971 95.3295 247.808C95.6862 247.641 95.9664 247.408 96.1702 247.107C96.3786 246.801 96.4828 246.439 96.4828 246.023C96.4828 245.472 96.2883 245.018 95.8992 244.661C95.5148 244.304 94.9427 244.126 94.1831 244.126H91.5777V248.052ZM104.85 242V256.229H102.335V242H104.85ZM114.825 251.741V245.557H117.34V256.229H114.901V254.333H114.79C114.55 254.93 114.153 255.418 113.602 255.798C113.055 256.178 112.382 256.368 111.58 256.368C110.881 256.368 110.263 256.213 109.725 255.902C109.193 255.587 108.776 255.132 108.475 254.534C108.173 253.932 108.023 253.204 108.023 252.352V245.557H110.538V251.963C110.538 252.64 110.723 253.177 111.094 253.575C111.465 253.973 111.951 254.173 112.553 254.173C112.924 254.173 113.282 254.082 113.63 253.902C113.978 253.721 114.262 253.452 114.484 253.095C114.711 252.734 114.825 252.283 114.825 251.741ZM125.238 256.438C124.168 256.438 123.244 256.215 122.466 255.771C121.692 255.321 121.097 254.687 120.68 253.867C120.263 253.043 120.055 252.072 120.055 250.956C120.055 249.858 120.263 248.895 120.68 248.065C121.102 247.232 121.69 246.583 122.445 246.12C123.2 245.652 124.087 245.418 125.106 245.418C125.764 245.418 126.385 245.525 126.968 245.738C127.557 245.946 128.075 246.27 128.524 246.711C128.978 247.151 129.335 247.711 129.595 248.392C129.853 249.068 129.983 249.874 129.983 250.81V251.581H121.236V249.885H127.572C127.568 249.404 127.464 248.976 127.26 248.601C127.056 248.22 126.771 247.922 126.405 247.704C126.044 247.486 125.622 247.378 125.141 247.378C124.626 247.378 124.175 247.502 123.786 247.753C123.397 247.998 123.094 248.322 122.876 248.725C122.663 249.124 122.554 249.561 122.549 250.039V251.518C122.549 252.139 122.663 252.672 122.89 253.116C123.117 253.557 123.434 253.894 123.842 254.131C124.249 254.363 124.726 254.478 125.273 254.478C125.638 254.478 125.97 254.427 126.267 254.325C126.563 254.219 126.82 254.064 127.037 253.86C127.255 253.656 127.42 253.404 127.53 253.103L129.879 253.367C129.731 253.987 129.448 254.529 129.032 254.993C128.62 255.451 128.091 255.808 127.448 256.062C126.803 256.313 126.067 256.438 125.238 256.438ZM138.027 245.557V247.502H131.892V245.557H138.027ZM133.407 243H135.922V253.019C135.922 253.358 135.973 253.617 136.075 253.797C136.182 253.973 136.32 254.094 136.492 254.158C136.663 254.224 136.853 254.256 137.061 254.256C137.219 254.256 137.363 254.245 137.492 254.221C137.627 254.198 137.728 254.177 137.798 254.158L138.222 256.125C138.087 256.171 137.895 256.222 137.645 256.278C137.4 256.333 137.098 256.366 136.742 256.375C136.112 256.393 135.544 256.299 135.04 256.09C134.535 255.877 134.134 255.548 133.838 255.103C133.545 254.659 133.402 254.103 133.407 253.436V243ZM145.258 256.438C144.216 256.438 143.312 256.208 142.548 255.75C141.784 255.291 141.191 254.65 140.77 253.825C140.353 253.001 140.144 252.037 140.144 250.935C140.144 249.833 140.353 248.867 140.77 248.038C141.191 247.208 141.784 246.565 142.548 246.106C143.312 245.648 144.216 245.418 145.258 245.418C146.3 245.418 147.203 245.648 147.968 246.106C148.732 246.565 149.322 247.208 149.74 248.038C150.161 248.867 150.372 249.833 150.372 250.935C150.372 252.037 150.161 253.001 149.74 253.825C149.322 254.65 148.732 255.291 147.968 255.75C147.203 256.208 146.3 256.438 145.258 256.438ZM145.272 254.423C145.837 254.423 146.309 254.267 146.689 253.957C147.069 253.642 147.351 253.221 147.537 252.692C147.727 252.165 147.822 251.577 147.822 250.928C147.822 250.275 147.727 249.684 147.537 249.156C147.351 248.623 147.069 248.2 146.689 247.885C146.309 247.57 145.837 247.412 145.272 247.412C144.693 247.412 144.211 247.57 143.827 247.885C143.447 248.2 143.162 248.623 142.972 249.156C142.787 249.684 142.694 250.275 142.694 250.928C142.694 251.577 142.787 252.165 142.972 252.692C143.162 253.221 143.447 253.642 143.827 253.957C144.211 254.267 144.693 254.423 145.272 254.423ZM157.748 256.438C156.706 256.438 155.803 256.208 155.038 255.75C154.274 255.291 153.681 254.65 153.26 253.825C152.843 253.001 152.635 252.037 152.635 250.935C152.635 249.833 152.843 248.867 153.26 248.038C153.681 247.208 154.274 246.565 155.038 246.106C155.803 245.648 156.706 245.418 157.748 245.418C158.79 245.418 159.694 245.648 160.458 246.106C161.222 246.565 161.813 247.208 162.23 248.038C162.651 248.867 162.862 249.833 162.862 250.935C162.862 252.037 162.651 253.001 162.23 253.825C161.813 254.65 161.222 255.291 160.458 255.75C159.694 256.208 158.79 256.438 157.748 256.438ZM157.762 254.423C158.327 254.423 158.8 254.267 159.18 253.957C159.559 253.642 159.842 253.221 160.028 252.692C160.217 252.165 160.312 251.577 160.312 250.928C160.312 250.275 160.217 249.684 160.028 249.156C159.842 248.623 159.559 248.2 159.18 247.885C158.8 247.57 158.327 247.412 157.762 247.412C157.183 247.412 156.702 247.57 156.317 247.885C155.937 248.2 155.652 248.623 155.462 249.156C155.277 249.684 155.185 250.275 155.185 250.928C155.185 251.577 155.277 252.165 155.462 252.692C155.652 253.221 155.937 253.642 156.317 253.957C156.702 254.267 157.183 254.423 157.762 254.423ZM170.913 245.557V247.502H164.778V245.557H170.913ZM166.292 243H168.808V253.019C168.808 253.358 168.859 253.617 168.96 253.797C169.067 253.973 169.206 254.094 169.377 254.158C169.549 254.224 169.738 254.256 169.947 254.256C170.104 254.256 170.248 254.245 170.378 254.221C170.512 254.198 170.614 254.177 170.683 254.158L171.107 256.125C170.973 256.171 170.781 256.222 170.531 256.278C170.285 256.333 169.984 256.366 169.628 256.375C168.998 256.393 168.43 256.299 167.925 256.09C167.42 255.877 167.02 255.548 166.723 255.103C166.431 254.659 166.288 254.103 166.292 253.436V243ZM176.292 283.925L176.348 256.229H173.832V242H176.292V247.371H176.417C176.667 246.769 177.054 246.294 177.578 245.946C178.105 245.594 178.777 245.418 179.592 245.418C180.333 245.418 180.979 245.573 181.53 245.884C182.082 246.194 182.508 246.648 182.809 247.245C183.115 247.843 183.268 248.573 183.268 249.434V256.229H180.752V249.823C180.752 249.105 180.567 248.547 180.197 248.149C179.831 247.746 179.317 247.544 178.654 247.544C178.21 247.544 177.811 247.641 177.459 247.836C177.112 248.026 176.839 248.301 176.639 248.663C176.445 249.024 176.292 283.411 176.292 283.925Z" fill="black"/>
<path id='device' d="M88.5198 443.478V429.249H93.5917C94.6939 429.249 95.6089 429.439 96.3361 429.818C97.0678 430.199 97.6143 430.724 97.9756 431.396C98.3369 432.063 98.5176 432.834 98.5176 433.709C98.5176 434.581 98.335 435.347 97.9691 436.01C97.6078 436.667 97.0613 437.179 96.3289 437.545C95.6017 437.911 94.6874 438.094 93.5846 438.094H89.7426V436.246H93.3902C94.0848 436.246 94.6502 436.146 95.0852 435.947C95.5254 435.747 95.8476 435.458 96.0511 435.078C96.2552 434.699 96.3569 434.242 96.3569 433.709C96.3569 433.172 96.2526 432.707 96.0446 432.313C95.8404 431.919 95.5189 431.618 95.0787 431.41C94.643 431.197 94.0711 431.09 93.3622 431.09H90.6667V443.478H88.5198ZM95.5443 437.058L99.0596 443.478H96.6139L93.1678 437.058H95.5443ZM104.656 443.714C103.98 443.714 103.368 443.589 102.822 443.339C102.275 443.084 101.842 442.717 101.523 442.235C101.208 441.753 101.05 441.162 101.05 440.463C101.05 439.861 101.166 439.365 101.398 438.976C101.629 438.587 101.942 438.279 102.335 438.052C102.729 437.825 103.17 437.654 103.655 437.538C104.142 437.422 104.638 437.334 105.142 437.274C105.782 437.2 106.301 437.14 106.698 437.094C107.097 437.042 107.387 436.961 107.567 436.85C107.748 436.739 107.838 436.558 107.838 436.308V436.259C107.838 435.653 107.667 435.183 107.324 434.849C106.986 434.515 106.481 434.348 105.81 434.348C105.11 434.348 104.559 434.504 104.156 434.814C103.758 435.12 103.482 435.46 103.329 435.835L101.377 435.391C101.608 434.742 101.947 434.219 102.391 433.821C102.84 433.418 103.357 433.126 103.94 432.945C104.524 432.76 105.138 432.667 105.782 432.667C106.208 432.667 106.659 432.718 107.137 432.82C107.618 432.918 108.067 433.098 108.484 433.362C108.906 433.626 109.251 434.003 109.52 434.495C109.788 434.981 109.923 435.613 109.923 436.392V443.478H107.894V442.019H107.81C107.676 442.288 107.475 442.552 107.206 442.811C106.937 443.071 106.592 443.286 106.171 443.457C105.749 443.629 105.244 443.714 104.656 443.714ZM105.108 442.047C105.682 442.047 106.173 441.933 106.58 441.706C106.993 441.479 107.306 441.183 107.519 440.817C107.736 440.447 107.845 440.05 107.845 439.629V438.254C107.771 438.327 107.627 438.397 107.415 438.462C107.206 438.522 106.967 438.575 106.698 438.622C106.43 438.663 106.168 438.703 105.914 438.74C105.659 438.772 105.446 438.8 105.274 438.823C104.872 438.874 104.503 438.96 104.17 439.08C103.841 439.201 103.577 439.374 103.378 439.601C103.183 439.823 103.086 440.12 103.086 440.491C103.086 441.005 103.276 441.394 103.655 441.658C104.036 441.918 104.52 442.047 105.108 442.047ZM121.273 435.412L119.39 435.745C119.312 435.504 119.187 435.275 119.015 435.057C118.848 434.84 118.622 434.662 118.335 434.523C118.048 434.384 117.688 434.314 117.258 434.314C116.67 434.314 116.178 434.446 115.785 434.71C115.391 434.969 115.194 435.305 115.194 435.717C115.194 436.074 115.326 436.361 115.59 436.579C115.854 436.797 116.28 436.975 116.868 437.114L118.564 437.503C119.546 437.73 120.277 438.08 120.759 438.552C121.241 439.025 121.482 439.638 121.482 440.393C121.482 441.033 121.297 441.603 120.926 442.103C120.56 442.598 120.048 442.987 119.39 443.27C118.738 443.553 117.98 443.693 117.119 443.693C115.923 443.693 114.948 443.439 114.194 442.929C113.439 442.415 112.976 441.685 112.804 440.741L114.812 440.435C114.937 440.958 115.194 441.355 115.583 441.623C115.972 441.887 116.48 442.019 117.105 442.019C117.785 442.019 118.33 441.878 118.738 441.595C119.145 441.309 119.349 440.958 119.349 440.546C119.349 440.213 119.224 439.932 118.974 439.705C118.728 439.478 118.351 439.307 117.842 439.192L116.035 438.796C115.039 438.569 114.303 438.207 113.825 437.712C113.353 437.216 113.117 436.588 113.117 435.829C113.117 435.199 113.293 434.648 113.645 434.175C113.997 433.703 114.483 433.334 115.104 433.07C115.725 432.802 116.435 432.667 117.237 432.667C118.39 432.667 119.298 432.918 119.96 433.418C120.623 433.913 121.061 434.578 121.273 435.412ZM124.353 447.48V432.806H126.382V434.536H126.555C126.676 434.314 126.849 434.057 127.076 433.765C127.303 433.473 127.618 433.218 128.021 433.001C128.424 432.779 128.957 432.667 129.62 432.667C130.481 432.667 131.25 432.885 131.927 433.321C132.602 433.756 133.133 434.384 133.517 435.203C133.907 436.023 134.101 437.01 134.101 438.163C134.101 439.317 133.908 440.305 133.524 441.13C133.14 441.95 132.612 442.582 131.94 443.027C131.268 443.467 130.502 443.687 129.641 443.687C128.992 443.687 128.462 443.578 128.049 443.36C127.642 443.142 127.322 442.887 127.091 442.596C126.859 442.304 126.68 442.045 126.555 441.818H126.431V447.48H124.353ZM126.389 438.142C126.389 438.893 126.498 439.55 126.715 440.116C126.933 440.68 127.248 441.123 127.66 441.443C128.072 441.758 128.578 441.915 129.175 441.915C129.796 441.915 130.314 441.751 130.731 441.422C131.148 441.088 131.463 440.637 131.676 440.067C131.894 439.497 132.003 438.856 132.003 438.142C132.003 437.438 131.896 436.806 131.683 436.246C131.475 435.685 131.16 435.243 130.738 434.918C130.322 434.594 129.8 434.432 129.175 434.432C128.573 434.432 128.063 434.587 127.646 434.898C127.234 435.208 126.922 435.641 126.708 436.197C126.495 436.752 126.389 437.401 126.389 438.142ZM137.182 443.478V429.249H139.26V434.536H139.385C139.505 434.314 139.679 434.057 139.906 433.765C140.133 433.473 140.448 433.218 140.851 433.001C141.254 432.779 141.786 432.667 142.449 432.667C143.31 432.667 144.079 432.885 144.755 433.321C145.432 433.756 145.962 434.384 146.346 435.203C146.735 436.023 146.93 437.01 146.93 438.163C146.93 439.317 146.738 440.305 146.353 441.13C145.969 441.95 145.441 442.582 144.769 443.027C144.097 443.467 143.331 443.687 142.47 443.687C141.821 443.687 141.29 443.578 140.878 443.36C140.471 443.142 140.151 442.887 139.92 442.596C139.688 442.304 139.51 442.045 139.385 441.818H139.211V443.478H137.182ZM139.218 438.142C139.218 438.893 139.327 439.55 139.545 440.116C139.762 440.68 140.077 441.123 140.49 441.443C140.902 441.758 141.407 441.915 142.004 441.915C142.625 441.915 143.143 441.751 143.56 441.422C143.977 441.088 144.292 440.637 144.505 440.067C144.723 439.497 144.832 438.856 144.832 438.142C144.832 437.438 144.725 436.806 144.512 436.246C144.303 435.685 143.988 435.243 143.567 434.918C143.15 434.594 142.629 434.432 142.004 434.432C141.402 434.432 140.893 434.587 140.475 434.898C140.063 435.208 139.751 435.641 139.537 436.197C139.324 436.752 139.218 437.401 139.218 438.142ZM154.449 443.693C153.398 443.693 152.492 443.469 151.732 443.02C150.978 442.566 150.394 441.929 149.982 441.109C149.574 440.285 149.37 439.319 149.37 438.212C149.37 437.119 149.574 436.155 149.982 435.322C150.394 434.487 150.968 433.837 151.705 433.369C152.446 432.901 153.312 432.667 154.303 432.667C154.905 432.667 155.489 432.767 156.054 432.966C156.619 433.165 157.127 433.478 157.576 433.904C158.025 434.33 158.379 434.884 158.639 435.565C158.898 436.241 159.028 437.063 159.028 438.031V438.768H150.545V437.212H156.992C156.992 436.665 156.881 436.18 156.659 435.759C156.437 435.333 156.123 434.997 155.72 434.752C155.323 434.506 154.854 434.384 154.317 434.384C153.734 434.384 153.224 434.527 152.789 434.814C152.358 435.097 152.025 435.468 151.788 435.926C151.556 436.38 151.441 436.873 151.441 437.406V438.622C151.441 439.335 151.566 439.942 151.816 440.442C152.071 440.943 152.425 441.324 152.879 441.588C153.333 441.848 153.863 441.978 154.47 441.978C154.863 441.978 155.223 441.922 155.547 441.811C155.871 441.695 156.152 441.524 156.388 441.297C156.624 441.07 156.804 440.789 156.93 440.456L158.896 440.81C158.739 441.389 158.456 441.897 158.048 442.332C157.645 442.763 157.138 443.099 156.527 443.339C155.92 443.575 155.227 443.693 154.449 443.693ZM161.92 443.478V432.806H163.928V434.502H164.039C164.233 433.927 164.576 433.476 165.067 433.147C165.563 432.813 166.123 432.646 166.749 432.646C166.878 432.646 167.031 432.651 167.207 432.661C167.388 432.67 167.529 432.682 167.631 432.695V434.682C167.548 434.659 167.4 434.633 167.186 434.606C166.973 434.573 166.76 434.557 166.547 434.557C166.056 434.557 165.618 434.662 165.234 434.87C164.854 435.074 164.553 435.359 164.33 435.725C164.109 436.086 163.997 436.498 163.997 436.961V443.478H161.92ZM170.015 443.478V432.806H172.023V434.502H172.135C172.329 433.927 172.672 433.476 173.163 433.147C173.658 432.813 174.219 432.646 174.844 432.646C174.974 432.646 175.127 432.651 175.303 432.661C175.484 432.67 175.625 432.682 175.727 432.695V434.682C175.644 434.659 175.495 434.633 175.282 434.606C175.069 434.573 174.856 434.557 174.643 434.557C174.152 434.557 173.715 434.662 173.33 434.87C172.95 435.074 172.649 435.359 172.427 435.725C172.204 436.086 172.093 436.498 172.093 436.961V443.478H170.015ZM179.75 447.48C179.439 447.48 179.156 447.455 178.902 447.404C178.647 447.357 178.457 447.307 178.332 447.251L178.832 445.549C179.212 445.651 179.55 445.694 179.847 445.681C180.143 445.667 180.405 445.555 180.632 445.347C180.864 445.139 181.067 444.798 181.243 444.326L181.5 443.617L177.596 432.806H179.819L182.522 441.088H182.633L185.336 432.806H187.566L183.168 444.903C182.964 445.458 182.705 445.928 182.39 446.313C182.075 446.702 181.7 446.994 181.264 447.188C180.828 447.383 180.324 447.48 179.75 447.48ZM196.037 443.478V429.249H201.108C202.216 429.249 203.133 429.451 203.86 429.854C204.587 430.257 205.132 430.808 205.493 431.507C205.854 432.202 206.035 432.985 206.035 433.855C206.035 434.731 205.852 435.518 205.486 436.218C205.125 436.913 204.578 437.464 203.846 437.871C203.119 438.275 202.204 438.476 201.102 438.476H197.614V436.655H200.907C201.607 436.655 202.174 436.535 202.61 436.294C203.045 436.049 203.364 435.715 203.568 435.293C203.772 434.872 203.874 434.393 203.874 433.855C203.874 433.318 203.772 432.841 203.568 432.424C203.364 432.007 203.043 431.681 202.603 431.444C202.167 431.208 201.593 431.09 200.88 431.09H198.183V443.478H196.037ZM208.972 443.478V432.806H211.05V443.478H208.972ZM210.021 431.16C209.66 431.16 209.349 431.039 209.09 430.799C208.835 430.553 208.708 430.261 208.708 429.923C208.708 429.58 208.835 429.288 209.09 429.048C209.349 428.802 209.66 428.679 210.021 428.679C210.382 428.679 210.69 428.802 210.945 429.048C211.204 429.288 211.334 429.58 211.334 429.923C211.334 430.261 211.204 430.553 210.945 430.799C210.69 431.039 210.382 431.16 210.021 431.16Z" fill="black"/>
</g>
<defs>
<linearGradient id="paint0_linear_103_108" x1="241.67" y1="28.0998" x2="256.96" y2="41.9999" gradientUnits="userSpaceOnUse">
<stop/>
<stop offset="1" stop-opacity="0"/>
</linearGradient>
<linearGradient id="paint1_linear_103_108" x1="262.161" y1="54.119" x2="249.828" y2="40.8393" gradientUnits="userSpaceOnUse">
<stop stop-color="white"/>
<stop offset="1" stop-color="white" stop-opacity="0"/>
</linearGradient>
<linearGradient id="paint2_linear_103_108" x1="92.3917" y1="35.0946" x2="100.209" y2="42.201" gradientUnits="userSpaceOnUse">
<stop/>
<stop offset="1" stop-opacity="0"/>
</linearGradient>
<linearGradient id="paint3_linear_103_108" x1="102.952" y1="48.5471" x2="96.6478" y2="41.7579" gradientUnits="userSpaceOnUse">
<stop stop-color="white"/>
<stop offset="1" stop-color="white" stop-opacity="0"/>
</linearGradient>
</defs>
</svg>
