<svg width="500" height="900" viewBox="0 0 500 900" fill="none" xmlns="http://www.w3.org/2000/svg">
<mask id="mask0_637_26" style="mask-type:luminance" maskUnits="userSpaceOnUse" x="21" y="0" width="452" height="898">
<path d="M472.261 0H21.7391V897.456H472.261V0Z" fill="white"/>
</mask>
<g mask="url(#mask0_637_26)">
<path d="M244.147 0.000501342C189.237 0.0715885 134.347 0.29828 79.4403 4.83845C79.4403 4.83845 25.0412 7.4147 21.8742 35.1711C21.8742 35.1711 21.1193 74.4183 23.1788 130.03L21.8742 853.096C23.1734 888.183 52.3985 894.933 151.031 895.715L245.015 897.398V897.457H246.103H247.245V897.398L341.177 895.715C439.812 894.933 469.036 888.183 470.334 853.096L469.029 130.03C471.089 74.4209 470.334 35.1711 470.334 35.1711C467.167 7.41522 412.822 4.83845 412.822 4.83845C357.911 0.29815 302.97 0.071458 248.057 0.000501342C246.753 -0.00118127 245.451 0.00204047 244.147 0.000501342Z" fill="#171717"/>
<path d="M451.282 72.7311H38.9641V801.339H451.282V72.7311Z" fill="url(#paint0_linear_637_26)"/>
<path d="M256.96 41.8048C256.96 48.431 251.589 53.8025 244.963 53.8025C238.336 53.8025 232.965 48.431 232.965 41.8048C232.965 35.1786 238.336 29.8071 244.963 29.8071C251.589 29.8071 256.96 35.1786 256.96 41.8048Z" fill="url(#paint1_linear_637_26)"/>
<path d="M256.96 41.4983C256.96 48.1245 251.589 53.496 244.963 53.496C238.336 53.496 232.965 48.1245 232.965 41.4983C232.965 34.872 238.336 29.5005 244.963 29.5005C251.589 29.5005 256.96 34.872 256.96 41.4983Z" fill="url(#paint2_linear_637_26)"/>
<path d="M100.209 42.0059C100.209 45.3935 97.4624 48.1397 94.075 48.1397C90.6876 48.1397 87.9413 45.3935 87.9413 42.0059C87.9413 38.6183 90.6876 35.8721 94.075 35.8721C97.4624 35.8721 100.209 38.6183 100.209 42.0059Z" fill="url(#paint3_linear_637_26)"/>
<path d="M100.294 41.9994C100.294 45.387 97.5479 48.1332 94.1598 48.1332C90.7724 48.1332 88.0261 45.387 88.0261 41.9994C88.0261 38.6118 90.7724 35.8656 94.1598 35.8656C97.5479 35.8656 100.294 38.6118 100.294 41.9994Z" fill="url(#paint4_linear_637_26)"/>
<path d="M96.5259 42.121C96.5259 43.6006 95.3611 44.8002 93.9244 44.8002C92.4877 44.8002 91.3229 43.6007 91.3229 42.121C91.3229 40.6414 92.4877 39.4418 93.9244 39.4418C95.3611 39.4418 96.5259 40.6413 96.5259 42.121Z" fill="#6378FF"/>
<path d="M470.138 112.748V170.213" stroke="#5A5A5A" stroke-width="4.17476"/>
<path d="M253.76 41.8278C253.76 46.6311 249.866 50.5249 245.062 50.5249C240.258 50.5249 236.364 46.6311 236.364 41.8278C236.364 37.0244 240.258 33.1305 245.062 33.1305C249.866 33.1305 253.76 37.0244 253.76 41.8278Z" fill="#3D3D3D"/>
<path d="M353.679 764.739L383.794 764.85V777.783M106.497 771.033L112.11 778.709M112.218 764.465L106.449 771.013L138.093 771.319C146.533 771.437 143.4 784.656 137.985 783.274L122.655 783.385M344.547 770.83H376.075L375.749 782.896H344.764L344.547 770.83ZM223.112 784.526L263.99 784.741L264.207 772.024L243.66 764.087L223.547 772.565L223.112 784.526Z" stroke="white" stroke-width="1.73948"/>
<path d="M326 114C327.75 114 328.068 114 329 114" stroke="white" stroke-width="1.73948"/>
<path d="M323 109C325.574 106.193 330.679 106.519 333 108.869" stroke="white" stroke-width="1.73948"/>
<path d="M318 104.914C324.217 98.2629 331.554 98.4337 337 105" stroke="white" stroke-width="1.73948"/>
<path d="M315 99C322.339 91.9741 334.187 92.828 340 98.6061" stroke="white" stroke-width="1.73948"/>
<path d="M341.067 117L341 113.488L345 111L344.932 117H341.067Z" fill="#F6F6F6"/>
<path d="M346 116.782L346.313 107.546L350 105V117L346 116.782Z" fill="#F6F6F6"/>
<path d="M352 116.782L352.235 101.556L355 99V117L352 116.782Z" fill="#F6F6F6"/>
<path d="M357 116.773L357.235 95.6463L360 93V117L357 116.773Z" fill="#F6F6F6"/>
<path d="M369.066 117H382V94.3921H377.689V92H373.181V94.3143H369L369.066 117Z" fill="#F6F6F6"/>
<path d="M387 110.529V108.493L394.891 94.2795H396.189V97.4334H395.311L389.35 108.173V108.333H399.976V110.529H387ZM395.452 114.72V109.91V108.962V94.2795H397.521V114.72H395.452ZM404.805 112.106C404.372 112.106 404.001 111.929 403.691 111.577C403.381 111.224 403.227 110.802 403.227 110.309C403.227 109.817 403.381 109.394 403.691 109.041C404.001 108.689 404.372 108.512 404.805 108.512C405.237 108.512 405.608 108.689 405.918 109.041C406.227 109.394 406.383 109.817 406.383 110.309C406.383 110.635 406.31 110.935 406.163 111.207C406.023 111.48 405.833 111.7 405.594 111.866C405.36 112.025 405.096 112.106 404.805 112.106ZM404.805 101.765C404.372 101.765 404.001 101.589 403.691 101.236C403.381 100.884 403.227 100.462 403.227 99.969C403.227 99.4765 403.381 99.054 403.691 98.7008C404.001 98.3484 404.372 98.1718 404.805 98.1718C405.237 98.1718 405.608 98.3484 405.918 98.7008C406.227 99.054 406.383 99.4765 406.383 99.969C406.383 100.295 406.31 100.595 406.163 100.867C406.023 101.14 405.833 101.359 405.594 101.526C405.36 101.685 405.096 101.765 404.805 101.765ZM409.64 110.529V108.493L417.531 94.2795H418.828V97.4334H417.951L411.99 108.173V108.333H422.616V110.529H409.64ZM418.091 114.72V109.91V108.962V94.2795H420.16V114.72H418.091ZM431.758 115C430.437 115 429.311 114.591 428.382 113.773C427.453 112.947 426.742 111.753 426.252 110.189C425.761 108.619 425.516 106.723 425.516 104.5C425.516 102.291 425.761 100.404 426.252 98.841C426.749 97.2704 427.461 96.0731 428.391 95.2483C429.326 94.4161 430.449 94 431.758 94C433.067 94 434.187 94.4161 435.116 95.2483C436.051 96.0731 436.764 97.2704 437.255 98.841C437.752 100.404 438 102.291 438 104.5C438 106.723 437.754 108.619 437.263 110.189C436.772 111.753 436.062 112.947 435.133 113.773C434.203 114.591 433.079 115 431.758 115ZM431.758 112.804C433.067 112.804 434.084 112.086 434.809 110.648C435.533 109.211 435.896 107.162 435.896 104.5C435.896 102.731 435.729 101.223 435.396 99.9791C435.069 98.7344 434.595 97.7866 433.976 97.1338C433.362 96.4819 432.623 96.156 431.758 96.156C430.461 96.156 429.446 96.8844 428.715 98.342C427.984 99.7924 427.62 101.846 427.62 104.5C427.62 106.27 427.783 107.774 428.111 109.012C428.438 110.249 428.908 111.191 429.522 111.836C430.141 112.482 430.887 112.804 431.758 112.804Z" fill="white"/>
<path id='icon' class='hoverable' d="M295.173 106.218L300.685 100.57L291.994 92V103.282L286.869 98.5735L285 100.291L291.434 106.218L285 112.147L286.869 113.864L291.994 109.156L292.154 120L301 111.873L295.173 106.218ZM297.607 100.586L294.631 103.32L294.613 97.8352L297.607 100.586ZM294.631 109.117L297.607 111.852L294.613 114.603L294.631 109.117Z" fill="white"/>
</g>
<defs>
<linearGradient id="paint0_linear_637_26" x1="245.123" y1="72.7311" x2="245.123" y2="801.339" gradientUnits="userSpaceOnUse">
<stop stop-color="#A1B4E3" stop-opacity="0.63"/>
<stop offset="0.0001" stop-color="#2EDCE4" stop-opacity="0.480217"/>
<stop offset="0.0002" stop-color="#2DCCE2" stop-opacity="0.641195"/>
<stop offset="0.0003" stop-color="#27B4E0" stop-opacity="0"/>
<stop offset="0.0004" stop-color="#2FDFE4" stop-opacity="0.444444"/>
<stop offset="0.0005" stop-color="#26D7DF" stop-opacity="0.589005"/>
<stop offset="1" stop-color="#3062E4" stop-opacity="0.5"/>
</linearGradient>
<linearGradient id="paint1_linear_637_26" x1="241.67" y1="27.9047" x2="256.96" y2="41.8048" gradientUnits="userSpaceOnUse">
<stop/>
<stop offset="1" stop-opacity="0"/>
</linearGradient>
<linearGradient id="paint2_linear_637_26" x1="262.161" y1="53.9239" x2="249.828" y2="40.6442" gradientUnits="userSpaceOnUse">
<stop stop-color="white"/>
<stop offset="1" stop-color="white" stop-opacity="0"/>
</linearGradient>
<linearGradient id="paint3_linear_637_26" x1="92.3917" y1="34.8995" x2="100.209" y2="42.0059" gradientUnits="userSpaceOnUse">
<stop/>
<stop offset="1" stop-opacity="0"/>
</linearGradient>
<linearGradient id="paint4_linear_637_26" x1="102.952" y1="48.352" x2="96.6479" y2="41.5627" gradientUnits="userSpaceOnUse">
<stop stop-color="white"/>
<stop offset="1" stop-color="white" stop-opacity="0"/>
</linearGradient>
</defs>
</svg>
